<svg width="309" height="394" viewBox="0 0 309 394" fill="none" xmlns="http://www.w3.org/2000/svg">
<g id="bear 3">
<rect width="309" height="394" fill="white"/>
<g id="armLBear3">
<g id="_2379167826896">
<path id="Vector" fill-rule="evenodd" clip-rule="evenodd" d="M69.8817 249.476C69.1046 249.074 68.3414 248.63 67.5782 248.144C55.4086 240.539 50.1078 227.326 55.7416 218.624C66.8983 201.415 106.432 221.025 119.518 226.716C128.648 239.636 127.205 252.252 115.216 264.562C97.5929 260.024 83.7442 255.569 73.6699 251.197C72.3933 250.712 71.1444 250.142 69.8956 249.476H69.8817Z" fill="#090505"/>
<g id="Group">
<path id="Vector_2" fill-rule="evenodd" clip-rule="evenodd" d="M72.2129 244.716C72.0325 244.633 71.8521 244.549 71.6717 244.452H71.644C71.0473 244.147 70.4506 243.842 69.8539 243.495C60.0988 237.929 55.7278 228.45 60.0988 222.33C69.7013 208.868 110.304 228.395 120.156 232.683C145.106 254.556 144.051 263.507 116.978 259.538C97.3986 254.486 82.4815 249.546 72.2129 244.716Z" fill="#5574B5"/>
<path id="Vector_3" fill-rule="evenodd" clip-rule="evenodd" d="M63.9981 219.166C68.8826 216.89 76.2648 217.445 84.1605 219.291C82.9671 223.177 79.5536 226.174 75.2657 226.66C70.1037 227.229 65.3996 223.982 63.9981 219.166Z" fill="#F5E800"/>
</g>
</g>
</g>
<g id="bodyBear3">
<g id="_2379167825552">
<g id="Group_2">
<path id="Vector_4" fill-rule="evenodd" clip-rule="evenodd" d="M140.554 321.492C141.234 323.504 142.386 325.669 143.787 327.654C145.203 329.639 146.868 331.443 148.714 332.858C150.559 334.274 152.585 335.301 154.667 335.787C156.748 336.272 158.913 336.203 161.313 335.828C163.714 335.454 166.35 334.76 168.723 333.525C171.096 332.289 173.192 330.499 174.662 328.417C176.133 326.322 176.994 323.934 177.674 321.27C178.354 318.591 178.839 315.649 179.103 312.568C179.367 309.487 179.394 306.281 179.353 302.895C179.297 299.508 179.158 295.928 178.909 291.223C178.673 286.518 178.326 280.675 177.951 276.234C177.59 271.793 177.216 268.767 176.813 265.423C176.425 262.064 176.008 258.4 175.606 254.722C175.19 251.045 174.787 247.367 174.191 243.259C173.608 239.151 172.845 234.612 171.096 231.518C169.348 228.437 166.614 226.785 159.884 226.16C153.154 225.522 142.428 225.897 132.783 227.659C123.139 229.422 112.857 227.118 104.309 230.268C98.0647 229.047 103.962 248.644 104.517 254.542C104.753 257.012 105.364 276.303 105.142 276.886C103.823 280.259 104.573 283.257 104.656 289.405C104.753 295.539 106.224 299.897 108.847 304.491C111.483 309.084 114.952 312.332 118.435 313.512C121.918 314.678 125.401 313.762 127.954 312.97C130.494 312.166 132.104 311.458 133.547 311.333C134.976 311.194 136.239 311.61 137.196 312.429C138.14 313.262 138.806 314.483 139.236 316.038C139.666 317.578 139.874 319.466 140.554 321.492Z" fill="#5574B5"/>
<path id="Vector_5" fill-rule="evenodd" clip-rule="evenodd" d="M179.269 310C179.38 307.711 179.38 305.351 179.353 302.895C179.297 299.647 179.172 296.233 178.936 291.806C177.091 290.779 174.926 290.293 172.664 290.543C166.892 291.181 162.729 296.386 163.367 302.159C164.019 307.933 169.223 312.096 174.995 311.458C176.564 311.277 178.007 310.764 179.269 310Z" fill="#F5E800"/>
<path id="Vector_6" d="M130.153 283.449C135.93 282.805 140.092 277.599 139.448 271.821C138.804 266.043 133.599 261.881 127.822 262.524C122.045 263.168 117.883 268.374 118.527 274.152C119.17 279.93 124.375 284.092 130.153 283.449Z" fill="#F5E800"/>
</g>
<path id="Vector_7" d="M102.88 245.382C105.752 260.01 104.698 272.251 105.142 288.1C105.35 295.553 106.224 299.897 108.847 304.491C111.483 309.084 114.952 312.332 118.435 313.512C121.918 314.678 125.401 313.762 127.954 312.97C130.494 312.166 132.103 311.458 133.547 311.333C134.976 311.194 136.239 311.61 137.196 312.429C138.14 313.262 138.806 314.483 139.236 316.038C139.666 317.578 139.874 319.466 140.554 321.492C141.234 323.504 142.386 325.669 143.787 327.654C145.203 329.639 146.868 331.443 148.714 332.858C150.559 334.274 152.585 335.301 154.667 335.787C156.748 336.272 158.913 336.203 161.313 335.828C163.714 335.454 166.35 334.76 168.723 333.525C171.096 332.289 173.192 330.499 174.662 328.417C176.133 326.322 176.994 323.934 177.674 321.27C178.354 318.591 178.839 315.649 179.103 312.568C179.367 309.487 179.394 306.281 179.353 302.895C179.297 299.508 179.158 295.928 178.909 291.223C178.673 286.518 178.326 280.675 177.951 276.234C177.59 271.793 177.216 268.767 176.813 265.423C176.425 262.064 176.008 258.4 175.606 254.722C175.19 251.045 174.787 247.367 174.191 243.259C173.608 239.151 172.845 234.612 171.096 231.518C169.348 228.437 166.614 226.785 159.884 226.16C153.154 225.522 142.428 225.897 132.783 227.659" stroke="black" stroke-width="5.0799" stroke-linecap="round" stroke-linejoin="round"/>
</g>
</g>
<g id="legLBear3">
<g id="asas">
<path id="Vector_8" d="M102.585 295.585C103.931 309.372 113.704 319.815 124.414 318.909C135.124 318.004 142.715 306.092 141.369 292.304C140.023 278.516 130.249 268.074 119.54 268.979C108.83 269.885 101.239 281.797 102.585 295.585Z" fill="#040002"/>
<path id="Vector_9" d="M107.852 294.548C109.375 305.287 116.934 313.724 124.735 313.391C132.536 313.057 137.625 304.081 136.102 293.341C134.579 282.601 127.02 274.165 119.219 274.498C111.417 274.831 106.328 283.808 107.852 294.548Z" fill="#5574B5"/>
<path id="Vector_10" fill-rule="evenodd" clip-rule="evenodd" d="M119.587 312.374C113.925 309.862 109.18 303.089 107.903 294.915C109.374 293.79 111.164 293.027 113.134 292.819C118.907 292.167 124.111 296.33 124.763 302.104C125.235 306.378 123.084 310.334 119.587 312.374Z" fill="#F5E800"/>
</g>
</g>
<g id="heardBear3">
<g id="Group_3">
<path id="Vector_11" fill-rule="evenodd" clip-rule="evenodd" d="M270.188 108.596C269.48 89.929 261.362 75.7036 251.51 66.9462C247.305 63.2129 240.145 59.2714 233.082 57.2868C224.992 55.0385 217.874 54.0254 208.549 56.4957C200.708 58.5914 193.77 62.1304 187.914 66.1691C177.715 73.2055 166.031 85.1132 160.62 96.4519C159.149 99.5607 157.858 103.502 155.319 105.306C152.308 107.444 147.978 106.694 145.605 102.975C141.526 96.563 137.89 92.0525 132.423 86.7092C131.215 85.5296 129.8 84.4054 128.537 83.2812C127.066 81.9767 126.206 81.2689 124.61 80.1447C121.793 78.174 119.365 76.3698 116.132 74.6211C103.032 67.5985 87.2272 64.5869 71.0196 73.1361C67.7031 74.8848 64.692 76.7722 61.875 78.9095C58.4059 81.5187 57.1016 82.9204 54.1875 85.8349C50.5241 89.4849 45.82 97.2708 43.5027 103.252C37.7856 117.95 37.1057 134.687 42.2261 152.091C47.0273 168.37 54.8536 179.862 63.7067 190.687C73.3092 202.456 89.1561 217.223 100.993 225.578L109.499 231.309C112.219 233.308 115.036 235.07 118.088 236.916C120.989 238.679 123.708 240.566 126.83 242.093C130.064 243.689 132.95 245.299 135.989 247.006C136.808 247.464 137.404 248.088 138.723 247.658C139.611 247.367 140.527 246.978 141.512 246.617L168.918 236.139C182.919 230.463 196.379 223.163 207.452 214.822C216.347 208.118 230.598 195.739 238.258 187.342C240.7 184.664 242.782 182.221 244.946 179.612C246.084 178.224 247.056 176.947 248.124 175.518C248.624 174.852 249.179 174.227 249.678 173.533C250.206 172.798 250.566 172.145 251.121 171.465L254.077 167.205C265.275 149.482 271.076 131.898 270.188 108.596Z" fill="#DF292B"/>
<path id="Vector_12" fill-rule="evenodd" clip-rule="evenodd" d="M270.188 108.596C271.076 131.898 265.275 149.482 254.077 167.205L251.121 171.465C250.566 172.145 250.206 172.798 249.678 173.533C249.179 174.227 248.624 174.852 248.124 175.518C247.056 176.947 246.084 178.224 244.946 179.612C242.782 182.221 240.7 184.664 238.258 187.342C230.598 195.739 216.347 208.118 207.452 214.822C196.379 223.163 182.919 230.463 168.918 236.139L141.512 246.617C140.526 246.978 139.611 247.367 138.723 247.658C137.404 248.088 136.808 247.464 135.989 247.006C132.95 245.299 130.064 243.689 126.83 242.093C123.708 240.566 120.988 238.679 118.088 236.916C115.036 235.07 112.219 233.308 109.499 231.309L100.993 225.578C89.156 217.223 73.3092 202.456 63.7067 190.687C54.8536 179.862 47.0273 168.37 42.226 152.091C37.1056 134.687 37.7856 117.95 43.5027 103.252C45.82 97.2708 50.5241 89.4849 54.1875 85.8349C57.1015 82.9204 58.4059 81.5187 61.875 78.9095C64.6919 76.7722 67.7031 74.8847 71.0196 73.1361C87.2272 64.5869 103.032 67.5985 116.132 74.6211C119.365 76.3697 121.793 78.174 124.61 80.1447C126.206 81.2689 127.066 81.9767 128.537 83.2812C129.8 84.4054 131.215 85.5296 132.423 86.7092C137.89 92.0525 141.526 96.563 145.605 102.975C147.978 106.694 152.308 107.444 155.319 105.306C157.858 103.502 159.149 99.5607 160.62 96.4519C166.031 85.1132 177.715 73.2054 187.914 66.169C193.77 62.1304 200.708 58.5914 208.549 56.4957C217.874 54.0254 224.992 55.0385 233.082 57.2868C240.145 59.2714 247.305 63.2129 251.51 66.9462C261.362 75.7036 269.48 89.929 270.188 108.596ZM52.5362 77.2163C49.1087 81.0052 48.0957 81.1856 44.5018 86.4317C43.6553 87.653 43.1002 88.4996 42.2954 89.7764C32.8317 104.696 29.0851 125.541 32.915 144.166C35.7596 157.989 39.8532 168.259 46.4028 179.126C49.1781 183.748 52.8137 188.855 56.1163 192.824C57.9757 195.059 59.5715 197.057 61.4587 199.195L66.8011 205.162L67.5505 205.801C67.8557 206.106 67.9113 206.189 68.1472 206.453L71.9215 210.27C73.6561 211.977 75.349 213.642 77.0836 215.183C81.9958 219.554 90.7934 227.298 96.233 231.06C103.518 236.097 109.554 240.178 117.089 244.799C119.587 246.326 134.324 254.625 136.183 255.042C138.889 255.638 142.15 254.126 144.537 253.237C147.173 252.266 149.685 251.364 152.335 250.365C168.21 244.383 181.392 239.317 196.212 230.879C212.337 221.692 229.016 207.202 241.574 194.351C248.554 187.203 253.786 180.306 259.336 172.353C264.582 164.859 268.495 156.435 272.2 146.248C275.655 136.755 277.528 125.486 277.57 114.189C277.722 78.9373 258.212 51.2913 222.564 47.9188C210.894 46.8224 198.53 51.5689 189.635 56.5512C182.822 60.354 177.507 64.809 172.109 69.8191C169.167 72.5254 164.658 77.0498 162.451 80.2835C159.121 85.1826 157.692 86.0431 154.625 92.2329C154.153 93.1766 152.141 97.9647 151.447 98.6725C148.2 93.7318 146.951 91.9137 143.024 87.4309C139.638 83.5449 135.947 80.0198 132.103 76.689C131.646 76.2726 131.271 76.0644 130.827 75.6758C129.342 74.3851 124.291 71.0682 122.501 69.9718C101.409 56.9121 78.0827 57.4811 57.8647 72.8585L52.5362 77.2163Z" fill="black"/>
</g>
<g id="eyeLBear3">
<path id="Vector_13" d="M128.819 190.307C132.445 189.903 135.057 186.636 134.653 183.01C134.249 179.384 130.982 176.772 127.357 177.175C123.731 177.579 121.12 180.846 121.524 184.472C121.927 188.098 125.194 190.711 128.819 190.307Z" fill="#020201"/>
<path id="Vector_14" d="M132.751 169.155L125.928 168.423C123.063 168.116 120.616 169.02 120.464 170.443C120.311 171.865 122.511 173.268 125.376 173.575L132.199 174.306C135.064 174.613 137.511 173.709 137.663 172.286C137.816 170.864 135.616 169.462 132.751 169.155Z" fill="#040002"/>
</g>
<g id="mouth">
<path id="Vector_15" d="M139.197 232.733C153.967 234.88 167.263 227.926 168.894 217.201C170.524 206.476 159.873 196.041 145.102 193.894C130.332 191.746 117.037 198.7 115.406 209.425C113.775 220.151 124.427 230.586 139.197 232.733Z" fill="black"/>
<path id="Vector_16" d="M139.379 227.31C150.999 228.517 161.659 223.229 163.189 215.499C164.719 207.768 156.54 200.524 144.92 199.317C133.301 198.11 122.641 203.398 121.111 211.128C119.581 218.858 127.76 226.103 139.379 227.31Z" fill="#FEDC00"/>
<path id="Vector_17" d="M146.971 211.228L137.89 210.255C134.076 209.846 130.861 210.668 130.708 212.09C130.556 213.513 133.524 214.997 137.338 215.406L146.419 216.38C150.233 216.788 153.449 215.967 153.601 214.544C153.754 213.122 150.785 211.637 146.971 211.228Z" fill="#040002"/>
</g>
<g id="eyeRBear3">
<path id="Vector_18" d="M162.891 194.555C166.517 194.151 169.128 190.884 168.724 187.258C168.321 183.632 165.054 181.02 161.429 181.423C157.803 181.827 155.191 185.094 155.595 188.72C155.999 192.346 159.266 194.958 162.891 194.555Z" fill="#020201"/>
<path id="Vector_19" d="M168.284 173.542L161.462 172.811C158.596 172.503 156.15 173.408 155.997 174.83C155.845 176.253 158.044 177.655 160.91 177.962L167.732 178.693C170.598 179 173.044 178.096 173.197 176.674C173.349 175.251 171.15 173.849 168.284 173.542Z" fill="#040002"/>
</g>
</g>
<g id="armRBear3">
<g id="_2379067044928">
<path id="Vector_20" d="M159.866 256.75C173.837 261.901 188.307 257.95 192.185 247.923C196.063 237.897 187.881 225.593 173.909 220.441C159.938 215.29 145.468 219.242 141.59 229.268C137.712 239.294 145.894 251.598 159.866 256.75Z" fill="#040002"/>
<path id="Vector_21" d="M161.199 251.548C172.293 255.134 183.833 252.244 186.975 245.091C190.116 237.939 183.67 229.233 172.576 225.646C161.482 222.06 149.942 224.95 146.8 232.103C143.659 239.255 150.105 247.961 161.199 251.548Z" fill="#5574B5"/>
<path id="Vector_22" fill-rule="evenodd" clip-rule="evenodd" d="M172.581 225.647C179.283 227.812 184.293 231.851 186.513 236.278C185.181 239.9 181.892 242.662 177.785 243.12C172.012 243.758 166.808 239.609 166.17 233.821C165.782 230.324 167.155 227.021 169.598 224.828C170.583 225.05 171.582 225.314 172.581 225.647Z" fill="#F5E800"/>
</g>
</g>
</g>
</svg>
