<svg width="309" height="394" viewBox="0 0 309 394" fill="none" xmlns="http://www.w3.org/2000/svg">
<g id="bear 6">
<rect width="309" height="394" fill="white"/>
<g id="armRBear6">
<path id="Vector" fill-rule="evenodd" clip-rule="evenodd" d="M176.765 292.543C169.264 271.88 163.604 248.903 184.282 238.598C196.97 232.271 204.663 230.519 222.659 269.654C223.255 270.934 223.711 272.266 224.184 273.563C233.349 298.292 231.842 318.797 215.229 324.967C197.758 331.451 185.281 316.028 176.765 292.543Z" fill="white" stroke="black" stroke-width="1.6933"/>
</g>
<g id="armLBear6">
<path id="Vector_2" fill-rule="evenodd" clip-rule="evenodd" d="M99.835 224.367C119.444 234.322 139.281 247.221 131.22 268.901C126.296 282.168 121.862 288.723 81.9783 272.458C80.664 271.915 79.4373 271.267 78.2107 270.653C54.6061 258.858 41.691 242.857 49.6118 226.996C57.9356 210.311 77.5798 213.045 99.835 224.367Z" fill="#949494" stroke="black" stroke-width="1.6933"/>
</g>
<g id="bodyBear6">
<g id="_1941116625264">
<path id="Vector_3" fill-rule="evenodd" clip-rule="evenodd" d="M155 220.213L188.768 220.476C205.083 220.599 205.083 220.599 204.96 228.889C204.838 237.161 204.592 253.741 204.347 265.483C204.102 277.226 203.856 284.166 203.734 290.843C203.611 297.521 203.611 303.935 203.488 308.773C203.366 313.592 203.103 316.799 202.858 320.27C202.612 323.722 202.367 327.438 202.244 330.645C202.122 333.87 202.122 336.586 202.122 338.567C202.122 340.547 202.122 341.774 202.367 343.141C202.612 344.508 203.103 345.98 203.488 347.347C203.856 348.714 204.102 349.941 204.102 351.308C204.102 352.658 203.856 354.147 203.366 355.515C202.858 356.864 202.122 358.108 201.018 359.213C199.896 360.334 198.406 361.316 196.689 362.069C194.954 362.805 192.974 363.296 190.871 363.664C188.768 364.032 186.543 364.295 184.317 364.418C182.092 364.54 179.866 364.54 177.641 364.418C175.415 364.295 173.19 364.032 171.332 363.541C169.475 363.051 168.003 362.315 166.513 361.684C165.024 361.07 163.552 360.58 162.062 359.843C160.573 359.09 159.101 358.108 157.856 356.899C156.77 355.812 155.876 354.568 155 354.2V220.213Z" fill="white"/>
<path id="Vector_4" fill-rule="evenodd" clip-rule="evenodd" d="M154.667 354.112C153.668 353.99 152.669 355.181 151.302 356.513C149.953 357.863 148.218 359.335 145.87 360.457C143.522 361.561 140.543 362.315 137.704 362.928C134.865 363.541 132.149 364.032 129.415 364.295C126.699 364.54 123.983 364.54 121.389 364.295C118.796 364.032 116.307 363.541 114.467 362.928C112.61 362.315 111.366 361.561 110.139 360.702C108.895 359.843 107.668 358.844 106.792 357.477C105.933 356.128 105.443 354.393 105.18 352.658C104.934 350.94 104.934 349.205 105.32 347.47C105.688 345.735 106.424 344 106.792 342.037C107.16 340.057 107.16 337.831 107.037 334.851C106.915 331.889 106.669 328.174 106.547 324.09C106.424 320.024 106.424 315.573 106.424 309.509C106.424 303.445 106.424 295.786 106.424 286.129C106.424 276.489 106.424 264.87 106.547 253.495C106.669 242.121 106.915 230.992 107.037 225.419C107.16 219.863 107.16 219.863 123.492 219.985L155 220.213V354.2C154.895 354.165 154.772 354.13 154.667 354.112Z" fill="#949494"/>
<path id="Vector_5" d="M154.667 318.938C154.667 320.532 154.667 322.127 154.667 323.932C154.667 325.738 154.667 327.736 154.667 329.856C154.667 331.959 154.667 334.185 154.667 336.499C154.667 338.812 154.667 341.248 154.667 343.299C154.667 345.367 154.667 347.067 154.667 348.592C154.667 350.099 154.667 351.448 154.176 352.71C153.668 353.972 152.669 355.181 151.302 356.513C149.953 357.863 148.218 359.335 145.87 360.457C143.522 361.561 140.543 362.315 137.704 362.928C134.865 363.541 132.149 364.032 129.415 364.295C126.699 364.54 123.983 364.54 121.389 364.295C118.796 364.032 116.307 363.541 114.467 362.928C112.61 362.315 111.366 361.561 110.139 360.702C108.895 359.843 107.668 358.844 106.792 357.477C105.933 356.128 105.443 354.393 105.18 352.658C104.934 350.94 104.934 349.205 105.32 347.47C105.688 345.735 106.424 344 106.792 342.037C107.16 340.056 107.16 337.831 107.037 334.851C106.915 331.889 106.669 328.174 106.547 324.09C106.424 320.024 106.424 315.573 106.424 309.509C106.424 303.445 106.424 295.786 106.424 286.129C106.424 276.489 106.424 264.87 106.547 253.495C106.669 242.121 106.915 230.992 107.037 225.419C107.16 219.863 107.16 219.863 123.492 219.985C139.807 220.108 172.454 220.353 188.768 220.476C205.083 220.599 205.083 220.599 204.96 228.889C204.838 237.161 204.592 253.741 204.347 265.483C204.102 277.226 203.856 284.166 203.734 290.843C203.611 297.521 203.611 303.935 203.488 308.772C203.366 313.592 203.103 316.799 202.858 320.27C202.612 323.722 202.367 327.438 202.244 330.645C202.122 333.87 202.122 336.586 202.122 338.567C202.122 340.547 202.122 341.774 202.367 343.141C202.612 344.508 203.103 345.98 203.488 347.347C203.856 348.714 204.102 349.941 204.102 351.308C204.102 352.658 203.856 354.147 203.366 355.514C202.858 356.864 202.122 358.108 201.018 359.212C199.896 360.334 198.406 361.316 196.689 362.069C194.954 362.805 192.974 363.296 190.871 363.664C188.768 364.032 186.543 364.295 184.317 364.418C182.092 364.54 179.866 364.54 177.641 364.418C175.415 364.295 173.19 364.032 171.332 363.541C169.475 363.051 168.003 362.315 166.513 361.684C165.024 361.07 163.552 360.579 162.062 359.843C160.573 359.09 159.101 358.108 157.856 356.899C156.63 355.672 155.648 354.235 154.667 352.798" stroke="black" stroke-width="1.6933" stroke-linecap="round"/>
</g>
</g>
<g id="headBear6">
<g id="Group">
<path id="Vector_6" fill-rule="evenodd" clip-rule="evenodd" d="M184.458 78.7429C227.549 90.5379 259.021 127.22 259.021 167.688C259.021 216.953 229.704 256.878 155 256.878V32.9473C159.083 32.9473 162.658 35.0855 164.691 38.3103C165.111 38.9938 165.479 39.7124 165.76 40.4835L184.458 78.7429Z" fill="white"/>
<path id="Vector_7" fill-rule="evenodd" clip-rule="evenodd" d="M155 256.878C96.6282 256.878 64.2617 230.326 53.6598 196.168C50.6808 186.616 50.9962 178.466 50.9962 167.688C50.9962 127.22 82.4514 90.5379 125.542 78.7429L144.24 40.4835C144.521 39.7124 144.889 38.9938 145.309 38.3103C147.342 35.0855 150.917 32.9473 155 32.9473V256.878Z" fill="#949494"/>
<path id="Vector_8" fill-rule="evenodd" clip-rule="evenodd" d="M184.458 78.7429C227.549 90.5379 259.021 127.22 259.021 167.688C259.021 216.953 229.704 256.878 155 256.878C96.6282 256.878 64.2617 230.326 53.6598 196.168C50.6808 186.616 50.9962 178.466 50.9962 167.688C50.9962 127.22 82.4514 90.5379 125.542 78.7429L144.24 40.4835C144.521 39.7124 144.889 38.9938 145.309 38.3103C147.342 35.0855 150.917 32.9473 155 32.9473C159.083 32.9473 162.658 35.0855 164.691 38.3103C165.111 38.9938 165.479 39.7124 165.76 40.4835L184.458 78.7429Z" stroke="black" stroke-width="1.6933"/>
</g>
<g id="faceBear6">
<g id="eyeRBear6">
<path id="Vector_9" fill-rule="evenodd" clip-rule="evenodd" d="M193.044 171.473C201.543 171.473 208.43 178.361 208.43 186.844C208.43 195.344 201.543 202.232 193.044 202.232C184.563 202.232 177.676 195.344 177.676 186.844C177.676 178.361 184.563 171.473 193.044 171.473ZM193.044 177.239C198.354 177.239 202.647 181.551 202.647 186.844C202.647 192.154 198.354 196.448 193.044 196.448C187.752 196.448 183.441 192.154 183.441 186.844C183.441 181.551 187.752 177.239 193.044 177.239Z" fill="black"/>
</g>
<g id="eyeLBear6">
<path id="Vector_10" fill-rule="evenodd" clip-rule="evenodd" d="M102.429 194.485L110.928 185.985L102.429 177.485C101.43 176.486 101.43 174.856 102.429 173.857C103.427 172.858 105.057 172.858 106.056 173.857L114.555 182.357L123.054 173.857C124.053 172.858 125.683 172.858 126.682 173.857C127.68 174.856 127.68 176.486 126.682 177.485L118.182 185.985L126.682 194.485C127.68 195.484 127.68 197.114 126.682 198.113C125.683 199.112 124.053 199.112 123.054 198.113L114.555 189.613L106.056 198.113C105.057 199.112 103.427 199.112 102.429 198.113C101.43 197.114 101.43 195.484 102.429 194.485Z" fill="black"/>
</g>
<g id="mouthBear6">
<path id="Vector_11" d="M180.883 216.761H128.276C126.679 216.761 125.385 218.055 125.385 219.652C125.385 221.25 126.679 222.544 128.276 222.544H180.883C182.48 222.544 183.774 221.25 183.774 219.652C183.774 218.055 182.48 216.761 180.883 216.761Z" fill="black"/>
</g>
</g>
</g>
</g>
</svg>
