<svg width="336" height="394" viewBox="0 0 336 394" fill="none" xmlns="http://www.w3.org/2000/svg">
<g id="bear 2">
<rect width="336" height="394" fill="white"/>
<g id="body">
<path id="Vector" fill-rule="evenodd" clip-rule="evenodd" d="M169.273 369.06C167.102 369.109 165.056 369.109 162.81 368.798C160.577 368.487 158.156 367.864 156.21 367.192C154.264 366.507 152.804 365.772 151.669 364.316C150.533 362.846 149.722 360.655 149.423 358.488C149.136 356.334 149.348 354.218 149.872 352.275C150.384 350.333 151.182 348.577 152.105 347.419C153.016 346.274 154.052 345.713 154.601 345.427C155.15 345.128 155.224 345.091 155.237 344.219C155.262 343.335 155.224 341.617 155.15 339.923C155.075 338.217 154.962 336.537 154.962 334.719C154.962 332.913 155.075 330.971 155.224 329.315C155.374 327.671 155.549 326.314 155.649 325.642C155.736 324.969 155.736 324.969 155.349 324.396C154.962 323.824 154.189 322.691 153.004 320.661C151.806 318.631 150.196 315.705 148.824 313.19C147.452 310.687 146.304 308.596 145.318 306.529C144.333 304.462 143.484 302.42 142.673 300.44C141.875 298.46 141.101 296.555 140.465 294.015C139.816 291.475 139.305 288.287 138.806 284.041C138.319 279.796 137.833 274.491 137.745 269.56C137.658 264.642 137.945 260.097 138.868 255.304C139.779 250.51 141.326 245.455 143.784 241.171C146.242 236.888 149.61 233.377 155.474 230.886C161.35 228.396 169.709 226.939 180.638 226.528C191.568 226.13 205.067 226.79 214.124 231.733C223.182 236.676 227.811 245.903 231.067 253C234.336 260.097 236.245 265.078 237.567 268.589C238.89 272.101 239.613 274.155 240.387 276.869C241.16 279.571 241.959 282.946 242.583 285.884C243.206 288.835 243.656 291.363 243.943 293.48C244.242 295.609 244.392 297.327 244.442 298.186C244.492 299.045 244.454 299.045 244.729 299.008C245.003 298.971 245.602 298.896 246.438 299.12C247.286 299.344 248.384 299.855 249.432 300.589C250.48 301.312 251.466 302.27 252.364 303.291C253.262 304.312 254.073 305.421 254.697 306.753C255.321 308.085 255.758 309.666 256.157 311.049C256.568 312.443 256.93 313.651 257.155 315.369C257.367 317.087 257.442 319.329 257.317 321.333C257.18 323.351 256.855 325.144 256.344 327.086C255.832 329.028 255.134 331.108 254.31 332.963C253.487 334.806 252.526 336.424 251.503 337.719C250.48 339.014 249.37 340.01 248.197 340.994C247.024 341.99 245.777 342.974 244.492 343.709C243.206 344.443 241.896 344.916 240.649 345.19C239.401 345.464 238.228 345.539 236.981 345.439C235.733 345.352 234.411 345.091 233.25 344.543C232.103 343.995 231.105 343.161 230.468 342.513C229.82 341.878 229.533 341.43 228.959 341.417C228.397 341.405 227.549 341.803 226.376 342.165C225.203 342.538 223.694 342.862 221.897 342.937C220.101 343.011 218.017 342.824 215.884 342.588C213.763 342.351 211.592 342.053 209.87 341.704C208.148 341.368 206.863 340.957 205.778 340.484C204.705 340.01 203.819 339.463 202.971 338.952C202.135 338.429 201.324 337.956 200.9 338.255C200.488 338.541 200.451 339.6 200.388 340.807C200.338 342.015 200.263 343.372 200.064 344.954C199.864 346.523 199.527 348.316 199.253 350.071C198.978 351.827 198.754 353.558 198.467 355.164C198.167 356.77 197.806 358.277 197.369 359.609C196.92 360.941 196.408 362.112 195.71 363.07C195.023 364.017 194.138 364.751 192.728 365.461C191.318 366.183 189.372 366.881 187.687 367.316C185.991 367.752 184.568 367.939 182.66 368.138C180.751 368.337 178.368 368.562 176.035 368.723C173.702 368.885 171.431 368.997 169.273 369.06Z" fill="#040002"/>
<path id="Vector_2" fill-rule="evenodd" clip-rule="evenodd" d="M181.624 364.702C179.865 364.751 176.821 364.901 173.677 365.013C170.52 365.125 167.251 365.187 164.407 364.913C161.562 364.639 159.142 364.017 157.37 363.357C155.586 362.697 154.451 362.012 153.74 360.842C153.016 359.659 152.729 358.015 152.704 356.596C152.692 355.164 152.954 353.956 153.241 352.873C153.54 351.79 153.864 350.843 154.401 350.109C154.925 349.374 155.661 348.863 156.435 348.477C157.208 348.091 158.007 347.842 158.468 347.506C158.93 347.182 159.042 346.784 158.967 346.249C158.892 345.713 158.63 345.053 158.468 343.92C158.306 342.787 158.231 341.181 158.194 339.4C158.156 337.632 158.156 335.69 158.244 333.772C158.343 331.842 158.518 329.937 158.693 328.331C158.855 326.725 159.005 325.405 159.129 324.409C159.254 323.425 159.366 322.765 158.892 321.944C158.418 321.122 157.345 320.126 156.21 318.607C155.075 317.087 153.864 315.045 152.854 313.34C151.843 311.634 151.045 310.289 150.234 308.845C149.423 307.388 148.624 305.856 147.863 304.038C147.115 302.233 146.416 300.141 145.755 297.962C145.094 295.783 144.47 293.517 143.921 290.404C143.372 287.291 142.898 283.344 142.461 279.683C142.012 276.023 141.613 272.661 141.563 269.137C141.501 265.626 141.8 261.965 142.399 258.529C143.01 255.08 143.921 251.867 144.932 248.941C145.942 246.002 147.04 243.375 148.899 240.972C150.745 238.581 153.353 236.415 155.998 234.946C158.63 233.489 161.313 232.717 164.644 232.007C167.988 231.297 171.98 230.637 176.022 230.326C180.052 230.015 184.119 230.052 187.999 230.052C191.867 230.052 195.535 230.015 198.991 230.525C202.459 231.036 205.728 232.094 208.735 233.414C211.742 234.734 214.499 236.303 216.695 238.208C218.89 240.113 220.55 242.342 222.122 244.521C223.694 246.7 225.203 248.829 226.426 250.983C227.661 253.15 228.609 255.341 229.545 257.844C230.481 260.359 231.404 263.173 232.34 265.551C233.275 267.929 234.224 269.872 235.01 272.001C235.808 274.118 236.432 276.421 237.056 278.712C237.667 281.003 238.291 283.269 238.852 285.436C239.401 287.59 239.875 289.645 240.275 291.873C240.686 294.102 241.011 296.518 241.198 298.722C241.372 300.913 241.41 302.893 241.472 304.81C241.522 306.728 241.597 308.596 241.622 310.214C241.634 311.821 241.597 313.178 241.597 314.236C241.61 315.294 241.647 316.066 241.822 316.677C241.996 317.274 242.283 317.71 242.57 317.835C242.857 317.959 243.132 317.747 243.406 317.299C243.681 316.838 243.955 316.129 244.18 315.27C244.417 314.423 244.591 313.427 244.704 312.418C244.816 311.397 244.853 310.364 244.853 309.368C244.853 308.384 244.816 307.45 244.803 306.504C244.778 305.557 244.778 304.611 244.766 303.926C244.741 303.242 244.704 302.818 244.941 302.719C245.165 302.619 245.664 302.831 246.35 303.229C247.037 303.628 247.91 304.188 248.609 304.711C249.307 305.234 249.819 305.707 250.418 306.504C251.017 307.301 251.69 308.421 252.239 309.567C252.776 310.725 253.175 311.908 253.499 312.979C253.824 314.049 254.061 315.008 254.235 316.166C254.41 317.336 254.522 318.706 254.522 319.939C254.535 321.172 254.448 322.267 254.298 323.413C254.148 324.558 253.948 325.754 253.624 326.924C253.312 328.095 252.863 329.24 252.264 330.423C251.653 331.606 250.892 332.814 250.018 333.984C249.158 335.154 248.209 336.288 247.299 337.271C246.388 338.255 245.527 339.077 244.766 339.699C244.005 340.322 243.344 340.745 242.558 341.119C241.772 341.505 240.861 341.853 240.038 342.053C239.227 342.239 238.503 342.277 237.817 342.189C237.131 342.09 236.469 341.878 235.771 341.579C235.084 341.293 234.348 340.919 233.974 340.745C233.612 340.558 233.612 340.558 234.036 340.334C234.461 340.123 235.297 339.674 236.182 339.126C237.081 338.579 238.016 337.919 238.952 337.084C239.9 336.238 240.861 335.217 241.572 334.382C242.283 333.548 242.757 332.901 243.144 332.303C243.531 331.693 243.83 331.133 244.03 330.659C244.23 330.199 244.342 329.838 244.329 329.551C244.317 329.265 244.192 329.066 243.968 328.966C243.73 328.879 243.406 328.904 243.082 329.153C242.757 329.414 242.445 329.9 241.896 330.535C241.335 331.17 240.524 331.942 239.651 332.602C238.777 333.274 237.842 333.835 236.881 334.37C235.92 334.905 234.935 335.391 233.837 335.902C232.726 336.4 231.516 336.91 230.356 337.383C229.196 337.844 228.073 338.267 226.775 338.554C225.465 338.84 223.981 338.977 222.596 339.077C221.198 339.164 219.888 339.201 218.391 339.114C216.882 339.039 215.185 338.84 213.526 338.516C211.866 338.193 210.244 337.757 208.647 337.134C207.038 336.512 205.441 335.702 203.931 334.806C202.422 333.909 200.987 332.926 199.727 331.743C198.454 330.56 197.356 329.19 196.483 328.02C195.61 326.849 194.974 325.878 194.499 325.119C194.038 324.359 193.738 323.811 193.389 323.624C193.027 323.45 192.603 323.624 192.354 323.923C192.092 324.235 192.004 324.658 192.216 325.305C192.428 325.965 192.94 326.862 193.514 327.858C194.088 328.866 194.736 329.962 195.335 330.909C195.947 331.867 196.508 332.664 196.882 333.187C197.269 333.698 197.444 333.909 197.544 334.021C197.631 334.133 197.631 334.133 197.494 334.806C197.356 335.491 197.082 336.835 196.92 338.143C196.745 339.438 196.695 340.683 196.595 341.878C196.496 343.086 196.346 344.232 196.234 345.439C196.121 346.647 196.059 347.917 195.922 349.025C195.797 350.133 195.61 351.08 195.26 352.238C194.911 353.408 194.4 354.778 193.901 356.048C193.389 357.318 192.902 358.488 192.279 359.522C191.667 360.555 190.931 361.464 190.07 362.199C189.197 362.946 188.186 363.531 187.201 363.917C186.228 364.316 185.267 364.515 184.556 364.602C183.845 364.677 183.383 364.639 181.624 364.702Z" fill="#FEDC00"/>
</g>
<g id="ribbonl">
<path id="Vector_3" fill-rule="evenodd" clip-rule="evenodd" d="M165.417 280.854C165.455 279.796 165.392 278.164 165.455 276.633C165.517 275.089 165.717 273.645 166.004 272.013C166.291 270.382 166.653 268.577 167.426 267.257C168.187 265.937 169.372 265.115 170.595 265.103C171.818 265.103 173.103 265.9 173.552 266.958C173.989 268.004 173.589 269.311 173.203 270.681C172.816 272.051 172.442 273.495 172.167 274.827C171.893 276.147 171.718 277.355 171.618 278.563C171.556 279.434 171.543 280.294 171.493 281.103C174.251 282.273 176.184 284.988 176.184 288.175C176.184 292.409 172.741 295.845 168.487 295.845C164.245 295.845 160.801 292.409 160.801 288.175C160.801 285.025 162.698 282.323 165.405 281.14C165.417 281.041 165.417 280.954 165.417 280.854Z" fill="#040002" stroke="black" stroke-width="0.2"/>
<path id="Vector_4" fill-rule="evenodd" clip-rule="evenodd" d="M166.952 283.369C167.114 282.024 167.152 280.381 167.226 278.775C167.289 277.156 167.401 275.587 167.551 273.607C167.701 271.627 167.875 269.249 168.674 268.191C169.46 267.133 170.857 267.382 171.219 268.166C171.581 268.963 170.919 270.283 170.408 271.926C169.896 273.57 169.535 275.55 169.372 277.355C169.198 279.173 169.235 280.817 169.31 282.361C169.335 282.722 169.347 283.07 169.36 283.419C171.618 283.83 173.327 285.797 173.327 288.175C173.327 290.84 171.156 293.007 168.487 293.007C165.817 293.007 163.646 290.84 163.646 288.175C163.646 286.046 165.018 284.253 166.915 283.593C166.927 283.519 166.94 283.444 166.952 283.369Z" fill="#F48574"/>
</g>
<g id="ribbonr">
<path id="Vector_5" fill-rule="evenodd" clip-rule="evenodd" d="M181.699 284.888C181.749 283.743 181.661 281.987 181.736 280.331C181.799 278.675 182.023 277.119 182.323 275.363C182.635 273.607 183.034 271.652 183.857 270.233C184.693 268.813 185.953 267.929 187.276 267.917C188.598 267.904 189.983 268.776 190.457 269.909C190.931 271.042 190.495 272.437 190.083 273.919C189.671 275.4 189.272 276.957 188.972 278.389C188.686 279.82 188.486 281.115 188.386 282.423C188.311 283.357 188.286 284.291 188.236 285.15C191.206 286.407 193.289 289.346 193.289 292.77C193.289 297.34 189.584 301.038 185.005 301.038C180.426 301.038 176.721 297.34 176.721 292.77C176.721 289.383 178.767 286.469 181.686 285.187C181.699 285.087 181.699 284.988 181.699 284.888Z" fill="#040002" stroke="black" stroke-width="0.2"/>
<path id="Vector_6" fill-rule="evenodd" clip-rule="evenodd" d="M183.346 287.59C183.52 286.146 183.558 284.378 183.645 282.634C183.72 280.904 183.832 279.21 183.994 277.081C184.157 274.952 184.356 272.387 185.205 271.241C186.053 270.096 187.55 270.37 187.949 271.217C188.349 272.063 187.638 273.483 187.076 275.263C186.527 277.044 186.128 279.173 185.953 281.115C185.779 283.07 185.816 284.851 185.891 286.507C185.916 286.893 185.928 287.279 185.953 287.652C188.386 288.088 190.22 290.217 190.22 292.77C190.22 295.646 187.887 297.975 185.005 297.975C182.123 297.975 179.79 295.646 179.79 292.77C179.79 290.491 181.262 288.549 183.308 287.839C183.321 287.764 183.333 287.677 183.346 287.59Z" fill="#F38574"/>
</g>
<g id="headpet">
<g id="earr">
<path id="Vector_7" fill-rule="evenodd" clip-rule="evenodd" d="M253.25 240.536C254.46 243.973 255.708 248.144 257.28 251.369C258.864 254.594 260.773 256.86 263.742 258.255C266.712 259.637 270.741 260.16 274.859 259.35C278.963 258.541 283.143 256.424 286 253.859C288.869 251.294 290.404 248.294 291.652 244.409C292.899 240.536 293.847 235.78 294.259 231.422C294.658 227.064 294.509 223.104 293.922 219.12C293.336 215.135 292.313 211.101 291.065 206.781C289.818 202.46 288.345 197.853 286.698 194.005C285.052 190.17 283.218 187.095 281.196 183.87C279.175 180.645 276.98 177.283 274.559 173.361C272.139 169.451 269.494 164.981 266.861 161.283C264.216 157.585 261.571 154.659 258.39 152.169C255.196 149.678 251.453 147.636 248.808 146.416C246.176 145.208 244.629 144.847 243.456 145.246C242.283 145.657 241.472 146.827 241.772 150.077C242.059 153.339 243.456 158.681 245.365 164.508C247.274 170.323 249.694 176.623 251.129 182.55C252.551 188.477 252.988 194.043 252.514 199.646C252.04 205.249 250.642 210.89 250.018 216.231C249.395 221.573 249.544 226.628 250.206 230.5C250.867 234.385 252.04 237.087 253.25 240.536Z" fill="#040002"/>
</g>
<g id="earl">
<path id="Vector_8" fill-rule="evenodd" clip-rule="evenodd" d="M116.785 164.919C114.677 165.915 112.768 166.787 110.809 167.808C108.838 168.841 106.829 170.012 104.571 171.145C102.313 172.278 99.8176 173.373 97.6717 174.108C95.5258 174.843 93.7292 175.204 90.8847 175.615C88.0401 176.013 84.16 176.449 79.8807 176.412C75.6138 176.374 70.9602 175.864 66.1693 174.407C61.3785 172.938 56.4629 170.522 52.8198 168.019C49.1643 165.504 46.7813 162.914 45.0097 159.814C43.2256 156.726 42.0529 153.14 41.6661 149.641C41.2793 146.142 41.6911 142.743 42.3273 139.954C42.9636 137.177 43.8494 135.011 45.5212 132.745C47.1806 130.478 49.6384 128.1 52.3083 126.282C54.9657 124.477 57.8228 123.232 60.1683 122.572C62.5138 121.912 64.3478 121.837 66.4064 122.236C68.465 122.647 70.7356 123.518 72.8566 124.801C74.99 126.083 76.9737 127.764 79.2818 129.47C81.5899 131.176 84.2349 132.894 86.7426 134.114C89.2503 135.347 91.6457 136.082 94.1285 136.804C96.6237 137.538 99.2312 138.273 102.038 138.734C104.846 139.194 107.852 139.369 110.547 139.282C113.242 139.194 115.625 138.821 117.646 138.323C119.667 137.837 121.314 137.215 123.111 136.331C124.907 135.459 126.854 134.326 128.937 133.243C131.033 132.159 133.266 131.138 135.45 130.043C137.633 128.934 139.766 127.764 142.187 127.166C144.607 126.556 147.314 126.519 148.999 129.196C150.696 131.873 151.357 137.252 148.649 142.195C145.955 147.126 139.904 151.633 135.163 154.821C130.409 158.008 126.966 159.876 124.084 161.358C121.202 162.84 118.894 163.935 116.785 164.919Z" fill="black" stroke="black" stroke-width="0.2"/>
</g>
<g id="headmain">
<path id="Vector_9" fill-rule="evenodd" clip-rule="evenodd" d="M115.138 176.486C115.588 175.577 115.775 173.784 116.161 171.17C116.548 168.555 117.122 165.118 118.395 160.773C119.667 156.427 121.638 151.173 124.021 146.342C126.417 141.51 129.212 137.103 131.969 133.666C134.714 130.217 137.408 127.752 140.49 125.485C143.584 123.219 147.065 121.165 150.309 119.509C153.553 117.853 156.547 116.595 160.065 115.425C163.596 114.242 167.651 113.134 171.73 112.499C175.798 111.851 179.89 111.652 183.52 111.677C187.138 111.689 190.282 111.926 194.013 112.511C197.743 113.096 202.072 114.055 206.751 115.275C211.43 116.483 216.47 117.965 220.849 119.471C225.228 120.978 228.946 122.497 232.464 124.19C235.995 125.884 239.326 127.752 242.134 130.068C244.941 132.383 247.211 135.16 249.582 138.547C251.952 141.934 254.41 145.931 256.419 150.189C258.427 154.447 259.987 158.98 261.272 163.051C262.557 167.11 263.58 170.734 264.216 173.672C264.84 176.623 265.065 178.914 265.427 182.164C265.788 185.414 266.275 189.635 266.312 193.395C266.35 197.168 265.938 200.48 265.252 203.742C264.566 207.017 263.63 210.255 262.832 212.932C262.033 215.621 261.384 217.75 260.798 219.157C260.212 220.564 259.688 221.249 259.625 222.594C259.563 223.951 259.987 225.968 260.386 228.135C260.785 230.301 261.16 232.617 261.347 234.709C261.534 236.801 261.534 238.669 261.26 240.935C260.973 243.188 260.399 245.853 259.513 248.256C258.627 250.647 257.404 252.776 256.007 254.831C254.597 256.885 253.013 258.865 251.179 260.62C249.332 262.364 247.249 263.883 244.941 265.215C242.62 266.547 240.087 267.693 237.542 268.789C235.01 269.897 232.464 270.968 229.869 271.876C227.274 272.785 224.617 273.545 221.61 274.155C218.591 274.765 215.222 275.226 211.579 275.599C207.949 275.985 204.044 276.284 200.263 276.284C196.496 276.284 192.853 275.985 189.422 275.599C186.003 275.226 182.772 274.765 179.066 274.217C175.348 273.669 171.144 273.022 166.178 271.777C161.213 270.544 155.486 268.714 150.77 266.946C146.042 265.178 142.336 263.472 139.168 261.666C135.999 259.861 133.391 257.956 130.846 255.914C128.313 253.884 125.843 251.718 122.961 249.165C120.079 246.613 116.785 243.687 114.153 241.271C111.52 238.855 109.549 236.95 107.703 234.946C105.869 232.929 104.159 230.799 102.837 228.396C101.514 226.006 100.566 223.341 99.7053 220.938C98.8569 218.547 98.0959 216.418 97.5345 214.339C96.9606 212.272 96.5863 210.255 96.2993 207.739C96.0124 205.237 95.8252 202.223 96.1122 199.397C96.3867 196.558 97.1477 193.893 98.3953 191.142C99.6429 188.402 101.377 185.563 103.161 183.534C104.945 181.504 106.754 180.284 108.451 179.412C110.135 178.541 111.682 178.005 112.818 177.719C113.966 177.433 114.677 177.395 115.138 176.486Z" fill="#040002"/>
<path id="Vector_10" fill-rule="evenodd" clip-rule="evenodd" d="M117.459 179.823C117.908 178.952 118.083 177.221 118.432 174.22C118.781 171.219 119.293 166.936 120.503 162.267C121.713 157.61 123.622 152.555 125.93 147.91C128.251 143.254 130.958 139.008 133.616 135.696C136.273 132.383 138.881 130.005 141.875 127.826C144.857 125.647 148.238 123.668 151.369 122.086C154.513 120.492 157.408 119.285 160.814 118.152C164.232 117.006 168.15 115.948 172.092 115.325C176.035 114.703 180.002 114.516 183.495 114.541C187.001 114.553 190.045 114.777 193.663 115.35C197.269 115.91 201.461 116.832 205.99 118.002C210.519 119.173 215.397 120.592 219.626 122.049C223.868 123.493 227.461 124.95 230.867 126.581C234.286 128.212 237.505 130.005 240.225 132.234C242.932 134.475 245.14 137.14 247.436 140.402C249.719 143.664 252.102 147.499 254.048 151.608C255.995 155.705 257.504 160.063 258.752 163.973C259.987 167.895 260.985 171.369 261.584 174.208C262.195 177.047 262.407 179.238 262.757 182.363C263.106 185.501 263.593 189.56 263.63 193.184C263.655 196.807 263.256 199.995 262.594 203.145C261.933 206.295 261.022 209.408 260.249 211.985C259.475 214.563 258.852 216.617 258.29 217.962C257.716 219.319 257.205 219.979 257.155 221.274C257.092 222.581 257.504 224.524 257.878 226.603C258.265 228.695 258.639 230.924 258.814 232.941C259.001 234.946 259.001 236.751 258.727 238.918C258.452 241.097 257.903 243.662 257.043 245.965C256.182 248.281 255.009 250.323 253.649 252.303C252.289 254.283 250.755 256.188 248.97 257.869C247.186 259.55 245.178 261.019 242.932 262.301C240.699 263.571 238.241 264.68 235.783 265.738C233.325 266.796 230.867 267.817 228.36 268.701C225.84 269.585 223.282 270.308 220.363 270.893C217.443 271.478 214.187 271.926 210.656 272.287C207.138 272.661 203.357 272.947 199.714 272.947C196.059 272.947 192.541 272.661 189.222 272.287C185.903 271.926 182.784 271.478 179.191 270.955C175.598 270.42 171.531 269.797 166.727 268.614C161.912 267.419 156.372 265.663 151.806 263.957C147.24 262.264 143.646 260.608 140.59 258.877C137.521 257.134 135 255.304 132.543 253.349C130.085 251.381 127.702 249.302 124.907 246.849C122.125 244.396 118.931 241.582 116.386 239.254C113.828 236.925 111.92 235.095 110.148 233.153C108.364 231.223 106.717 229.168 105.432 226.865C104.147 224.561 103.236 221.996 102.413 219.693C101.577 217.377 100.853 215.335 100.292 213.342C99.7427 211.338 99.3809 209.408 99.1065 206.98C98.832 204.564 98.6448 201.676 98.9193 198.949C99.1938 196.222 99.9299 193.657 101.165 191.503C102.388 189.336 104.109 187.581 105.856 186.124C107.603 184.654 109.362 183.484 110.984 182.637C112.618 181.803 114.128 181.293 115.226 181.019C116.324 180.745 117.022 180.707 117.459 179.823Z" fill="#FEDC00"/>
</g>
<g id="face">
<g id="_2316358888720">
<path id="Vector_11" fill-rule="evenodd" clip-rule="evenodd" d="M168.137 249.165C165.155 248.281 161.65 246.949 158.443 245.168C155.237 243.375 152.33 241.122 149.311 238.793C146.291 236.477 143.16 234.086 140.515 231.073C137.87 228.072 135.737 224.449 134.09 220.602C132.443 216.742 131.295 212.658 130.609 208.96C129.923 205.262 129.686 201.949 129.81 197.816C129.923 193.694 130.384 188.763 131.445 184.53C132.518 180.284 134.202 176.748 136.685 173.087C139.18 169.426 142.461 165.641 145.68 162.827C148.899 160.013 152.03 158.17 155.436 156.552C158.842 154.933 162.51 153.538 166.104 152.542C169.697 151.546 173.228 150.924 177.008 150.687C180.801 150.463 184.855 150.612 189.135 151.036C193.414 151.459 197.93 152.156 202.796 153.663C207.649 155.157 212.852 157.473 217.443 160.287C222.034 163.101 226.014 166.413 229.383 169.763C232.739 173.124 235.496 176.511 237.754 180.284C240.013 184.069 241.772 188.228 242.994 192.461C244.217 196.707 244.903 201.016 244.978 205.262C245.065 209.495 244.529 213.654 243.681 217.277C242.845 220.9 241.697 223.988 239.975 227.338C238.253 230.687 235.958 234.311 233.587 237.324C231.217 240.325 228.759 242.715 226.089 244.907C223.407 247.111 220.5 249.115 217.406 250.311C214.312 251.506 211.018 251.892 207.3 252.079C203.595 252.278 199.465 252.278 195.71 252.191C191.967 252.116 188.598 251.967 185.392 251.73C182.173 251.506 179.116 251.195 176.347 250.821C173.589 250.46 171.119 250.037 168.137 249.165Z" fill="#040002"/>
<path id="Vector_12" fill-rule="evenodd" clip-rule="evenodd" d="M169.185 246.127C166.366 245.305 163.059 244.06 160.028 242.379C157.008 240.698 154.251 238.594 151.394 236.415C148.537 234.248 145.58 232.007 143.085 229.193C140.59 226.379 138.569 222.98 137.009 219.381C135.45 215.77 134.364 211.948 133.715 208.474C133.067 205.012 132.855 201.912 132.954 198.052C133.067 194.192 133.503 189.573 134.514 185.601C135.524 181.629 137.121 178.317 139.467 174.88C141.812 171.456 144.932 167.92 147.963 165.28C151.007 162.653 153.964 160.922 157.183 159.403C160.402 157.884 163.87 156.589 167.276 155.655C170.67 154.709 174.001 154.136 177.582 153.912C181.162 153.7 184.993 153.85 189.035 154.236C193.09 154.634 197.356 155.294 201.948 156.701C206.539 158.108 211.455 160.262 215.796 162.902C220.138 165.542 223.893 168.642 227.075 171.78C230.256 174.917 232.864 178.093 234.997 181.629C237.131 185.165 238.79 189.062 239.95 193.034C241.11 197.006 241.759 201.04 241.834 205.012C241.896 208.984 241.397 212.882 240.599 216.269C239.8 219.668 238.715 222.556 237.093 225.694C235.471 228.832 233.3 232.219 231.055 235.033C228.809 237.847 226.501 240.088 223.968 242.143C221.436 244.197 218.691 246.077 215.759 247.198C212.827 248.318 209.72 248.68 206.215 248.854C202.709 249.041 198.804 249.041 195.26 248.966C191.717 248.891 188.536 248.754 185.492 248.53C182.46 248.318 179.565 248.032 176.958 247.683C174.338 247.347 172.005 246.949 169.185 246.127Z" fill="white"/>
</g>
<g id="slapr">
<path id="Vector_13" fill-rule="evenodd" clip-rule="evenodd" d="M215.16 204.353C210.694 205.187 209.371 208.075 213.226 210.566C216.358 212.595 225.415 214.65 227.15 210.441C228.921 206.17 221.099 203.257 215.16 204.353Z" fill="#FCD5DC" stroke="#FED5DB" stroke-width="0.0762"/>
</g>
<g id="slapl">
<path id="Vector_14" fill-rule="evenodd" clip-rule="evenodd" d="M151.095 193.881C149.46 194.354 148.338 195.3 148.487 197.255C148.824 201.763 158.368 202.97 162.024 202.074C163.496 201.713 164.594 200.468 164.482 198.55C164.382 196.882 162.772 195.923 161.512 195.3C159.042 194.093 154.214 192.972 151.095 193.881Z" fill="#FCD5DC" stroke="#FED5DB" stroke-width="0.0762"/>
</g>
<g id="nose">
<path id="Vector_15" fill-rule="evenodd" clip-rule="evenodd" d="M183.708 200.48C172.716 203.082 177.457 212.994 188.461 210.939C197.955 209.159 195.061 202.248 189.971 200.841C188.411 200.405 185.28 200.107 183.708 200.48Z" fill="#020201"/>
</g>
<g id="eyeL">
<path id="Vector_16" fill-rule="evenodd" clip-rule="evenodd" d="M173.265 185.128C165.879 187.145 167.75 198.812 176.708 196.894C183.907 195.35 181.549 182.861 173.265 185.128Z" fill="#020201"/>
</g>
<g id="eyeR">
<path id="Vector_17" fill-rule="evenodd" clip-rule="evenodd" d="M200.301 196.458C200.613 198.339 204.855 203.73 205.99 204.664C206.764 205.311 208.435 207.03 209.371 205.585C209.471 205.436 209.571 205.274 209.646 205.05C210.082 203.755 209.296 202.759 208.51 201.651C207.375 200.057 206.639 199.459 205.541 198.114C207.649 197.38 211.904 196.521 213.064 195.363C214.124 194.304 213.588 193.844 213.101 192.947C210.556 192.561 201.748 195.251 200.301 196.458Z" fill="#020201"/>
</g>
<g id="mouthmain">
<path id="Vector_18" fill-rule="evenodd" clip-rule="evenodd" d="M199.066 218.286C198.317 223.005 197.481 226.914 192.503 227.637C186.876 228.446 185.928 220.925 185.342 219.444C185.379 219.394 185.442 219.332 185.479 219.294C185.504 219.269 185.566 219.182 185.604 219.157L191.867 218.846C191.592 220.689 190.282 223.652 191.505 225.346C193.838 225.221 194.3 221.174 194.387 218.871L199.066 218.286ZM182.709 218.198C182.61 220.079 181.961 220.975 182.485 223.49C184.818 234.634 199.078 236.079 202.347 222.233C204.318 213.865 201.761 218.796 205.89 214.961C206.452 214.438 207.649 213.056 206.477 212.135C205.104 211.051 201.611 213.778 200.164 214.388C195.485 216.356 189.197 216.019 184.057 215.422C181.612 215.123 179.004 214.7 176.609 214.214C175.211 213.928 170.171 211.973 169.497 213.641C168.162 216.966 180.164 217.638 182.709 218.198Z" fill="#020201"/>
<path id="Vector_19" fill-rule="evenodd" clip-rule="evenodd" d="M194.387 218.871C194.3 221.174 193.838 225.221 191.505 225.346C190.282 223.652 191.592 220.689 191.867 218.846L185.604 219.157C185.566 219.182 185.504 219.269 185.479 219.294C185.442 219.332 185.379 219.394 185.342 219.444C185.928 220.925 186.876 228.446 192.503 227.637C197.481 226.914 198.317 223.005 199.066 218.286L194.387 218.871Z" fill="#F58574"/>
</g>
</g>
</g>
<g id="arml">
<path id="Vector_20" fill-rule="evenodd" clip-rule="evenodd" d="M143.958 229.928C146.953 229.318 146.716 229.28 149.885 229.567C170.87 231.484 168.724 269.486 158.605 281.489C157.695 282.56 157.133 283.444 156.41 284.44C154.813 286.631 149.897 290.217 147.327 291.301C140.502 294.177 133.092 293.579 128.301 287.366C122.574 279.957 121.963 271.042 122.15 261.89C122.175 260.147 122.699 256.823 123.061 255.017C125.431 243.263 130.222 239.441 139.043 231.87L143.958 229.928ZM130.808 246.513C133.84 248.144 132.318 249.974 143.759 255.989C149.086 258.778 155.212 260.234 162.049 260.483C162.099 262.625 160.277 269.511 159.292 271.615C157.57 275.313 157.707 275.189 155.698 278.575L150.92 284.34C146.167 289.358 135.886 290.529 131.233 284.701C126.255 278.488 126.404 278.177 125.481 269.312C124.745 262.351 126.305 257.632 128.588 251.531C129.274 249.713 130.172 248.132 130.808 246.513ZM133.154 242.927C133.94 240.424 138.706 236.602 140.989 235.593C144.694 233.937 149.46 233.389 153.602 234.846C157.595 236.265 159.454 238.88 160.614 243.052C161.388 245.866 162.947 253.473 162.336 256.387C161.974 256.424 158.63 256.175 157.869 256.125C156.098 256.001 154.713 255.764 153.153 255.366C146.429 253.648 140.141 251.07 135.549 245.915C134.526 244.77 133.94 244.309 133.154 242.927Z" fill="#020201"/>
<path id="Vector_21" fill-rule="evenodd" clip-rule="evenodd" d="M130.808 246.513C130.172 248.132 129.274 249.713 128.588 251.531C126.305 257.632 124.745 262.351 125.481 269.311C126.404 278.177 126.255 278.488 131.233 284.701C135.886 290.529 146.167 289.358 150.92 284.34L155.698 278.575C157.707 275.189 157.57 275.313 159.292 271.615C160.277 269.511 162.099 262.625 162.049 260.483C155.212 260.234 149.086 258.778 143.759 255.989C132.318 249.974 133.84 248.144 130.808 246.513Z" fill="#FEDA01"/>
<path id="Vector_22" fill-rule="evenodd" clip-rule="evenodd" d="M133.154 242.927C133.94 244.309 134.526 244.77 135.549 245.915C140.141 251.07 146.429 253.648 153.153 255.366C154.713 255.764 156.098 256.001 157.869 256.125C158.63 256.175 161.974 256.424 162.336 256.387C162.947 253.473 161.388 245.866 160.614 243.051C159.454 238.88 157.595 236.265 153.602 234.846C149.46 233.389 144.694 233.937 140.989 235.593C138.706 236.602 133.94 240.424 133.154 242.927Z" fill="#FEFEFE"/>
</g>
<g id="armr">
<path id="Vector_23" fill-rule="evenodd" clip-rule="evenodd" d="M212.253 250.697C213.326 252.066 214.624 253.336 215.784 254.905C219.689 260.122 223.319 261.803 224.555 268.689C224.342 272.312 230.057 284.751 226.688 288.325C223.831 295.198 209.446 296.119 203.482 292.621L197.294 288.399C194.412 285.71 194.587 285.785 191.892 282.722C190.37 280.966 186.689 274.852 186.14 272.798C192.64 270.656 198.118 267.556 202.459 263.385C211.779 254.432 209.795 253.112 212.253 250.697Z" fill="#FEDA01"/>
<path id="Vector_24" fill-rule="evenodd" clip-rule="evenodd" d="M208.997 247.908C208.622 249.452 208.198 250.062 207.537 251.431C204.555 257.669 199.24 261.89 193.264 265.414C191.879 266.224 190.607 266.821 188.935 267.444C188.224 267.705 185.08 268.876 184.731 268.938C183.321 266.298 182.709 258.566 182.672 255.652C182.61 251.319 183.67 248.294 187.114 245.828C190.682 243.263 195.41 242.466 199.428 243.027C201.91 243.375 207.55 245.716 208.997 247.908Z" fill="#FEFEFE"/>
<path id="Vector_25" fill-rule="evenodd" clip-rule="evenodd" d="M194.998 238.407C191.954 238.669 192.166 238.557 189.21 239.715C169.584 247.397 182.235 283.282 195.298 292.01C196.483 292.795 197.269 293.48 198.23 294.227C200.376 295.895 206.102 297.975 208.884 298.298C212.977 298.784 216.22 298.236 218.741 297.103C227.611 293.094 229.47 284.315 227.624 284.726C226.501 284.963 224.342 288.238 218.716 292.01C214.349 294.936 207.812 295.148 203.482 292.621L197.294 288.399C194.412 285.71 194.587 285.785 191.892 282.722C190.37 280.966 186.689 274.852 186.14 272.798C192.64 270.656 198.118 267.556 202.459 263.385C211.779 254.432 209.795 253.112 212.253 250.697C213.326 252.066 214.624 253.336 215.784 254.905C217.006 257.333 222.184 263.708 223.931 269.062C224.417 270.544 224.492 271.74 224.53 273.296C224.53 273.557 224.692 274.367 224.891 274.666C225.503 275.599 226.077 273.084 225.74 269.561C225.39 265.975 223.457 259.375 222.072 256.711C216.507 246.077 210.843 243.736 200.263 238.918L194.998 238.407ZM208.997 247.908C207.55 245.716 201.91 243.375 199.428 243.027C195.41 242.466 190.682 243.263 187.114 245.828C183.67 248.294 182.61 251.319 182.672 255.652C182.709 258.566 183.321 266.298 184.731 268.938C185.08 268.876 188.224 267.705 188.935 267.444C190.607 266.821 191.879 266.224 193.264 265.414C199.24 261.89 204.555 257.669 207.537 251.431C208.198 250.062 208.622 249.452 208.997 247.908Z" fill="#040002"/>
</g>
<g id="monster">
<g id="mthoughtc">
<g id="thought">
<g id="Group">
<path id="Vector_26" fill-rule="evenodd" clip-rule="evenodd" d="M193.826 71.9569C193.476 70.5499 192.603 69.3919 192.179 67.9102C191.792 66.553 190.844 64.5483 192.416 64.2993C194.487 63.9631 194.786 64.4487 196.957 63.4401C204.356 60.016 205.778 48.0004 201.524 39.5583C200.5 37.5412 197.569 34.7396 195.797 33.1832C195.236 32.6976 195.597 32.8968 194.974 32.461C189.222 28.3396 182.859 27.219 175.211 29.3855C170.308 30.7677 165.704 35.0011 163.571 39.5957C159.292 48.8471 163.059 57.1024 170.321 61.9584C173.552 64.1249 178.917 65.6067 183.146 65.7312C184.955 65.781 184.194 65.8681 186.639 67.7981C188.199 69.0308 190.981 71.3841 193.826 71.9569Z" fill="#FDFDFC"/>
</g>
<path id="Vector_27" fill-rule="evenodd" clip-rule="evenodd" d="M193.826 71.9569C190.981 71.3841 188.199 69.0308 186.639 67.7981C184.194 65.8681 184.955 65.781 183.146 65.7312C178.917 65.6067 173.552 64.1249 170.321 61.9584C163.059 57.1024 159.292 48.8471 163.571 39.5957C165.704 35.0011 170.308 30.7677 175.211 29.3855C182.859 27.219 189.222 28.3396 194.974 32.461C195.597 32.8968 195.236 32.6976 195.797 33.1832C197.569 34.7396 200.5 37.5412 201.524 39.5583C205.778 48.0004 204.356 60.016 196.957 63.4401C194.786 64.4487 194.487 63.9631 192.416 64.2993C190.844 64.5483 191.792 66.553 192.179 67.9102C192.603 69.3919 193.476 70.5499 193.826 71.9569ZM198.367 75.132C198.167 73.2767 195.784 70.5748 195.26 68.1218C202.322 66.7771 205.491 62.4316 207.125 55.3218C207.886 52.0471 208.049 48.1747 207.138 44.4891C205.84 39.2222 201.948 32.1996 197.444 29.4852C195.173 28.1155 191.854 26.4719 188.923 25.6501C182.485 23.8447 173.315 25.6128 168.624 28.7256C167.139 29.7093 166.378 30.2447 165.043 31.328L162.036 34.4906C157.57 40.2432 156.996 46.8549 158.867 54.1016C160.39 60.0409 165.368 64.5234 170.745 66.939C173.053 67.9849 177.557 69.5538 180.314 69.6036C185.579 69.7032 183.358 71.5086 186.54 72.7662C188.448 73.5382 195.148 77.9833 198.367 75.132Z" fill="#020201"/>
</g>
<path id="heart4" fill-rule="evenodd" clip-rule="evenodd" d="M170.72 50.3662C172.067 51.9475 180.564 60.1405 181.636 60.9125C182.26 61.3607 183.633 62.7179 184.656 62.8549C188.823 57.8868 195.934 51.4619 196.546 44.4517C197.182 37.1677 189.135 35.412 184.593 39.7327C183.945 40.3428 183.508 40.8408 182.984 41.8868L182.011 44.265C181.998 44.2276 181.961 44.3397 181.923 44.3895C180.401 42.97 179.877 42.0611 177.856 41.1272C173.402 39.0478 166.765 43.6798 169.884 49.1584C170.108 49.5568 170.383 49.9677 170.72 50.3662Z" fill="#F7787F"/>
</g>
<g id="marml">
<path id="Vector_28" fill-rule="evenodd" clip-rule="evenodd" d="M188.486 101.093C190.108 102.351 191.792 103.372 193.838 103.72C195.884 104.057 198.292 103.72 199.877 102.961C201.449 102.201 202.197 101.018 202.684 99.7608C203.158 98.4908 203.382 97.1336 202.796 95.6892C202.21 94.2449 200.825 92.7009 199.677 91.655C198.529 90.5966 197.631 90.0363 196.832 88.8161C196.034 87.6083 195.335 85.753 194.3 84.3834C193.264 83.0137 191.879 82.1172 190.619 81.8184C189.347 81.5195 188.199 81.8184 187.026 82.3911C185.853 82.9639 184.668 83.8106 183.645 85.1927C182.635 86.5748 181.786 88.4923 181.824 90.5219C181.874 92.5639 182.809 94.718 184.057 96.5359C185.304 98.3663 186.864 99.848 188.486 101.093Z" fill="#040002"/>
<path id="Vector_29" fill-rule="evenodd" clip-rule="evenodd" d="M196.546 100.657C195.161 101.031 193.826 100.906 192.428 99.9601C191.044 99.0138 189.596 97.2581 188.112 95.5025C186.639 93.7468 185.13 91.9912 185.055 90.111C184.993 88.2433 186.34 86.2386 187.687 85.504C189.035 84.7569 190.382 85.2799 191.368 86.1266C192.354 86.9857 192.99 88.1935 193.688 89.3764C194.387 90.5717 195.136 91.7421 195.922 92.6262C196.708 93.4978 197.506 94.0705 198.317 95.0044C199.116 95.9383 199.927 97.2332 199.627 98.3165C199.328 99.3997 197.918 100.284 196.546 100.657Z" fill="#773826"/>
</g>
<g id="marmr">
<path id="Vector_30" fill-rule="evenodd" clip-rule="evenodd" d="M262.12 118.948C260.361 119.596 258.59 120.032 256.706 119.77C254.809 119.509 252.801 118.55 251.628 117.442C250.455 116.346 250.131 115.101 250.056 113.856C249.981 112.611 250.168 111.366 251.079 110.257C251.99 109.149 253.637 108.19 254.922 107.58C256.219 106.97 257.167 106.734 258.203 105.887C259.238 105.04 260.361 103.608 261.646 102.699C262.944 101.778 264.391 101.38 265.589 101.467C266.774 101.554 267.71 102.127 268.571 102.948C269.444 103.77 270.255 104.841 270.754 106.335C271.265 107.829 271.49 109.734 270.879 111.515C270.28 113.283 268.87 114.914 267.273 116.172C265.676 117.429 263.892 118.289 262.12 118.948Z" fill="#040002"/>
<path id="Vector_31" fill-rule="evenodd" clip-rule="evenodd" d="M255.184 116.346C256.282 117.043 257.492 117.305 258.976 116.857C260.461 116.421 262.208 115.275 263.992 114.142C265.776 113.009 267.572 111.888 268.159 110.257C268.745 108.639 268.109 106.522 267.136 105.501C266.15 104.48 264.84 104.555 263.742 105.04C262.632 105.513 261.746 106.397 260.81 107.244C259.862 108.091 258.877 108.913 257.953 109.473C257.018 110.021 256.157 110.307 255.196 110.892C254.223 111.49 253.162 112.399 253.125 113.445C253.088 114.478 254.086 115.636 255.184 116.346Z" fill="#773826"/>
</g>
<g id="mheadc">
<g id="mhead">
<path id="Vector_32" fill-rule="evenodd" clip-rule="evenodd" d="M214.624 128.088C212.365 126.892 209.621 125.498 207.075 123.705C204.53 121.912 202.172 119.733 199.927 117.84C197.668 115.948 195.51 114.354 194.038 112.66C192.566 110.98 191.792 109.187 191.293 106.497C190.806 103.808 190.607 100.234 190.906 97.3453C191.193 94.469 191.979 92.2776 192.965 89.9865C193.938 87.6954 195.123 85.3172 196.783 83.0262C198.454 80.7351 200.613 78.5437 203.058 76.6635C205.503 74.7709 208.248 73.1771 210.906 71.9818C213.551 70.7864 216.096 69.9896 218.84 69.4915C221.585 68.9934 224.53 68.8067 227.661 69.0931C230.793 69.3919 234.136 70.1888 237.268 71.3841C240.399 72.5794 243.344 74.1732 245.789 75.767C248.247 77.3608 250.206 78.9421 251.778 80.5359C253.337 82.1297 254.522 83.7234 255.496 85.2176C256.481 86.6993 257.267 88.0939 257.953 90.1857C258.64 92.2776 259.226 95.0542 259.613 97.7437C260.012 100.433 260.199 103.023 260.112 105.302C260.012 107.593 259.613 109.585 258.827 112.162C258.053 114.752 256.868 117.94 255.496 120.617C254.123 123.306 252.564 125.498 250.792 127.191C249.033 128.885 247.074 130.068 244.417 130.964C241.772 131.861 238.441 132.458 235.596 132.657C232.764 132.857 230.406 132.657 227.961 132.359C225.503 132.06 222.958 131.661 220.799 130.964C218.641 130.267 216.882 129.283 214.624 128.088Z" fill="#020201" stroke="black" stroke-width="0.2"/>
<path id="Vector_33" fill-rule="evenodd" clip-rule="evenodd" d="M215.996 125.187C213.975 124.128 211.517 122.896 209.221 121.314C206.938 119.733 204.817 117.803 202.796 116.134C200.775 114.466 198.841 113.059 197.519 111.565C196.196 110.071 195.485 108.489 195.048 106.123C194.612 103.745 194.437 100.583 194.699 98.0425C194.961 95.49 195.672 93.56 196.546 91.5305C197.431 89.5133 198.479 87.4091 199.976 85.3919C201.474 83.3623 203.407 81.4324 205.616 79.7639C207.812 78.0954 210.282 76.6884 212.652 75.63C215.035 74.5841 217.318 73.8744 219.789 73.4386C222.246 73.0028 224.891 72.8285 227.711 73.0899C230.531 73.3514 233.512 74.0487 236.332 75.1071C239.152 76.1654 241.797 77.5724 243.992 78.9795C246.188 80.374 247.96 81.781 249.357 83.188C250.767 84.595 251.828 86.002 252.713 87.3219C253.587 88.6417 254.298 89.862 254.909 91.7172C255.52 93.56 256.057 96.013 256.406 98.3912C256.756 100.757 256.93 103.048 256.843 105.065C256.756 107.082 256.406 108.838 255.695 111.129C254.996 113.408 253.936 116.222 252.713 118.6C251.478 120.966 250.068 122.896 248.484 124.39C246.899 125.884 245.14 126.942 242.757 127.727C240.387 128.524 237.393 129.047 234.835 129.221C232.29 129.395 230.169 129.221 227.973 128.959C225.777 128.698 223.482 128.349 221.548 127.727C219.614 127.117 218.03 126.233 215.996 125.187Z" fill="#BD7D51"/>
</g>
<g id="meyel">
<path id="Vector_34" fill-rule="evenodd" clip-rule="evenodd" d="M220.487 88.1935C221.024 88.8161 221.897 89.6877 222.958 90.3102C224.006 90.9203 225.241 91.269 226.301 91.1818C227.362 91.0947 228.235 90.5717 228.672 89.6877C229.121 88.8161 229.121 87.5834 228.672 86.1764C228.235 84.7694 227.362 83.188 226.476 81.781C225.59 80.374 224.717 79.1538 224.093 78.2697C223.482 77.3981 223.132 76.8627 222.421 76.4269C221.722 75.9911 220.662 75.63 219.876 75.63C219.078 75.63 218.554 75.9911 218.03 76.5141C217.493 77.037 216.969 77.7468 216.707 78.3569C216.445 78.9795 216.445 79.5024 216.532 80.1125C216.62 80.7351 216.794 81.4324 217.056 82.1421C217.318 82.8394 217.668 83.5367 218.117 84.3336C218.554 85.118 219.078 86.002 219.439 86.6122C219.789 87.2347 219.963 87.5834 220.487 88.1935Z" fill="black" stroke="black" stroke-width="0.2"/>
<path id="Vector_35" d="M218.516 98.6651C220.583 98.6651 222.259 96.9202 222.259 94.7678C222.259 92.6154 220.583 90.8705 218.516 90.8705C216.449 90.8705 214.773 92.6154 214.773 94.7678C214.773 96.9202 216.449 98.6651 218.516 98.6651Z" fill="#020201"/>
</g>
<g id="meyer">
<path id="Vector_36" fill-rule="evenodd" clip-rule="evenodd" d="M239.588 93.8215C240.387 94.083 241.622 94.4316 242.583 94.6931C243.556 94.967 244.254 95.1414 244.878 95.3157C245.49 95.49 246.014 95.6643 246.55 95.6643C247.074 95.6643 247.598 95.49 247.96 95.1414C248.309 94.7927 248.484 94.2573 248.571 93.8215C248.659 93.3857 248.659 93.0246 248.484 92.676C248.309 92.3273 247.96 91.9787 247.423 91.6301C246.899 91.269 246.188 90.9203 245.402 90.6589C244.604 90.3974 243.73 90.2231 242.795 89.9989C241.872 89.7748 240.886 89.5009 240.087 89.3266C239.301 89.1522 238.703 89.0651 238.179 89.0775C237.667 89.09 237.23 89.202 236.968 89.4635C236.694 89.725 236.607 90.1483 236.557 90.6215C236.507 91.0947 236.507 91.6301 236.769 92.0659C237.043 92.5017 237.567 92.8503 238.004 93.1118C238.453 93.3857 238.802 93.56 239.588 93.8215Z" fill="#020201" stroke="black" stroke-width="0.2"/>
<path id="Vector_37" fill-rule="evenodd" clip-rule="evenodd" d="M235.496 98.8021C235.696 98.5282 235.908 98.2916 236.207 98.0301C236.494 97.7811 236.844 97.532 237.255 97.3453C237.667 97.146 238.129 97.034 238.64 96.9966C239.164 96.9717 239.738 97.0215 240.225 97.171C240.711 97.3204 241.098 97.5569 241.435 97.8433C241.759 98.1173 242.009 98.4534 242.246 98.827C242.47 99.2005 242.67 99.6239 242.807 99.9974C242.932 100.371 243.007 100.707 243.019 101.068C243.044 101.429 243.032 101.84 242.982 102.214C242.932 102.6 242.845 102.948 242.682 103.297C242.508 103.646 242.246 103.982 241.959 104.281C241.672 104.567 241.348 104.804 241.011 105.003C240.674 105.202 240.312 105.364 239.925 105.439C239.538 105.501 239.114 105.464 238.715 105.401C238.328 105.339 237.954 105.264 237.655 105.14C237.343 105.028 237.093 104.866 236.831 104.679C236.569 104.48 236.295 104.256 236.07 104.019C235.833 103.795 235.633 103.571 235.471 103.285C235.309 103.011 235.172 102.674 235.072 102.363C234.972 102.039 234.91 101.728 234.897 101.28C234.885 100.819 234.935 100.222 235.035 99.7857C235.147 99.3499 235.309 99.0636 235.496 98.8021Z" fill="#020201"/>
</g>
<g id="mmouth">
<path id="Vector_38" fill-rule="evenodd" clip-rule="evenodd" d="M209.334 110.046C208.747 109.647 208.173 109.324 207.674 108.751C207.163 108.166 206.726 107.344 206.452 106.497C206.177 105.65 206.065 104.766 206.027 103.87C205.99 102.973 206.027 102.052 206.115 101.355C206.19 100.645 206.327 100.159 206.576 99.7484C206.838 99.3499 207.225 99.0387 207.787 98.9764C208.336 98.9141 209.072 99.0885 210.619 99.6363C212.178 100.172 214.536 101.068 217.68 102.226C220.824 103.397 224.754 104.816 228.135 106.036C231.516 107.257 234.361 108.265 236.544 109.087C238.728 109.909 240.25 110.544 241.41 111.092C242.583 111.627 243.381 112.063 243.868 112.511C244.342 112.959 244.492 113.42 244.417 113.856C244.342 114.279 244.042 114.69 243.419 115.238C242.795 115.798 241.847 116.52 240.799 117.18C239.751 117.853 238.615 118.475 237.779 118.874C236.931 119.26 236.382 119.422 235.708 119.546C235.047 119.658 234.249 119.733 233.213 119.596C232.165 119.446 230.868 119.073 228.884 118.401C226.9 117.728 224.243 116.732 222.109 115.898C219.988 115.051 218.391 114.354 216.645 113.619C214.91 112.897 213.014 112.125 211.766 111.515C210.519 110.892 209.92 110.444 209.334 110.046Z" fill="#020201" stroke="black" stroke-width="0.2"/>
<path id="Vector_39" fill-rule="evenodd" clip-rule="evenodd" d="M214.736 110.208C213.588 109.672 212.74 109.249 211.979 108.825C211.218 108.39 210.544 107.954 210.07 107.456C209.608 106.958 209.346 106.41 209.221 105.601C209.097 104.779 209.097 103.708 209.097 102.998C209.097 102.301 209.097 101.965 209.658 102.027C210.232 102.089 211.367 102.55 212.765 103.023C214.149 103.509 215.809 103.994 216.632 104.243C217.456 104.492 217.456 104.492 217.543 104.99C217.618 105.476 217.78 106.472 217.98 107.257C218.167 108.041 218.391 108.626 218.803 109.162C219.215 109.685 219.826 110.17 220.762 110.631C221.71 111.104 222.995 111.552 224.13 112.025C225.266 112.486 226.264 112.972 227.05 113.221C227.848 113.482 228.46 113.52 229.133 113.432C229.795 113.345 230.531 113.146 231.167 112.623C231.791 112.1 232.327 111.266 232.776 110.905C233.226 110.544 233.587 110.681 234.249 110.955C234.897 111.229 235.833 111.652 236.731 112.025C237.63 112.399 238.49 112.723 239.202 112.972C239.9 113.208 240.449 113.345 240.724 113.42C240.998 113.495 240.998 113.495 240.961 113.607C240.923 113.719 240.861 113.931 240.474 114.267C240.1 114.59 239.426 115.039 238.678 115.524C237.942 116.022 237.131 116.57 236.532 116.956C235.945 117.342 235.559 117.554 235.06 117.666C234.56 117.766 233.962 117.741 233.063 117.504C232.165 117.267 230.967 116.807 229.52 116.284C228.073 115.748 226.364 115.138 224.53 114.416C222.696 113.694 220.737 112.86 219.028 112.113C217.331 111.378 215.884 110.731 214.736 110.208Z" fill="#733A29" stroke="black" stroke-width="0.2"/>
<path id="Vector_40" fill-rule="evenodd" clip-rule="evenodd" d="M222.633 109.199C221.984 108.95 221.273 108.751 220.974 108.427C220.662 108.103 220.737 107.667 220.749 107.219C220.749 106.771 220.662 106.31 220.849 106.123C221.024 105.949 221.448 106.061 222.009 106.248C222.571 106.447 223.257 106.734 224.006 107.045C224.754 107.356 225.565 107.692 226.201 107.954C226.838 108.203 227.324 108.377 227.848 108.589C228.385 108.788 228.971 109.037 229.345 109.174C229.72 109.311 229.869 109.361 229.932 109.448C229.994 109.535 229.957 109.66 229.832 109.822C229.72 109.971 229.508 110.158 229.345 110.357C229.183 110.556 229.058 110.78 228.884 110.955C228.709 111.129 228.509 111.253 228.247 111.303C227.998 111.341 227.711 111.316 227.337 111.204C226.975 111.092 226.538 110.905 226.052 110.706C225.565 110.494 225.029 110.27 224.455 110.008C223.893 109.747 223.282 109.448 222.633 109.199Z" fill="white"/>
</g>
</g>
<g id="nfootl">
<path id="Vector_41" fill-rule="evenodd" clip-rule="evenodd" d="M203.096 129.022C204.206 129.781 205.304 130.142 206.676 130.217C208.049 130.292 209.695 130.068 210.781 129.507C211.866 128.934 212.378 128.026 212.69 126.818C213.002 125.61 213.114 124.103 213.076 122.709C213.039 121.327 212.852 120.044 212.577 118.824C212.303 117.604 211.929 116.458 211.193 115.362C210.456 114.279 209.346 113.246 207.899 112.76C206.452 112.274 204.668 112.337 203.42 112.723C202.185 113.121 201.486 113.856 200.875 114.69C200.276 115.537 199.764 116.496 199.39 117.666C199.028 118.836 198.804 120.218 198.904 121.65C198.991 123.082 199.39 124.539 200.151 125.847C200.9 127.141 201.998 128.275 203.096 129.022Z" fill="#020201"/>
<path id="Vector_42" fill-rule="evenodd" clip-rule="evenodd" d="M208.473 125.672C208.148 126.133 207.787 126.457 207.412 126.693C207.038 126.917 206.651 127.067 206.202 127.042C205.753 127.029 205.229 126.83 204.792 126.544C204.356 126.27 203.994 125.884 203.657 125.311C203.333 124.738 203.058 123.979 202.846 123.169C202.646 122.36 202.534 121.501 202.472 120.704C202.422 119.907 202.434 119.148 202.671 118.475C202.908 117.79 203.37 117.18 203.844 116.745C204.331 116.309 204.817 116.047 205.266 115.91C205.728 115.773 206.165 115.761 206.589 115.848C207.026 115.935 207.45 116.122 207.824 116.483C208.211 116.832 208.523 117.355 208.81 117.965C209.084 118.562 209.321 119.26 209.446 119.945C209.571 120.629 209.583 121.314 209.546 121.999C209.521 122.671 209.446 123.356 209.259 123.991C209.084 124.626 208.797 125.224 208.473 125.672Z" fill="#773826"/>
</g>
<g id="mfootr">
<path id="Vector_43" fill-rule="evenodd" clip-rule="evenodd" d="M245.49 129.794C245.614 128.486 245.465 127.515 244.729 126.432C243.992 125.348 242.657 124.166 240.861 123.804C239.064 123.443 236.794 123.904 235.134 124.514C233.463 125.124 232.415 125.871 231.454 126.681C230.493 127.49 229.645 128.349 229.009 129.495C228.385 130.653 227.973 132.11 228.21 133.604C228.447 135.11 229.32 136.679 230.231 137.588C231.154 138.51 232.128 138.796 233.151 138.945C234.186 139.095 235.272 139.107 236.482 138.896C237.692 138.684 239.027 138.248 240.399 137.464C241.784 136.679 243.194 135.571 244.092 134.177C244.991 132.782 245.377 131.113 245.49 129.794Z" fill="#020201"/>
<path id="Vector_44" fill-rule="evenodd" clip-rule="evenodd" d="M239.439 127.166C240 127.241 240.449 127.428 240.836 127.652C241.21 127.876 241.522 128.15 241.709 128.561C241.884 128.972 241.959 129.507 241.909 130.03C241.859 130.553 241.684 131.051 241.335 131.599C240.973 132.147 240.412 132.757 239.788 133.305C239.164 133.853 238.453 134.351 237.767 134.774C237.081 135.185 236.407 135.521 235.696 135.621C234.985 135.733 234.224 135.596 233.612 135.372C233.001 135.148 232.552 134.836 232.227 134.488C231.891 134.152 231.678 133.778 231.554 133.355C231.429 132.931 231.404 132.458 231.554 131.96C231.691 131.462 232.015 130.939 232.427 130.416C232.826 129.893 233.338 129.37 233.887 128.947C234.436 128.511 235.047 128.187 235.671 127.913C236.295 127.627 236.931 127.378 237.58 127.241C238.228 127.104 238.877 127.092 239.439 127.166Z" fill="#773826"/>
</g>
</g>
<g id="hearts">
<g id="heart3">
<path id="Vector_45" fill-rule="evenodd" clip-rule="evenodd" d="M85.7944 111.129C87.4662 113.059 97.9213 123.157 99.2437 124.116C100.005 124.664 101.702 126.345 102.962 126.506C108.089 120.393 116.873 112.461 117.621 103.832C118.407 94.855 108.489 92.6884 102.887 98.0176C102.088 98.7647 101.539 99.3873 100.903 100.67L99.7178 103.596C99.6929 103.559 99.643 103.695 99.6055 103.745C97.7216 102.002 97.0729 100.881 94.5901 99.7359C89.1006 97.1834 80.9287 102.874 84.7589 109.635C85.0333 110.12 85.3827 110.618 85.7944 111.129Z" fill="#EF3540"/>
</g>
<g id="heart2">
<path id="Vector_46" fill-rule="evenodd" clip-rule="evenodd" d="M65.4457 92.1655C64.3977 91.4806 64.6597 91.0199 63.1875 90.2978C58.9082 88.2059 56.5627 92.3772 59.4197 95.8635C60.9418 97.7312 66.4937 103.197 68.8143 103.309C72.9439 98.7772 74.2664 86.5623 68.6272 87.3592C66.3066 87.683 65.6079 89.6378 65.4457 92.1655Z" fill="#F7787F"/>
</g>
<g id="heart1">
<path id="head1" fill-rule="evenodd" clip-rule="evenodd" d="M73.7424 66.4907C73.2683 65.9553 73.4804 65.7436 72.7692 65.1335C70.7107 63.3405 68.8018 65.3078 69.8623 67.6611C70.4362 68.9187 72.7069 72.7538 73.9794 73.1522C76.9238 71.2471 79.4565 64.6853 76.2127 64.2993C74.8777 64.1374 74.2165 65.1211 73.7424 66.4907Z" fill="#E93840"/>
</g>
</g>
</g>
</svg>
