<svg width="309" height="394" viewBox="0 0 309 394" fill="none" xmlns="http://www.w3.org/2000/svg">
<g id="bear 5">
<rect width="309" height="394" fill="white"/>
<g id="body">
<path id="Vector" fill-rule="evenodd" clip-rule="evenodd" d="M84.8238 286.936C83.4246 288.369 82.1266 289.532 80.8286 290.948C79.5306 292.365 78.2326 294.017 77.1538 295.686C76.0749 297.338 75.2152 299.007 74.4566 300.693C73.6981 302.362 73.0238 304.082 72.4843 306.054C71.9449 308.027 71.5403 310.269 71.2875 312.495C71.0515 314.703 70.9503 316.912 71.3381 319.238C71.7258 321.582 72.5686 324.043 73.5632 326.218C74.5409 328.393 75.6703 330.281 76.7661 331.849C77.8618 333.434 78.9406 334.682 80.2218 335.912C81.5029 337.16 82.9863 338.357 84.4698 339.368C85.9532 340.38 87.4198 341.189 89.1392 341.88C90.8418 342.589 92.7635 343.162 94.8369 343.566C96.8935 343.971 99.1018 344.207 101.158 344.207C103.215 344.207 105.153 343.971 106.569 343.6C107.985 343.212 108.879 342.673 109.334 342.403C109.772 342.133 109.772 342.133 110.295 342.656C110.801 343.162 111.846 344.207 112.689 344.983C113.548 345.775 114.223 346.314 114.627 347.208C115.032 348.102 115.167 349.366 115.386 350.782C115.605 352.181 115.925 353.766 116.599 355.216C117.274 356.683 118.302 358.032 119.583 359.094C120.864 360.173 122.381 360.982 123.915 361.522C125.433 362.061 126.967 362.331 128.669 362.466C130.372 362.601 132.26 362.601 134.299 362.55C136.339 362.516 138.547 362.415 140.655 362.078C142.762 361.741 144.785 361.168 146.352 360.915C147.92 360.679 149.049 360.763 150.836 360.645C152.64 360.544 155.101 360.223 156.888 359.633C158.692 359.06 159.821 358.2 160.715 357.054C161.608 355.907 162.282 354.474 162.872 352.788C163.445 351.119 163.934 349.181 164.339 347.967C164.743 346.753 165.064 346.264 165.249 346.045C165.418 345.809 165.468 345.859 166.159 346.146C166.867 346.449 168.199 346.989 170.542 347.343C172.869 347.697 176.189 347.882 179.342 347.882C182.477 347.882 185.444 347.697 188.445 347.056C191.445 346.399 194.496 345.269 196.991 344.072C199.486 342.858 201.408 341.543 203.161 340.144C204.914 338.728 206.482 337.194 207.898 335.356C209.314 333.518 210.578 331.36 211.471 328.865C212.365 326.387 212.904 323.554 213.225 320.857C213.528 318.159 213.629 315.614 213.376 312.984C213.123 310.354 212.55 307.673 211.674 305.329C210.797 303.003 209.634 301.03 208.521 299.21C207.426 297.389 206.397 295.72 205.049 293.663C203.7 291.589 202.048 289.128 200.835 280.057C199.621 270.987 198.862 255.325 199.351 241.011C199.84 226.698 201.593 213.733 202.015 203.82C202.453 193.923 201.543 187.112 197.396 182.779C193.249 178.446 185.849 176.609 176.493 175.681C167.12 174.771 155.826 174.771 146.437 174.704C137.064 174.636 129.613 174.501 121.825 174.248C114.037 173.995 105.912 173.641 101.546 178.699C97.1632 183.74 96.5395 194.193 95.6798 203.803C94.8369 213.413 93.7581 222.163 93.3535 234.099C92.9489 246.035 93.2186 261.158 92.6286 269.689C92.0555 278.22 90.6058 280.159 89.1561 281.962C87.6895 283.783 86.2061 285.486 84.8238 286.936Z" fill="white"/>
<path id="Vector_2" fill-rule="evenodd" clip-rule="evenodd" d="M114.391 346.787C114.476 346.921 114.56 347.056 114.627 347.208C115.032 348.102 115.167 349.366 115.386 350.782C115.605 352.182 115.925 353.766 116.6 355.216C117.274 356.683 118.302 358.032 119.583 359.094C120.864 360.173 122.382 360.982 123.916 361.522C125.433 362.061 126.967 362.331 128.669 362.466C130.372 362.601 132.26 362.601 134.3 362.55C136.339 362.516 138.548 362.415 140.655 362.078C142.762 361.741 144.785 361.168 146.352 360.915C147.92 360.679 149.05 360.763 150.836 360.645C152.64 360.544 155.101 360.223 156.888 359.633C158.692 359.06 159.821 358.2 160.715 357.054C161.608 355.907 162.282 354.474 162.872 352.788C163.446 351.119 163.934 349.181 164.339 347.967C164.744 346.77 165.064 346.281 165.232 346.045C163.58 345.353 161.945 344.797 160.445 344.342C157.074 343.347 154.292 342.841 151.882 342.622C149.454 342.403 147.381 342.437 144.852 342.538C142.324 342.622 139.306 342.757 136.272 342.959C133.254 343.162 130.203 343.432 127.169 343.718C124.135 344.005 121.134 344.325 117.695 345.455C116.616 345.809 115.487 346.247 114.391 346.787Z" fill="#94685B"/>
<path id="Vector_3" d="M99.0511 318.53C99.4557 320.688 99.8603 322.846 100.332 324.785C100.804 326.741 101.344 328.494 102.018 330.264C102.692 332.035 103.501 333.839 104.429 335.592C105.373 337.328 106.451 339.048 107.362 340.144C108.255 341.24 108.963 341.729 109.334 341.982C109.688 342.235 109.688 342.235 109.688 342.235" stroke="black" stroke-width="1.6933"/>
<path id="Vector_4" d="M165.569 345.91C166.867 344.747 168.165 343.583 169.345 342.504C170.509 341.425 171.537 340.447 172.633 339.25C173.745 338.053 174.908 336.671 175.937 335.17C176.965 333.67 177.875 332.052 178.533 330.568C179.207 329.084 179.662 327.736 180.134 326.454C180.606 325.173 181.095 323.976 181.584 322.762" stroke="black" stroke-width="1.6933"/>
<path id="Vector_5" d="M143.503 361.522C143.503 359.229 143.503 356.936 143.52 354.542C143.554 352.131 143.588 349.619 143.621 347.191C143.638 344.78 143.638 342.437 143.638 339.975C143.638 337.497 143.638 334.901 143.638 332.49C143.638 330.096 143.638 327.904 143.621 325.628C143.588 323.369 143.554 321.026 143.588 318.648C143.638 316.271 143.773 313.843 143.824 311.129C143.857 308.415 143.824 305.414 143.419 302.632C143.015 299.85 142.239 297.288 140.199 295.197C138.16 293.106 134.839 291.488 131.501 290.898C128.147 290.291 124.792 290.696 121.64 291.522C118.504 292.348 115.588 293.612 112.672 294.86" stroke="black" stroke-width="1.6933"/>
<path id="Vector_6" d="M143.824 311.129C144.262 308.617 144.717 306.105 145.493 303.981C146.285 301.84 147.414 300.086 149.252 298.603C151.089 297.136 153.651 295.922 156.635 295.383C159.619 294.843 163.024 294.978 165.738 295.619C168.452 296.276 170.475 297.439 172.498 298.603" stroke="black" stroke-width="1.6933"/>
<path id="Vector_7" fill-rule="evenodd" clip-rule="evenodd" d="M84.8238 286.936C83.4246 288.369 82.1266 289.532 80.8286 290.948C79.5306 292.365 78.2326 294.017 77.1538 295.686C76.0749 297.338 75.2152 299.007 74.4566 300.693C73.6981 302.362 73.0238 304.082 72.4843 306.054C71.9449 308.027 71.5403 310.269 71.2875 312.495C71.0515 314.703 70.9503 316.912 71.3381 319.238C71.7258 321.582 72.5686 324.043 73.5632 326.218C74.5409 328.393 75.6703 330.281 76.7661 331.849C77.8618 333.434 78.9406 334.682 80.2218 335.912C81.5029 337.16 82.9863 338.357 84.4698 339.368C85.9532 340.38 87.4198 341.189 89.1392 341.88C90.8418 342.589 92.7635 343.162 94.8369 343.566C96.8935 343.971 99.1018 344.207 101.158 344.207C103.215 344.207 105.153 343.971 106.569 343.6C107.985 343.212 108.879 342.673 109.334 342.403C109.772 342.133 109.772 342.133 110.295 342.656C110.801 343.162 111.846 344.207 112.689 344.983C113.548 345.775 114.223 346.314 114.627 347.208C115.032 348.102 115.167 349.366 115.386 350.782C115.605 352.181 115.925 353.766 116.599 355.216C117.274 356.683 118.302 358.032 119.583 359.094C120.864 360.173 122.381 360.982 123.915 361.522C125.433 362.061 126.967 362.331 128.669 362.466C130.372 362.601 132.26 362.601 134.299 362.55C136.339 362.516 138.547 362.415 140.655 362.078C142.762 361.741 144.785 361.168 146.352 360.915C147.92 360.679 149.049 360.763 150.836 360.645C152.64 360.544 155.101 360.223 156.888 359.633C158.692 359.06 159.821 358.2 160.715 357.054C161.608 355.907 162.282 354.474 162.872 352.788C163.445 351.119 163.934 349.181 164.339 347.967C164.743 346.753 165.064 346.264 165.249 346.045C165.418 345.809 165.468 345.859 166.159 346.146C166.867 346.449 168.199 346.989 170.542 347.343C172.869 347.697 176.189 347.882 179.342 347.882C182.477 347.882 185.444 347.697 188.445 347.056C191.445 346.399 194.496 345.269 196.991 344.072C199.486 342.858 201.408 341.543 203.161 340.144C204.914 338.728 206.482 337.194 207.898 335.356C209.314 333.518 210.578 331.36 211.471 328.865C212.365 326.387 212.904 323.554 213.225 320.857C213.528 318.159 213.629 315.614 213.376 312.984C213.123 310.354 212.55 307.673 211.674 305.329C210.797 303.003 209.634 301.03 208.521 299.21C207.426 297.389 206.397 295.72 205.049 293.663C203.7 291.589 202.048 289.128 200.835 280.057C199.621 270.987 198.862 255.325 199.351 241.011C199.84 226.698 201.593 213.733 202.015 203.82C202.453 193.923 201.543 187.112 197.396 182.779C193.249 178.446 185.849 176.609 176.493 175.681C167.12 174.771 155.826 174.771 146.437 174.704C137.064 174.636 129.613 174.501 121.825 174.248C114.037 173.995 105.912 173.641 101.546 178.699C97.1632 183.74 96.5395 194.193 95.6798 203.803C94.8369 213.413 93.7581 222.163 93.3535 234.099C92.9489 246.035 93.2186 261.158 92.6286 269.689C92.0555 278.22 90.6058 280.159 89.1561 281.962C87.6895 283.783 86.2061 285.486 84.8238 286.936Z" stroke="black" stroke-width="1.6933"/>
</g>
<g id="armRBear5">
<path id="Vector_8" fill-rule="evenodd" clip-rule="evenodd" d="M168.452 253.234C167.879 253.521 167.154 253.959 166.783 254.178C166.412 254.414 166.412 254.414 165.957 254.448C165.502 254.482 164.609 254.549 163.665 254.583C162.721 254.634 161.743 254.65 160.782 254.768C159.838 254.886 158.911 255.089 157.883 255.409C156.854 255.729 155.708 256.185 154.427 256.943C153.146 257.685 151.73 258.747 150.584 259.792C149.437 260.855 148.561 261.9 147.684 263.046C146.824 264.176 145.948 265.39 145.105 267.143C144.279 268.88 143.504 271.173 143.099 272.353C142.711 273.533 142.711 273.6 142.121 274.207C141.548 274.831 140.385 275.994 139.542 277.427C138.699 278.844 138.177 280.529 137.856 282.199C137.553 283.884 137.435 285.537 137.587 287.341C137.755 289.145 138.177 291.1 138.834 293.005C139.475 294.91 140.351 296.782 141.245 298.198C142.155 299.614 143.065 300.575 144.195 301.351C145.307 302.126 146.639 302.699 148.089 303.121C149.538 303.542 151.106 303.778 152.59 303.896C154.09 304.014 155.506 303.981 156.467 303.998C157.428 304.014 157.95 304.048 158.641 304.402C159.332 304.773 160.209 305.448 161.406 306.088C162.62 306.729 164.137 307.336 165.94 307.707C167.727 308.094 169.801 308.246 171.958 308.297C174.133 308.33 176.392 308.263 178.381 308.027C180.387 307.774 182.106 307.353 183.994 306.712C185.882 306.071 187.922 305.211 189.793 304.284C191.648 303.357 193.333 302.345 194.85 301.283C196.368 300.238 197.716 299.142 199.048 297.928C200.38 296.714 201.694 295.383 203.009 293.916C204.307 292.432 205.588 290.797 206.701 289.195C207.83 287.594 208.791 286.059 209.82 284.694C210.831 283.345 211.91 282.165 212.904 281.12C213.916 280.091 214.826 279.164 215.585 278.27C216.326 277.394 216.916 276.534 217.405 275.573C217.911 274.612 218.299 273.533 218.568 272.403C218.821 271.291 218.939 270.127 218.99 268.93C219.04 267.733 219.04 266.536 218.754 265.255C218.467 263.974 217.877 262.625 217.254 261.462C216.63 260.298 215.956 259.304 215.13 258.376C214.32 257.466 213.343 256.606 213.039 255.746C212.736 254.886 213.107 254.01 213.646 253.049C214.202 252.071 214.944 251.026 215.5 249.525C216.057 248.042 216.444 246.103 216.596 244.417C216.765 242.714 216.697 241.264 216.529 239.78C216.377 238.297 216.124 236.796 215.703 235.397C215.281 234.015 214.674 232.733 213.848 231.587C213.006 230.44 211.96 229.429 211 228.434C210.022 227.439 209.145 226.445 208.454 225.602C207.763 224.742 207.24 224.017 206.988 223.663C206.735 223.292 206.735 223.258 206.465 220.932C206.212 218.622 205.69 213.986 205.032 210.782C204.375 207.579 203.566 205.775 203.346 202.555C203.11 199.318 203.481 194.648 203.431 190.113C203.38 185.578 202.942 181.178 199.975 177.418C197.008 173.641 191.53 170.506 188.984 168.971C186.422 167.454 186.776 167.538 184.045 167.353C181.297 167.184 175.465 166.729 170.576 171.483C165.688 176.255 161.743 186.218 160.748 195.188C159.771 204.157 161.743 212.148 163.985 219.566C166.227 226.967 168.739 233.795 169.632 238.28C170.542 242.765 169.818 244.923 169.565 246.642C169.295 248.345 169.497 249.626 169.615 250.57C169.733 251.515 169.75 252.122 169.565 252.476C169.396 252.846 169.008 252.948 168.452 253.234Z" fill="white"/>
<path id="Vector_9" fill-rule="evenodd" clip-rule="evenodd" d="M144.043 269.706C143.655 270.734 143.318 271.712 143.099 272.353C142.711 273.533 142.711 273.6 142.121 274.207C141.548 274.831 140.385 275.994 139.542 277.427C138.699 278.844 138.177 280.529 137.856 282.199C137.553 283.884 137.435 285.537 137.587 287.341C137.755 289.145 138.177 291.1 138.834 293.005C139.475 294.91 140.351 296.782 141.245 298.198C142.155 299.614 143.065 300.575 144.195 301.351C145.307 302.126 146.639 302.699 148.089 303.121C149.538 303.542 151.106 303.778 152.59 303.896C153.416 303.964 154.191 303.981 154.899 303.981C154.966 303.93 155.017 303.88 155.068 303.829C156.854 302.076 157.495 300.373 157.984 298.485C158.473 296.613 158.827 294.54 158.877 292.247C158.928 289.971 158.658 287.459 157.748 284.98C156.854 282.519 155.337 280.091 153.719 278.001C152.101 275.91 150.398 274.174 148.864 272.724C147.347 271.291 145.998 270.178 144.33 269.773C144.245 269.74 144.144 269.723 144.043 269.706Z" fill="#94685B"/>
<path id="Vector_10" d="M184.045 249.222C183.438 249.087 182.831 248.952 182.039 248.885C181.23 248.817 180.252 248.817 179.359 248.868C178.482 248.918 177.69 249.003 176.813 249.188C175.937 249.357 174.976 249.626 174.049 250.014C173.122 250.402 172.211 250.891 171.318 251.413C170.424 251.936 169.531 252.509 168.705 253.015C167.879 253.521 167.154 253.959 166.783 254.178C166.412 254.414 166.412 254.414 165.957 254.448C165.502 254.482 164.609 254.549 163.665 254.583C162.721 254.634 161.743 254.65 160.782 254.768C159.838 254.886 158.911 255.089 157.883 255.409C156.854 255.729 155.708 256.185 154.427 256.943C153.146 257.685 151.73 258.747 150.584 259.792C149.437 260.855 148.561 261.9 147.684 263.046C146.824 264.176 145.948 265.39 145.105 267.143C144.279 268.88 143.504 271.173 143.099 272.353C142.711 273.533 142.711 273.6 142.121 274.207C141.548 274.831 140.385 275.994 139.542 277.427C138.699 278.844 138.177 280.529 137.856 282.199C137.553 283.884 137.435 285.537 137.587 287.341C137.755 289.145 138.177 291.1 138.834 293.005C139.475 294.91 140.351 296.782 141.245 298.198C142.155 299.614 143.065 300.575 144.195 301.351C145.307 302.126 146.639 302.699 148.089 303.121C149.538 303.542 151.106 303.778 152.59 303.896C154.09 304.014 155.506 303.981 156.467 303.998C157.428 304.014 157.95 304.048 158.641 304.402C159.332 304.773 160.209 305.448 161.406 306.088C162.62 306.729 164.137 307.336 165.94 307.707C167.727 308.094 169.801 308.246 171.958 308.297C174.133 308.33 176.392 308.263 178.381 308.027C180.387 307.774 182.106 307.353 183.994 306.712C185.882 306.071 187.922 305.211 189.793 304.284C191.648 303.357 193.333 302.345 194.85 301.283C196.368 300.238 197.716 299.142 199.048 297.928C200.38 296.714 201.694 295.383 203.009 293.916C204.307 292.432 205.588 290.797 206.701 289.195C207.83 287.593 208.791 286.059 209.82 284.694C210.831 283.345 211.91 282.165 212.904 281.12C213.916 280.091 214.826 279.164 215.585 278.27C216.326 277.394 216.916 276.534 217.405 275.573C217.911 274.612 218.299 273.533 218.568 272.403C218.821 271.291 218.939 270.127 218.99 268.93C219.04 267.733 219.04 266.536 218.754 265.255C218.467 263.974 217.877 262.625 217.254 261.462C216.63 260.298 215.956 259.304 215.13 258.376C214.32 257.466 213.343 256.606 213.039 255.746C212.736 254.886 213.107 254.01 213.646 253.049C214.202 252.071 214.944 251.026 215.5 249.525C216.057 248.042 216.444 246.103 216.596 244.417C216.765 242.714 216.697 241.264 216.529 239.78C216.377 238.297 216.124 236.796 215.703 235.397C215.281 234.015 214.674 232.733 213.848 231.587C213.006 230.44 211.96 229.429 211 228.434C210.022 227.439 209.145 226.445 208.454 225.602C207.763 224.742 207.24 224.017 206.988 223.663C206.735 223.292 206.735 223.258 206.465 220.932C206.212 218.622 205.69 213.986 205.032 210.782C204.375 207.579 203.566 205.775 203.346 202.555C203.11 199.318 203.481 194.648 203.431 190.113C203.38 185.578 202.942 181.178 199.975 177.418C197.008 173.641 191.53 170.506 188.984 168.971C186.422 167.454 186.776 167.538 187.147 167.623" stroke="black" stroke-width="1.6933"/>
</g>
<g id="armLBear5">
<path id="Vector_11" fill-rule="evenodd" clip-rule="evenodd" d="M137.233 261.023C136.491 263.468 137.317 264.682 137.924 265.997C138.547 267.329 138.952 268.762 139.188 269.723C139.424 270.684 139.491 271.189 139.845 271.425C140.183 271.678 140.806 271.678 141.683 271.982C142.543 272.285 143.638 272.892 144.633 273.668C145.644 274.46 146.538 275.421 147.381 276.517C148.223 277.596 148.999 278.81 149.505 279.939C150.01 281.086 150.246 282.131 150.331 283.21C150.415 284.289 150.381 285.385 150.28 286.548C150.179 287.728 150.01 288.959 149.707 290.139C149.403 291.336 148.965 292.483 148.257 293.612C147.549 294.742 146.588 295.871 145.611 296.816C144.633 297.76 143.638 298.518 142.661 299.226C141.666 299.935 140.688 300.575 139.609 301.047C138.547 301.502 137.401 301.772 136.255 302.042C135.092 302.312 133.929 302.581 132.749 302.716C131.569 302.851 130.389 302.851 129.36 302.784C128.332 302.733 127.489 302.615 126.511 302.919C125.534 303.205 124.438 303.896 123.292 304.487C122.145 305.077 120.949 305.532 119.549 305.936C118.15 306.341 116.532 306.678 115.133 306.914C113.734 307.133 112.537 307.251 111.121 307.319C109.722 307.403 108.07 307.454 106.468 307.369C104.867 307.285 103.299 307.083 101.563 306.763C99.8266 306.442 97.9049 305.987 96 305.346C94.0952 304.706 92.1903 303.88 90.4877 302.986C88.7852 302.076 87.268 301.115 86.0543 300.204C84.8237 299.294 83.8797 298.451 83.02 297.625C82.1603 296.782 81.368 295.973 80.5926 295.146C79.834 294.304 79.0586 293.427 78.418 292.432C77.7606 291.454 77.2212 290.342 76.8335 289.111C76.4626 287.88 76.2435 286.515 76.176 285.385C76.1086 284.272 76.1929 283.396 76.2435 282.957C76.2772 282.519 76.2772 282.519 75.6703 282.114C75.0635 281.726 73.8497 280.951 72.8552 280.125C71.8437 279.299 71.0346 278.456 70.2255 277.326C69.4163 276.18 68.6072 274.78 68.034 273.398C67.4609 272.032 67.1237 270.717 66.9046 269.318C66.6686 267.936 66.5675 266.469 66.6349 264.867C66.7023 263.266 66.9383 261.512 67.4777 259.911C68.0172 258.326 68.86 256.893 69.804 255.746C70.7649 254.617 71.8437 253.791 72.2483 253.032C72.6529 252.256 72.3832 251.565 72.0123 250.891C71.6583 250.2 71.2032 249.525 70.7312 248.632C70.2592 247.738 69.7703 246.609 69.332 245.277C68.8769 243.962 68.4723 242.427 68.2532 240.843C68.0509 239.241 68.0172 237.589 68.0846 235.886C68.152 234.2 68.3206 232.464 68.7589 230.828C69.1972 229.193 69.9052 227.642 70.8323 226.057C71.7763 224.472 72.9226 222.871 74.1195 221.37C75.3332 219.887 76.6143 218.504 77.8449 217.374C79.0586 216.245 80.2217 215.351 80.8286 214.913C81.4186 214.492 81.4355 214.542 81.486 213.649C81.5366 212.738 81.604 210.9 81.604 209.012C81.6209 207.141 81.5703 205.202 81.6715 203.213C81.7726 201.206 82.0255 199.15 82.6997 197.126C83.374 195.103 84.4697 193.131 85.7003 191.226C86.914 189.321 88.2626 187.466 89.2572 186.033C90.2517 184.583 90.9092 183.521 91.6003 181.498C92.2746 179.492 92.9995 176.508 94.2806 173.945C95.5786 171.399 97.4329 169.292 100.063 168.988C102.692 168.668 106.081 170.152 107.766 170.893C109.452 171.635 109.418 171.635 114.239 171.703C119.044 171.787 128.703 171.939 134.367 174.4C140.048 176.862 141.75 181.616 143.065 190.332C144.363 199.032 145.257 211.693 146.015 219.954C146.791 228.198 147.414 232.059 146.824 236.56C146.251 241.045 144.447 246.153 142.391 250.554C140.317 254.937 137.991 258.595 137.233 261.023Z" fill="white"/>
<path id="Vector_12" fill-rule="evenodd" clip-rule="evenodd" d="M139.087 269.318C139.121 269.453 139.154 269.588 139.188 269.723C139.424 270.684 139.491 271.189 139.845 271.425C140.183 271.678 140.806 271.678 141.683 271.982C142.543 272.285 143.638 272.892 144.633 273.668C145.644 274.46 146.538 275.421 147.381 276.517C148.223 277.596 148.999 278.81 149.505 279.939C150.01 281.086 150.246 282.131 150.331 283.21C150.415 284.289 150.381 285.385 150.28 286.548C150.179 287.728 150.01 288.959 149.707 290.139C149.403 291.336 148.965 292.483 148.257 293.612C147.549 294.742 146.588 295.871 145.611 296.816C144.633 297.76 143.638 298.518 142.661 299.226C141.666 299.934 140.688 300.575 139.609 301.047C138.547 301.502 137.401 301.772 136.255 302.042C135.092 302.312 133.929 302.581 132.749 302.716C131.771 302.817 130.776 302.851 129.883 302.817C129.394 301.84 128.989 300.845 128.652 299.951C127.809 297.793 127.321 296.225 127.051 294.303C126.781 292.365 126.731 290.089 127.034 288.015C127.321 285.958 127.944 284.104 128.72 282.3C129.478 280.479 130.372 278.675 131.569 276.955C132.749 275.219 134.232 273.567 135.513 272.218C136.693 270.97 137.721 269.976 139.087 269.318Z" fill="#94685B"/>
<path id="Vector_13" d="M93.3872 247.232C94.6177 246.996 95.8483 246.743 97.1632 246.659C98.4949 246.592 99.9109 246.676 101.394 246.895C102.878 247.097 104.412 247.435 105.76 247.806C107.109 248.176 108.255 248.581 109.385 249.137C110.514 249.711 111.643 250.419 112.587 251.228C113.531 252.037 114.29 252.931 114.745 253.47C115.183 254.01 115.318 254.195 115.386 254.28C115.453 254.381 115.453 254.381 115.891 254.28C116.33 254.195 117.206 254.01 118.167 253.925C119.111 253.841 120.156 253.841 121.353 253.942C122.55 254.06 123.915 254.28 125.23 254.634C126.545 254.971 127.793 255.443 128.939 256.067C130.085 256.69 131.113 257.449 132.226 258.494C133.322 259.556 134.485 260.905 135.479 262.187C136.491 263.468 137.317 264.682 137.924 265.997C138.547 267.329 138.952 268.762 139.188 269.723C139.424 270.684 139.491 271.189 139.845 271.425C140.183 271.678 140.806 271.678 141.683 271.982C142.543 272.285 143.638 272.892 144.633 273.668C145.644 274.46 146.538 275.421 147.381 276.517C148.223 277.596 148.999 278.81 149.505 279.939C150.01 281.086 150.246 282.131 150.331 283.21C150.415 284.289 150.381 285.385 150.28 286.548C150.179 287.728 150.01 288.959 149.707 290.139C149.403 291.336 148.965 292.483 148.257 293.612C147.549 294.742 146.588 295.871 145.611 296.816C144.633 297.76 143.638 298.518 142.661 299.226C141.666 299.935 140.688 300.575 139.609 301.047C138.547 301.502 137.401 301.772 136.255 302.042C135.092 302.312 133.929 302.581 132.749 302.716C131.569 302.851 130.389 302.851 129.36 302.784C128.332 302.733 127.489 302.615 126.511 302.919C125.534 303.205 124.438 303.896 123.292 304.487C122.145 305.077 120.949 305.532 119.549 305.936C118.15 306.341 116.532 306.678 115.133 306.914C113.734 307.133 112.537 307.251 111.121 307.319C109.722 307.403 108.07 307.454 106.468 307.369C104.867 307.285 103.299 307.083 101.563 306.763C99.8266 306.442 97.9049 305.987 96 305.346C94.0952 304.706 92.1903 303.88 90.4877 302.986C88.7852 302.076 87.268 301.115 86.0543 300.204C84.8237 299.294 83.8797 298.451 83.02 297.625C82.1603 296.782 81.368 295.973 80.5926 295.146C79.834 294.304 79.0586 293.427 78.418 292.432C77.7606 291.454 77.2212 290.342 76.8335 289.111C76.4626 287.88 76.2435 286.515 76.176 285.385C76.1086 284.272 76.1929 283.396 76.2435 282.957C76.2772 282.519 76.2772 282.519 75.6703 282.114C75.0635 281.726 73.8497 280.951 72.8552 280.125C71.8437 279.299 71.0346 278.456 70.2255 277.326C69.4163 276.18 68.6072 274.78 68.034 273.398C67.4609 272.032 67.1237 270.717 66.9046 269.318C66.6686 267.936 66.5675 266.469 66.6349 264.867C66.7023 263.266 66.9383 261.512 67.4777 259.911C68.0172 258.326 68.86 256.893 69.804 255.746C70.7649 254.617 71.8437 253.791 72.2483 253.032C72.6529 252.256 72.3832 251.565 72.0123 250.891C71.6583 250.2 71.2032 249.525 70.7312 248.632C70.2592 247.738 69.7703 246.609 69.332 245.277C68.8769 243.962 68.4723 242.427 68.2532 240.843C68.0509 239.241 68.0172 237.589 68.0846 235.886C68.152 234.2 68.3206 232.464 68.7589 230.828C69.1972 229.193 69.9052 227.642 70.8323 226.057C71.7763 224.472 72.9226 222.871 74.1195 221.37C75.3332 219.887 76.6143 218.504 77.8449 217.374C79.0586 216.245 80.2217 215.351 80.8286 214.913C81.4186 214.492 81.4355 214.542 81.486 213.649C81.5366 212.738 81.604 210.9 81.604 209.012C81.6209 207.141 81.5703 205.202 81.6715 203.213C81.7726 201.206 82.0255 199.15 82.6997 197.126C83.374 195.103 84.4697 193.131 85.7003 191.226C86.914 189.321 88.2626 187.466 89.2572 186.033C90.2517 184.583 90.9092 183.521 91.6003 181.498C92.2746 179.492 92.9995 176.508 94.2806 173.945C95.5786 171.399 97.4329 169.292 100.063 168.988C102.692 168.668 106.081 170.152 107.766 170.893C109.452 171.635 109.418 171.635 109.401 171.635" stroke="black" stroke-width="1.6933"/>
</g>
<g id="headBear5">
<g id="cravat">
<path id="Vector_14" fill-rule="evenodd" clip-rule="evenodd" d="M101.428 228.013C98.242 227.962 96.6406 227.861 95.41 227.507C94.1794 227.17 93.3197 226.58 92.8983 224.826C92.4769 223.073 92.4769 220.156 92.4769 215.857C92.4769 211.541 92.4769 205.843 92.4432 200.886C92.4263 195.929 92.3757 191.715 92.3589 188.596C92.342 185.477 92.342 183.454 92.8309 181.481C93.3197 179.492 94.3143 177.57 105.187 179.492C116.077 181.43 136.845 187.213 154.764 189.304C172.7 191.394 187.787 189.776 194.867 189.59C201.964 189.422 201.054 190.669 199.334 193.114C197.598 195.559 195.036 199.2 192.844 201.864C190.636 204.528 188.799 206.247 186.675 207.967C184.534 209.703 182.106 211.44 179.241 213.227C176.375 214.997 173.054 216.784 169.801 218.285C166.547 219.802 163.361 220.999 160.209 222.044C157.073 223.073 153.972 223.933 150.668 224.691C147.381 225.45 143.874 226.124 140.081 226.613C136.305 227.119 132.226 227.439 127.86 227.642C123.477 227.844 118.808 227.928 114.105 227.979C109.385 228.03 104.614 228.063 101.428 228.013Z" fill="#ED5408" stroke="black" stroke-width="1.6933"/>
<path id="Vector_15" fill-rule="evenodd" clip-rule="evenodd" d="M211.37 222.382C209.651 222.618 206.751 222.483 204.324 221.808C201.88 221.134 199.907 219.937 198.34 218.588C196.772 217.24 195.592 215.756 194.682 214.154C193.755 212.57 193.08 210.867 192.625 209.231C192.17 207.579 191.917 206.011 192.035 204.511C192.17 203.01 192.659 201.577 193.434 200.515C194.21 199.47 195.255 198.796 196.536 198.323C197.8 197.868 199.284 197.615 200.75 197.7C202.217 197.784 203.683 198.189 205.049 198.762C206.431 199.352 207.746 200.111 208.808 201.038C209.887 201.948 210.747 203.027 211.573 204.292C212.382 205.539 213.174 206.972 213.713 208.456C214.27 209.923 214.59 211.423 214.759 212.89C214.927 214.34 214.944 215.756 214.826 217.071C214.725 218.403 214.472 219.634 214.067 220.561C213.663 221.505 213.107 222.129 211.37 222.382Z" fill="#ED5408" stroke="black" stroke-width="1.6933"/>
</g>
<g id="Group">
<g id="earRBear5">
<path id="Vector_16" fill-rule="evenodd" clip-rule="evenodd" d="M215.601 54.3955C221.434 55.0193 230.115 55.053 234.717 55.1373C239.319 55.2216 239.859 55.3396 240.196 55.8623C240.533 56.3681 240.668 57.2785 240.129 59.3859C239.589 61.4933 238.392 64.7809 236.74 67.765C235.088 70.7491 233.015 73.4297 230.756 75.908C228.497 78.4032 226.087 80.6792 223.659 82.4157C221.232 84.1353 218.804 85.3155 215.972 84.6411C213.123 83.9836 209.853 81.5053 208.471 77.8805C207.089 74.2389 207.611 69.4677 207.139 64.8652C206.667 60.2626 205.217 55.8454 205.993 54.2269C206.768 52.6084 209.752 53.7886 215.601 54.3955Z" fill="white" stroke="black" stroke-width="1.6933"/>
</g>
<g id="earLBear5">
<path id="sd" fill-rule="evenodd" clip-rule="evenodd" d="M88.7682 61.5944C89.0885 55.7274 88.9874 46.91 88.9874 42.2231C88.9874 37.5362 89.0885 36.9967 89.5774 36.6258C90.0831 36.2718 90.9765 36.0863 93.1174 36.5247C95.2414 36.9461 98.5791 37.9914 101.529 39.1378C104.462 40.3011 107.008 41.5656 109.688 43.2347C112.385 44.9206 115.234 46.9943 117.291 49.3714C119.364 51.7486 120.628 54.4124 120.005 57.7505C119.398 61.0718 116.92 65.0506 113.262 66.9051C109.621 68.7596 104.833 68.4899 100.265 69.198C95.6965 69.8892 91.3474 71.5752 89.5437 70.9682C87.7231 70.3444 88.448 67.4615 88.7682 61.5944Z" fill="white" stroke="black" stroke-width="1.6933"/>
</g>
<path id="Vector_17" fill-rule="evenodd" clip-rule="evenodd" d="M94.6009 183.959C93.2186 183.234 91.4992 183.336 89.6955 183.268C87.8749 183.201 85.9363 182.965 84.1157 182.627C82.312 182.29 80.5926 181.852 79.0755 181.296C77.5415 180.722 76.2097 180.048 74.8612 179.306C73.5126 178.547 72.1472 177.721 70.9335 176.609C69.7029 175.479 68.6072 174.063 67.7306 172.664C66.854 171.264 66.2135 169.865 65.7246 168.55C65.2526 167.218 64.9323 165.954 64.7132 164.773C64.494 163.576 64.3592 162.464 64.3929 161.199C64.4435 159.952 64.6626 158.552 65.1009 157.204C65.5223 155.855 66.146 154.557 66.8709 153.41C67.5789 152.264 68.388 151.286 69.2309 150.409C70.0569 149.533 70.8997 148.774 71.6415 148.167C72.3832 147.56 73.0237 147.105 73.3272 146.886C73.6475 146.667 73.6475 146.667 73.0912 146.329C72.518 145.992 71.4055 145.318 70.2592 144.66C69.1129 144.02 67.9497 143.379 66.6855 142.502C65.438 141.626 64.0895 140.513 62.9263 139.35C61.7463 138.169 60.7686 136.972 59.8583 135.775C58.9649 134.595 58.1557 133.415 57.4815 132.201C56.8072 131.004 56.2846 129.74 55.7115 128.442C55.1552 127.143 54.5652 125.795 54.1437 124.193C53.7223 122.608 53.4526 120.771 53.3346 118.95C53.2166 117.129 53.2672 115.325 53.5369 113.757C53.8066 112.189 54.2955 110.84 54.8686 109.475C55.4249 108.109 56.0486 106.71 56.8072 105.597C57.5826 104.468 58.476 103.625 59.4706 102.697C60.4483 101.77 61.5272 100.792 62.8757 99.9157C64.2243 99.039 65.8426 98.2803 67.3766 97.6734C68.9275 97.0664 70.4109 96.6112 72.0292 96.3921C73.6475 96.1729 75.4006 96.1729 76.2772 96.1729C77.1369 96.1729 77.1369 96.1729 76.8672 95.7177C76.5975 95.2625 76.0749 94.3689 75.5355 93.3237C74.996 92.2615 74.4566 91.0477 73.9509 89.8675C73.462 88.6705 73.0237 87.5072 72.636 86.0742C72.2483 84.6243 71.9449 82.9215 71.8775 81.067C71.81 79.1956 71.9786 77.1893 72.3157 75.1999C72.6529 73.2274 73.1417 71.3054 74.052 69.4677C74.9455 67.6132 76.2435 65.8767 77.4572 64.528C78.6709 63.1792 79.8003 62.2351 81.1657 61.2235C82.5312 60.212 84.1495 59.133 86.0037 58.3743C87.8749 57.6157 89.982 57.1605 92.0386 56.8738C94.112 56.5872 96.1349 56.4524 98.1072 56.4524C100.079 56.4524 102.001 56.5872 103.906 57.0087C105.828 57.4302 107.699 58.1551 108.643 58.5092C109.587 58.8632 109.587 58.8632 109.688 58.2226C109.772 57.5651 109.958 56.2669 110.312 54.7159C110.666 53.1648 111.205 51.3777 111.896 49.5063C112.604 47.6518 113.447 45.713 114.644 43.8585C115.824 41.9871 117.358 40.2 118.909 38.6658C120.443 37.1484 122.027 35.884 123.797 34.8387C125.567 33.7766 127.54 32.9336 129.579 32.3435C131.619 31.7535 133.726 31.45 135.867 31.4163C137.991 31.3994 140.149 31.6692 142.121 32.0232C144.093 32.3941 145.897 32.8325 147.735 33.6754C149.572 34.5015 151.46 35.7154 152.927 36.9461C154.376 38.1769 155.405 39.4413 156.45 40.7563C157.478 42.0882 158.506 43.4707 159.299 44.7689C160.074 46.0839 160.613 47.2978 161.288 47.2978C161.962 47.2978 162.771 46.0839 163.951 44.6677C165.148 43.2515 166.716 41.633 168.469 40.2506C170.222 38.8512 172.144 37.6879 174.15 36.6932C176.139 35.7154 178.212 34.9062 180.387 34.2992C182.561 33.6923 184.854 33.2877 187.298 33.1697C189.743 33.0685 192.339 33.2371 194.766 33.6417C197.193 34.0463 199.435 34.6701 201.526 35.53C203.616 36.3898 205.538 37.4519 207.358 38.8344C209.179 40.2 210.881 41.8522 212.365 43.7404C213.848 45.6287 215.096 47.7361 215.989 49.5738C216.899 51.4114 217.439 52.9962 217.827 54.6653C218.231 56.3512 218.501 58.1551 218.602 59.8748C218.686 61.6113 218.602 63.2635 218.467 65.0843C218.332 66.9051 218.147 68.8777 217.725 70.4793C217.304 72.0641 216.63 73.278 216.293 73.8849C215.955 74.4918 215.955 74.4918 216.63 74.1041C217.304 73.7332 218.636 72.9576 220.321 72.4181C222.007 71.8786 224.03 71.5752 226.103 71.5077C228.177 71.4403 230.318 71.6089 232.324 72.1821C234.347 72.7385 236.251 73.6826 238.106 74.9639C239.977 76.2452 241.781 77.8468 243.163 79.4822C244.545 81.1175 245.506 82.7697 246.383 84.6917C247.242 86.6305 248.001 88.8391 248.422 91.0308C248.827 93.2225 248.894 95.3974 248.793 97.5048C248.692 99.5953 248.422 101.618 247.95 103.49C247.461 105.344 246.77 107.047 245.826 108.699C244.865 110.352 243.669 111.936 242.674 113.184C241.663 114.432 240.853 115.325 240.432 115.78C240.011 116.235 239.96 116.235 240.752 116.809C241.528 117.399 243.146 118.562 244.781 119.978C246.416 121.394 248.085 123.047 249.602 124.8C251.136 126.553 252.519 128.391 253.648 130.279C254.761 132.168 255.62 134.089 256.092 135.86C256.564 137.647 256.649 139.248 256.699 140.985C256.75 142.705 256.75 144.559 256.497 146.262C256.244 147.965 255.755 149.533 254.963 151.202C254.187 152.854 253.109 154.607 251.979 156.158C250.867 157.709 249.703 159.041 248.389 160.238C247.091 161.435 245.658 162.464 244.073 163.239C242.472 164.032 240.719 164.571 239.016 164.858C237.313 165.144 235.645 165.195 233.976 165.195C232.29 165.195 230.587 165.144 229.711 165.127C228.834 165.111 228.784 165.111 229.306 165.482C229.812 165.869 230.891 166.628 231.902 167.707C232.914 168.786 233.841 170.185 234.498 171.821C235.139 173.456 235.51 175.344 235.661 177.047C235.813 178.75 235.779 180.284 235.476 181.987C235.189 183.69 234.65 185.578 233.891 187.517C233.133 189.439 232.138 191.411 230.773 193.164C229.407 194.918 227.654 196.435 225.749 197.548C223.828 198.644 221.771 199.318 219.816 199.756C217.877 200.212 216.04 200.431 214.421 200.498C212.803 200.566 211.421 200.481 210.224 200.347C209.044 200.212 208.049 200.026 206.617 199.504C205.184 198.998 203.296 198.138 202.352 197.717C201.408 197.295 201.408 197.295 200.649 197.464C199.891 197.649 198.357 198.003 196.57 198.543C194.766 199.082 192.709 199.807 190.501 200.448C188.31 201.105 185.967 201.695 183.286 202.218C180.589 202.757 177.538 203.263 174.234 203.567C170.93 203.887 167.39 204.022 163.53 204.089C159.669 204.157 155.506 204.157 151.46 203.954C147.414 203.752 143.52 203.348 140.014 202.993C136.525 202.623 133.423 202.319 129.984 201.594C126.562 200.886 122.786 199.756 119.33 198.61C115.875 197.464 112.739 196.3 110.093 195.12C107.429 193.923 105.288 192.709 103.383 191.479C101.462 190.248 99.8097 188.983 98.4443 187.601C97.062 186.202 96 184.684 94.6009 183.959Z" fill="white" stroke="black" stroke-width="1.6933"/>
<g id="faceBear5">
<g id="Group_2">
<g id="eyeRBear5">
<path id="Vector_18" d="M174.015 131.695C177.804 131.695 180.876 128.623 180.876 124.834C180.876 121.044 177.804 117.972 174.015 117.972C170.226 117.972 167.154 121.044 167.154 124.834C167.154 128.623 170.226 131.695 174.015 131.695Z" fill="black"/>
</g>
<g id="eyeLBear5">
<path id="Vector_19" d="M137.57 126.553C140.819 126.553 143.453 123.919 143.453 120.669C143.453 117.42 140.819 114.786 137.57 114.786C134.32 114.786 131.687 117.42 131.687 120.669C131.687 123.919 134.32 126.553 137.57 126.553Z" fill="black"/>
</g>
<g id="eyebrowLBear5">
<path id="Vector_20" fill-rule="evenodd" clip-rule="evenodd" d="M132.917 99.3424C132.513 99.5616 132.142 99.7976 131.788 99.9157C131.417 100.017 131.046 100 130.759 99.8651C130.456 99.7302 130.237 99.4942 130.153 99.157C130.068 98.8029 130.136 98.3309 130.321 97.9768C130.523 97.6059 130.861 97.3362 131.265 97.1002C131.67 96.8473 132.142 96.6112 132.664 96.3921C133.17 96.156 133.693 95.9537 134.35 95.7851C135.024 95.5997 135.8 95.4648 136.491 95.3805C137.182 95.3131 137.789 95.2962 138.413 95.3636C139.019 95.4479 139.66 95.5828 140.25 95.7514C140.84 95.9031 141.379 96.0886 141.835 96.2909C142.273 96.4932 142.627 96.7124 142.88 97.0496C143.116 97.3699 143.267 97.8082 143.234 98.1623C143.2 98.5332 142.981 98.8198 142.711 98.9715C142.441 99.1401 142.087 99.1907 141.75 99.1233C141.413 99.0558 141.076 98.8704 140.621 98.6849C140.166 98.4995 139.576 98.314 139.003 98.196C138.446 98.0611 137.89 98.0106 137.351 98.0106C136.811 98.0106 136.289 98.0611 135.766 98.196C135.243 98.314 134.738 98.4995 134.249 98.7018C133.76 98.9041 133.322 99.1233 132.917 99.3424Z" fill="black"/>
</g>
<g id="eyebrowRBear5">
<path id="Vector_21" fill-rule="evenodd" clip-rule="evenodd" d="M177.133 103.49C176.695 103.625 176.291 103.76 175.903 103.793C175.532 103.81 175.178 103.709 174.908 103.507C174.655 103.321 174.487 103.035 174.487 102.681C174.487 102.327 174.655 101.888 174.925 101.568C175.195 101.264 175.583 101.079 176.038 100.927C176.493 100.775 177.015 100.657 177.555 100.556C178.094 100.455 178.667 100.371 179.342 100.337C180.033 100.32 180.825 100.354 181.516 100.438C182.207 100.523 182.797 100.641 183.387 100.86C183.961 101.062 184.551 101.349 185.09 101.635C185.629 101.939 186.118 102.225 186.506 102.529C186.894 102.815 187.197 103.119 187.366 103.49C187.534 103.878 187.568 104.333 187.45 104.67C187.332 105.007 187.079 105.243 186.759 105.344C186.455 105.446 186.118 105.412 185.798 105.26C185.495 105.125 185.191 104.872 184.787 104.586C184.382 104.299 183.859 103.979 183.337 103.743C182.814 103.49 182.292 103.304 181.769 103.186C181.247 103.068 180.707 103.001 180.185 103.001C179.645 103.018 179.089 103.085 178.583 103.17C178.061 103.254 177.572 103.355 177.133 103.49Z" fill="black"/>
</g>
<g id="mouth">
<path id="Vector_22" fill-rule="evenodd" clip-rule="evenodd" d="M162.417 134.309C162.35 135.253 161.608 136.079 160.445 136.635C159.063 137.31 157.057 137.276 154.916 137.141C150.685 136.888 147.92 135.219 148.089 133.145C148.24 131.341 149.606 129.841 153.989 129.925C156.871 129.993 162.754 130.313 162.417 134.309Z" fill="black"/>
<path id="Vector_23" fill-rule="evenodd" clip-rule="evenodd" d="M146.352 147.83C145.965 147.729 145.965 147.712 145.931 148.285C145.897 148.858 145.83 150.005 145.762 151.185C145.712 152.382 145.661 153.579 145.712 154.742C145.762 155.889 145.914 157.001 146.15 158.047C146.403 159.109 146.757 160.12 147.195 160.896C147.617 161.671 148.156 162.228 148.729 162.733C149.319 163.239 149.96 163.711 150.752 164.015C151.544 164.318 152.505 164.453 153.618 164.133C154.73 163.812 156.011 163.02 156.989 162.245C157.95 161.452 158.624 160.66 159.214 159.8C159.804 158.923 160.31 157.979 160.765 156.917C161.237 155.872 161.642 154.725 162.013 153.697C162.383 152.668 162.721 151.775 162.839 151.337C162.957 150.915 162.839 150.966 162.485 150.932C162.147 150.881 161.591 150.746 160.934 150.443C160.276 150.14 159.518 149.667 158.894 149.246C158.27 148.808 157.765 148.403 157.242 147.948C156.703 147.509 156.146 147.004 155.725 146.599C155.32 146.211 155.034 145.908 154.899 145.807C154.764 145.706 154.781 145.807 154.494 146.009C154.208 146.211 153.635 146.515 153.011 146.869C152.387 147.206 151.713 147.577 150.921 147.83C150.128 148.083 149.201 148.218 148.358 148.184C147.515 148.15 146.74 147.931 146.352 147.83Z" fill="#FF0000"/>
<path id="Vector_24" d="M137.384 141.777C137.839 142.452 138.311 143.126 138.851 143.817C139.373 144.525 139.997 145.25 140.789 145.925C141.582 146.599 142.559 147.206 143.891 147.56C145.24 147.914 146.925 148.032 148.156 148.015C149.403 147.998 150.162 147.847 150.971 147.627C151.78 147.391 152.606 147.071 153.247 146.734C153.904 146.414 154.359 146.06 154.579 145.891C154.815 145.706 154.798 145.706 155.101 145.992C155.388 146.279 155.995 146.852 156.719 147.476C157.427 148.1 158.27 148.774 159.079 149.28C159.872 149.785 160.664 150.123 161.456 150.359C162.249 150.595 163.041 150.713 164.103 150.696C165.165 150.696 166.497 150.544 167.778 150.072C169.059 149.6 170.289 148.791 171.065 148.1C171.84 147.408 172.177 146.835 172.515 146.262" stroke="black" stroke-width="1.6933" stroke-linecap="round" stroke-linejoin="round"/>
<path id="Vector_25" d="M154.798 145.84C154.798 142.907 154.815 139.99 154.815 137.074" stroke="black" stroke-width="1.6933" stroke-linecap="round" stroke-linejoin="round"/>
<path id="Vector_26" d="M162.889 151.286C162.518 152.314 161.237 155.872 160.765 156.917C160.31 157.979 159.804 158.923 159.214 159.8C158.624 160.66 157.95 161.452 156.989 162.245C156.011 163.02 154.73 163.812 153.618 164.133C152.505 164.453 151.544 164.318 150.752 164.015C149.96 163.711 149.319 163.239 148.729 162.733C148.156 162.228 147.617 161.671 147.195 160.896C146.757 160.12 146.403 159.109 146.15 158.047C145.914 157.001 145.762 155.889 145.712 154.742C145.661 153.579 145.712 152.382 145.762 151.185C145.83 150.005 145.897 148.858 145.931 148.285" stroke="black" stroke-width="1.6933" stroke-linecap="round" stroke-linejoin="round"/>
</g>
</g>
</g>
</g>
</g>
</g>
</svg>
