<svg width="309" height="394" viewBox="0 0 309 394" fill="none" xmlns="http://www.w3.org/2000/svg">
<g id="bear 7">
<rect width="309" height="394" fill="white"/>
<g id="armRBear7">
<path id="Vector" fill-rule="evenodd" clip-rule="evenodd" d="M189.946 264.976C197.76 266.98 206.513 266.637 211.368 266.384C216.223 266.132 217.197 265.951 219.255 265.644C221.312 265.319 224.471 264.85 228.134 263.947C231.798 263.045 235.967 261.709 239.45 260.229C242.951 258.731 245.767 257.088 248.456 255.32C251.145 253.551 253.69 251.655 255.747 249.598C257.823 247.522 259.393 245.302 260.548 243.208C261.703 241.096 262.407 239.147 262.695 236.999C262.966 234.833 262.822 232.468 262.479 230.302C262.154 228.118 261.667 226.133 260.909 224.093C260.151 222.036 259.122 219.924 257.714 218.028C256.325 216.151 254.556 214.473 252.679 213.047C250.802 211.603 248.817 210.429 246.579 209.509C244.341 208.606 241.869 207.939 239.252 207.523C236.653 207.108 233.91 206.928 230.859 207.036C227.791 207.144 224.416 207.541 219.959 208.498C215.501 209.437 209.978 210.935 207.163 211.675C204.329 212.415 204.203 212.415 197.201 214.743C190.18 217.054 176.283 221.693 170.31 228.66C164.354 235.645 166.321 244.941 170.761 251.764C175.201 258.587 182.113 262.955 189.946 264.976Z" fill="#CDADF0" stroke="black" stroke-width="1.6933" stroke-linecap="round" stroke-linejoin="round"/>
</g>
<g id="tailBear7">
<path id="Vector_2" d="M202.507 295.896C206.874 298.856 211.242 301.798 215.302 304.794C219.363 307.809 223.117 310.859 226.727 313.693C230.354 316.527 233.837 319.162 237.393 321.816C240.948 324.469 244.576 327.14 248.203 329.812" stroke="black" stroke-width="1.6933" stroke-linecap="round" stroke-linejoin="round"/>
<path id="Vector_3" fill-rule="evenodd" clip-rule="evenodd" d="M248.871 330.462C249.376 331.472 250.549 333.151 251.777 334.631C252.986 336.111 254.213 337.375 255.675 338.692C257.137 340.01 258.815 341.382 260.548 342.411C262.298 343.439 264.085 344.107 265.908 344.522C267.731 344.92 269.554 345.046 271.611 344.793C273.65 344.54 275.924 343.927 278.018 343.078C280.111 342.212 282.024 341.129 283.739 339.938C285.454 338.746 286.933 337.447 287.872 336.544C288.792 335.642 289.171 335.136 289.171 334.667C289.171 334.18 288.792 333.711 288.107 332.916C287.403 332.122 286.374 331.021 285.201 329.974C284.028 328.927 282.692 327.971 281.303 327.014C279.931 326.075 278.487 325.137 276.899 324.252C275.293 323.368 273.524 322.538 271.719 321.96C269.896 321.382 268.038 321.076 266.179 320.985C264.338 320.895 262.515 321.021 260.945 321.382C259.375 321.761 258.075 322.375 256.722 323.097C255.368 323.801 253.978 324.613 252.86 325.371C251.741 326.13 250.892 326.852 250.243 327.411C249.593 327.971 249.124 328.368 248.817 328.747C248.51 329.126 248.348 329.469 248.871 330.462Z" fill="#694EDD" stroke="black" stroke-width="1.6933"/>
</g>
<g id="bodyBear7">
<path id="Vector_4" fill-rule="evenodd" clip-rule="evenodd" d="M97.0003 240.952C93.6795 245.735 93.4269 251.457 93.6795 257.666C93.9142 263.857 94.6722 270.572 95.6648 276.402C96.6574 282.25 97.8846 287.214 99.4367 291.799C100.989 296.401 102.866 300.625 104.905 304.289C106.963 307.953 109.201 311.058 111.619 313.729C114.037 316.401 116.636 318.621 122.159 319.632C127.663 320.624 136.091 320.372 144.592 319.433C153.092 318.512 161.683 316.888 167.657 315.209C173.63 313.531 176.987 311.798 178.359 312.231C179.713 312.664 179.099 315.281 178.973 318.188C178.846 321.112 179.225 324.343 180.146 327.7C181.084 331.039 182.564 334.523 184.567 337.7C186.553 340.858 189.025 343.71 192.201 346.075C195.36 348.439 199.204 350.298 203.806 351.417C208.39 352.537 213.732 352.898 218.334 352.284C222.919 351.67 226.781 350.046 229.073 347.248C231.365 344.45 232.123 340.479 232.051 336.201C231.996 331.924 231.112 327.321 229.759 322.61C228.387 317.881 226.528 313.043 224.795 308.08C223.045 303.116 221.439 298.008 220.266 293.297C219.074 288.586 218.334 284.236 216.981 279.831C215.627 275.445 213.66 271.005 211.476 259.615C209.275 248.226 206.874 229.869 205.593 220.7C204.329 211.53 204.203 211.53 198.356 213.353C192.508 215.195 180.922 218.859 169.425 222.234C157.929 225.609 146.505 228.714 137.12 229.707C127.753 230.718 120.426 229.598 113.568 230.952C106.71 232.324 100.321 236.169 97.0003 240.952Z" fill="#CDADF0"/>
<path id="Vector_5" d="M213.714 266.691C213.841 267.07 213.841 267.088 213.48 266.005C213.101 264.922 212.361 262.72 212 261.619C211.621 260.518 211.621 260.518 212 261.565C212.379 262.63 213.119 264.742 214.111 267.973C215.104 271.185 216.349 275.536 217.342 279.886C218.334 284.236 219.074 288.586 220.266 293.297C221.439 298.008 223.045 303.116 224.795 308.08C226.528 313.043 228.387 317.881 229.759 322.61C231.112 327.321 231.996 331.924 232.051 336.201C232.123 340.479 231.365 344.45 229.073 347.248C226.781 350.046 222.919 351.67 218.334 352.284C213.732 352.898 208.39 352.537 203.806 351.417C199.204 350.298 195.36 348.439 192.201 346.075C189.025 343.71 186.553 340.858 184.567 337.7C182.564 334.523 181.084 331.039 180.146 327.7C179.225 324.343 178.846 321.112 178.973 318.188C179.099 315.281 179.713 312.664 178.359 312.231C176.987 311.798 173.63 313.531 167.657 315.209C161.683 316.888 153.092 318.512 144.592 319.433C136.091 320.372 127.663 320.624 122.159 319.632C116.636 318.621 114.037 316.401 111.619 313.729C109.201 311.058 106.963 307.953 104.905 304.289C102.866 300.625 100.989 296.401 99.4367 291.799C97.8846 287.214 96.6574 282.25 95.6648 276.402C94.6722 270.572 93.9142 263.857 93.6795 257.666C93.4269 251.457 93.6795 245.735 97.0003 240.952C100.321 236.169 106.71 232.324 113.568 230.952C120.426 229.598 127.753 230.718 137.12 229.707C146.505 228.714 157.929 225.609 169.425 222.234C180.922 218.859 192.508 215.195 198.356 213.353C204.203 211.53 204.329 211.53 207.163 210.772" stroke="black" stroke-width="1.6933" stroke-linecap="round" stroke-linejoin="round"/>
</g>
<g id="headBear7">
<g id="earLBear7">
<path id="Vector_6" fill-rule="evenodd" clip-rule="evenodd" d="M75.0544 130.811C71.0659 130.992 67.2217 131.118 63.8107 131.064C60.3997 131.028 57.4219 130.811 54.444 129.999C51.4662 129.187 48.4883 127.797 46.3045 125.92C44.1208 124.042 42.7672 121.678 41.8287 119.313C40.9083 116.967 40.403 114.602 40.1503 111.805C39.9157 109.007 39.9157 105.794 40.7098 102.743C41.5219 99.693 43.1282 96.8411 45.3661 94.6029C47.604 92.3828 50.4555 90.7583 53.7582 89.8197C57.0429 88.8992 60.7607 88.6465 65.5433 88.9533C70.3259 89.2782 76.1553 90.1446 80.7033 91.011C85.2333 91.8774 88.4638 92.7438 92.6147 94.4946C96.7657 96.2274 101.837 98.8266 105.573 101.372C109.291 103.917 111.655 106.408 112.467 109.693C113.297 112.996 112.539 117.093 110.428 120.252C108.316 123.411 104.851 125.649 100.754 127.147C96.6574 128.627 91.9289 129.385 87.5253 129.873C83.1217 130.378 79.0249 130.613 75.0544 130.811Z" fill="#9DD9F1" stroke="black" stroke-width="1.6933"/>
</g>
<g id="hairBear7">
<path id="Vector_7" fill-rule="evenodd" clip-rule="evenodd" d="M89.9437 115.649C88.4638 114.476 87.0922 113.555 85.8469 112.4C84.6016 111.245 83.4826 109.891 82.3637 108.447C81.2628 107.021 80.1438 105.541 79.0429 103.7C77.9601 101.877 76.9133 99.693 76.1914 97.5631C75.4875 95.4152 75.1085 93.3033 75.2349 90.8485C75.3612 88.3938 75.9748 85.6141 77.0396 83.1593C78.0864 80.7045 79.5843 78.5926 81.4974 76.6613C83.4285 74.748 85.7927 72.9972 88.2653 71.5171C90.7558 70.0189 93.3547 68.7735 96.0257 67.9432C98.6968 67.0948 101.44 66.6616 104.346 66.8782C107.269 67.0948 110.374 67.9793 113.135 69.2428C115.896 70.5243 118.315 72.203 120.173 73.8455C122.05 75.488 123.35 77.0945 124.559 77.5096C125.768 77.9067 126.887 77.0945 128.15 76.1739C129.432 75.2353 130.858 74.1885 132.698 73.1596C134.521 72.1308 136.759 71.138 139.232 70.3258C141.722 69.5316 144.447 68.8998 146.884 68.5027C149.302 68.1056 151.414 67.9071 153.201 67.9432C155.005 67.9793 156.503 68.2139 158.326 68.7554C160.167 69.2789 162.333 70.0911 164.101 71.0478C165.87 72.0044 167.242 73.1235 168.379 74.405C169.534 75.6685 170.472 77.0945 171.248 78.6287C172.024 80.1449 172.638 81.7514 173.143 83.5925C173.63 85.4155 174.009 87.4732 174.858 88.5201C175.724 89.5489 177.06 89.6031 178.539 89.7294C180.037 89.8377 181.68 90.0543 183.683 90.5236C185.668 91.011 188.032 91.751 190.325 92.834C192.635 93.9351 194.873 95.361 196.389 97.0036C197.905 98.6461 198.717 100.505 199.15 102.689C199.583 104.855 199.637 107.346 199.312 109.675C198.969 112.003 198.211 114.169 197.471 116.371C196.731 118.573 195.991 120.811 196.046 121.931C196.1 123.05 196.984 123.05 198.717 122.923C200.449 122.797 203.066 122.544 205.485 122.761C207.903 122.977 210.141 123.663 211.873 124.963C213.606 126.281 214.851 128.194 215.718 130.179C216.602 132.165 217.089 134.223 217.089 136.461C217.089 138.699 216.602 141.118 215.826 143.284C215.05 145.468 213.985 147.381 212.902 148.969C211.819 150.558 210.7 151.803 209.022 153.193C207.343 154.583 205.106 156.135 202.164 155.864C199.204 155.576 195.54 153.464 191.48 149.005C187.419 144.529 182.943 137.706 177.33 132.742C171.717 127.761 164.968 124.674 157.297 122.31C149.627 119.945 141.055 118.339 132.013 117.617C122.971 116.895 113.478 117.093 107.179 117.581C100.881 118.086 97.7763 118.88 95.4121 118.573C93.0479 118.266 91.4416 116.84 89.9437 115.649Z" fill="#6849D2" stroke="black" stroke-width="1.6933"/>
</g>
<path id="Vector_8" fill-rule="evenodd" clip-rule="evenodd" d="M117.936 267.377C121.238 266.601 124.397 265.915 127.663 265.121C130.912 264.308 134.269 263.37 138.149 262.233C142.029 261.078 146.433 259.706 150.836 258.28C155.258 256.854 159.662 255.374 165.094 253.37C170.526 251.385 176.987 248.912 182.997 246.511C189.025 244.129 194.62 241.836 199.421 239.851C204.239 237.847 208.264 236.187 211.801 234.526C215.339 232.884 218.389 231.277 220.663 229.689C222.919 228.1 224.416 226.548 225.102 225.375C225.77 224.202 225.644 223.389 225.247 222.577C224.85 221.783 224.164 220.971 222.756 219.671C221.366 218.353 219.255 216.566 217.36 214.816C215.465 213.083 213.786 211.404 212.776 210.159C211.747 208.913 211.368 208.119 211.242 207.036C211.133 205.935 211.242 204.581 211.657 202.524C212.054 200.484 212.74 197.74 213.299 194.762C213.859 191.784 214.292 188.553 214.508 185.322C214.725 182.091 214.725 178.878 214.671 175.665C214.599 172.47 214.472 169.312 214.165 166.424C213.859 163.536 213.353 160.918 212.74 158.409C212.126 155.901 211.368 153.482 210.375 150.865C209.383 148.265 208.138 145.468 206.874 142.959C205.593 140.432 204.293 138.194 202.994 136.118C201.695 134.042 200.377 132.111 198.807 130.252C197.219 128.392 195.36 126.587 193.465 124.855C191.57 123.104 189.639 121.443 187.69 119.855C185.74 118.266 183.755 116.786 181.788 115.378C179.839 113.989 177.908 112.689 175.056 110.938C172.205 109.205 168.415 107.039 165.311 105.379C162.206 103.736 159.788 102.617 156.954 101.66C154.139 100.704 150.909 99.8916 147.714 99.2959C144.502 98.7183 141.343 98.3393 138.023 98.1588C134.702 97.9602 131.219 97.9602 127.555 98.2129C123.891 98.4656 120.047 98.953 116.636 99.4945C113.225 100.018 110.247 100.577 106.926 101.444C103.606 102.31 99.9421 103.484 96.5491 104.639C93.1742 105.794 90.07 106.913 86.9297 108.339C83.7894 109.765 80.6311 111.498 77.7796 113.176C74.91 114.855 72.3653 116.461 69.983 118.014C67.5827 119.566 65.3628 121.064 63.3776 122.562C61.3743 124.042 59.6417 125.541 57.6565 127.436C55.6713 129.313 53.4334 131.623 51.2857 133.789C49.1561 135.973 47.0986 138.013 45.2036 140.089C43.3086 142.183 41.5761 144.276 39.9879 146.208C38.4177 148.139 36.992 149.872 35.5482 151.893C34.1224 153.915 32.6966 156.207 31.1806 158.626C29.6646 161.045 28.0404 163.59 26.6146 166.207C25.1888 168.806 23.9435 171.478 22.8968 174.438C21.832 177.38 20.9657 180.611 20.6228 184.022C20.2799 187.434 20.4604 191.044 20.7852 194.491C21.092 197.939 21.5252 201.224 22.3554 204.599C23.2036 207.993 24.4489 211.476 26.0551 214.942C27.6614 218.426 29.6646 221.891 31.5777 224.942C33.5088 227.992 35.3677 230.591 37.7319 234.129C40.0781 237.667 42.9477 242.143 47.0806 247.071C51.2135 252.016 56.6278 257.413 62.1864 261.457C67.7271 265.482 73.4301 268.153 78.1586 269.723C82.869 271.276 86.6049 271.727 91.3694 271.565C96.1521 271.42 101.981 270.662 106.602 269.832C111.24 269.02 114.651 268.153 117.936 267.377Z" fill="#9BDCF2" stroke="black" stroke-width="1.6933"/>
<g id="eyeBear7">
<path id="Vector_9" fill-rule="evenodd" clip-rule="evenodd" d="M163.181 129.439C176.626 129.439 187.527 141.515 187.527 156.406C187.527 171.297 176.626 183.373 163.181 183.373C149.735 183.373 138.835 169.655 138.835 156.406C138.835 143.175 149.735 129.439 163.181 129.439Z" fill="black"/>
<path id="Vector_10" fill-rule="evenodd" clip-rule="evenodd" d="M163.217 134.475C173.558 134.475 181.95 144.024 181.95 155.81C181.95 167.579 173.558 177.127 163.217 177.127C152.894 177.127 144.502 166.279 144.502 155.81C144.502 145.323 152.894 134.475 163.217 134.475Z" fill="white"/>
<path id="Vector_11" d="M163.217 168.951C170.473 168.951 176.356 163.068 176.356 155.81C176.356 148.553 170.473 142.67 163.217 142.67C155.961 142.67 150.078 148.553 150.078 155.81C150.078 163.068 155.961 168.951 163.217 168.951Z" fill="#090505"/>
</g>
<g id="bearRBear7">
<path id="Vector_12" fill-rule="evenodd" clip-rule="evenodd" d="M137.698 103.772C137.391 102.563 137.084 101.191 136.904 99.3681C136.723 97.527 136.651 95.2347 136.723 92.6896C136.777 90.1446 136.958 87.3469 137.337 84.6755C137.716 82.0041 138.275 79.459 138.889 76.8237C139.502 74.1885 140.188 71.4629 141.307 68.9359C142.426 66.427 143.978 64.1346 145.476 62.3658C146.956 60.5969 148.382 59.3514 150.241 58.4128C152.118 57.4923 154.41 56.8605 156.702 56.5898C158.994 56.301 161.304 56.3732 163.65 56.9508C166.014 57.5464 168.433 58.6655 170.328 59.911C172.223 61.1564 173.594 62.5102 174.713 64.261C175.832 65.9938 176.699 68.1056 177.402 70.3438C178.124 72.582 178.684 74.9285 178.991 77.3472C179.297 79.7839 179.37 82.2568 179.207 84.495C179.063 86.7332 178.684 88.7187 178.07 90.8666C177.439 92.9965 176.572 95.3069 175.489 97.7256C174.407 100.144 173.089 102.689 171.826 104.837C170.544 106.967 169.317 108.718 167.909 110.451C166.52 112.184 164.968 113.916 163.758 115.288C162.549 116.66 161.665 117.653 160.438 119.115C159.21 120.577 157.622 122.508 155.493 123.447C153.363 124.385 150.692 124.313 148.274 123.736C145.855 123.176 143.671 122.075 142.119 120.162C140.567 118.23 139.647 115.469 139.141 113.158C138.654 110.848 138.582 108.989 138.42 107.527C138.257 106.065 137.986 105 137.698 103.772Z" fill="#A0DAF2"/>
<path id="Vector_13" d="M137.716 103.935C137.391 102.563 137.084 101.191 136.904 99.3681C136.723 97.527 136.651 95.2347 136.723 92.6896C136.777 90.1446 136.958 87.3469 137.337 84.6755C137.716 82.0041 138.275 79.459 138.889 76.8237C139.502 74.1885 140.188 71.4629 141.307 68.9359C142.426 66.427 143.978 64.1346 145.476 62.3658C146.956 60.5969 148.382 59.3514 150.241 58.4128C152.118 57.4923 154.41 56.8605 156.702 56.5898C158.994 56.301 161.304 56.3732 163.65 56.9508C166.014 57.5464 168.433 58.6655 170.328 59.911C172.223 61.1564 173.594 62.5102 174.713 64.261C175.832 65.9938 176.699 68.1056 177.402 70.3438C178.124 72.582 178.684 74.9285 178.991 77.3472C179.297 79.7839 179.37 82.2568 179.207 84.495C179.063 86.7332 178.684 88.7187 178.07 90.8666C177.439 92.9965 176.572 95.3069 175.489 97.7256C174.407 100.144 173.089 102.689 171.826 104.837C170.544 106.967 169.317 108.718 167.909 110.451C166.52 112.184 164.968 113.916 163.758 115.288C162.549 116.66 161.665 117.653 160.799 118.645" stroke="black" stroke-width="1.6933" stroke-linecap="round" stroke-linejoin="round"/>
</g>
<g id="noseBear7">
<path id="Vector_14" fill-rule="evenodd" clip-rule="evenodd" d="M51.015 241.602C49.2463 240.862 47.6942 240.122 45.8714 238.912C44.0305 237.703 41.919 236.024 39.8254 234.129C37.7319 232.234 35.6564 230.122 33.8697 228.227C32.065 226.331 30.5309 224.653 29.1773 223.01C27.8418 221.368 26.6507 219.743 25.5317 217.974C24.4128 216.205 23.366 214.292 22.5178 212.234C21.6876 210.195 21.074 208.011 20.6047 205.466C20.1355 202.921 19.8287 200.015 19.8287 197.235C19.8287 194.473 20.1355 191.874 20.8935 189.455C21.6334 187.019 22.8065 184.798 24.4489 182.831C26.0912 180.882 28.2028 179.203 30.6211 178.246C33.0576 177.29 35.7828 177.037 38.508 177.344C41.2512 177.651 43.9764 178.517 46.8279 179.492C49.6794 180.448 52.6753 181.495 54.3718 181.568C56.0863 181.622 56.5195 180.701 56.9526 179.365C57.3858 178.03 57.8189 176.297 58.7574 174.42C59.6778 172.561 61.1036 170.575 62.764 168.86C64.4063 167.164 66.2652 165.738 68.3046 164.889C70.362 164.059 72.5999 163.806 75.289 164.113C77.9961 164.438 81.1545 165.305 84.4211 166.785C87.6877 168.283 91.0265 170.395 93.6795 172.416C96.3145 174.42 98.2275 176.351 99.7796 178.373C101.332 180.394 102.523 182.506 103.425 184.636C104.328 186.784 104.941 188.95 105.212 191.477C105.501 193.986 105.429 196.838 105.158 199.942C104.887 203.047 104.382 206.404 103.786 209.509C103.209 212.613 102.523 215.465 101.62 218.137C100.718 220.808 99.5991 223.299 97.9027 225.844C96.1881 228.389 93.8961 230.988 91.4416 233.281C88.9871 235.591 86.3702 237.577 83.7172 239.093C81.0462 240.609 78.303 241.674 75.0724 242.378C71.8419 243.1 68.1241 243.479 64.9838 243.659C61.8616 243.84 59.3169 243.84 57.0429 243.479C54.7869 243.1 52.7836 242.36 51.015 241.602Z" fill="#F148BF" stroke="black" stroke-width="1.6933"/>
<path id="Vector_15" d="M44.7524 203.697C45.9977 205.159 47.243 206.621 48.6327 208.209C50.0223 209.78 51.5744 211.494 52.928 213.011C54.2816 214.545 55.4366 215.862 56.5736 217.198" stroke="black" stroke-width="1.6933" stroke-linecap="round" stroke-linejoin="round"/>
<path id="Vector_16" d="M73.5204 212.18C73.0692 210.718 72.5999 209.256 72.2931 207.758C72.0044 206.242 71.878 204.69 71.86 203.065C71.8419 201.441 71.9502 199.726 71.9683 198.39C72.0044 197.054 71.9683 196.098 71.9502 195.141" stroke="black" stroke-width="1.6933" stroke-linecap="round" stroke-linejoin="round"/>
</g>
</g>
<g id="armLBear7">
<path id="Vector_17" fill-rule="evenodd" clip-rule="evenodd" d="M51.1413 285.409C53.6319 285.662 56.357 285.662 58.974 285.319C61.5728 284.976 64.0634 284.29 66.7525 283.117C69.4596 281.943 72.3833 280.265 75.271 278.496C78.1586 276.727 81.0101 274.85 83.609 272.972C86.2259 271.077 88.572 269.146 90.7558 266.817C92.9215 264.489 94.9068 261.763 96.4408 259.525C97.9568 257.287 99.0036 255.554 99.8157 253.569C100.628 251.565 101.187 249.345 101.44 247.197C101.675 245.049 101.62 243.01 101.368 241.042C101.115 239.093 100.682 237.234 99.8879 235.483C99.0758 233.714 97.8846 232.071 96.4047 230.627C94.9068 229.183 93.12 227.956 91.0265 226.855C88.951 225.736 86.5868 224.779 84.2587 224.111C81.9305 223.443 79.6385 223.082 76.823 223.046C73.9896 223.01 70.6327 223.317 67.6549 223.822C64.677 224.31 62.0781 224.996 59.5876 226.025C57.097 227.053 54.7508 228.407 52.3866 229.905C50.0223 231.385 47.6761 233.01 45.3119 234.725C42.9477 236.421 40.5834 238.226 38.6884 239.905C36.8115 241.584 35.3677 243.136 34.0682 244.959C32.7688 246.8 31.5957 248.912 30.8377 251.114C30.0978 253.316 29.791 255.608 29.7007 258.153C29.6105 260.698 29.7188 263.496 30.188 266.041C30.6572 268.586 31.4694 270.879 32.5522 273.081C33.6351 275.283 35.0067 277.395 36.992 279.236C38.9772 281.059 41.576 282.611 44.0125 283.64C46.4309 284.669 48.6688 285.156 51.1413 285.409Z" fill="#CDADEE" stroke="black" stroke-width="1.6933"/>
</g>
<g id="legLBear7">
<path id="Vector_18" fill-rule="evenodd" clip-rule="evenodd" d="M109.796 293.152C106.421 294.073 103.858 295.39 101.404 297.412C98.9494 299.434 96.6213 302.141 94.3654 305.354C92.1094 308.567 89.9437 312.303 88.6443 316.401C87.3448 320.498 86.8936 324.956 87.3629 328.368C87.8321 331.797 89.2037 334.144 90.8822 336.508C92.5606 338.873 94.5458 341.237 96.8379 343.06C99.1299 344.901 101.747 346.201 104.959 347.158C108.19 348.114 112.052 348.746 115.734 348.836C119.433 348.927 122.971 348.493 125.895 347.464C128.8 346.454 131.11 344.829 132.897 342.79C134.702 340.732 136.001 338.241 136.886 335.353C137.752 332.483 138.185 329.18 138.871 327.194C139.557 325.209 140.477 324.523 142.318 323.783C144.141 323.043 146.866 322.231 149.826 322.014C152.767 321.797 155.944 322.158 159.012 322.357C162.08 322.538 165.058 322.538 167.675 322.231C170.274 321.924 172.512 321.292 174.334 320.57C176.157 319.848 177.565 319.018 178.269 318.603C178.973 318.187 178.973 318.187 181.03 317.375C183.087 316.545 187.202 314.884 187.924 311.762C188.664 308.639 185.993 304.036 180.868 300.408C175.742 296.78 168.162 294.109 161.936 294.037C155.691 293.983 150.782 296.528 144.267 296.491C137.752 296.455 129.612 293.856 123.476 292.791C117.322 291.744 113.171 292.232 109.796 293.152Z" fill="#CDADF0"/>
<path id="Vector_19" d="M109.002 292.737C106.421 294.073 103.858 295.39 101.404 297.412C98.9494 299.434 96.6213 302.141 94.3654 305.354C92.1094 308.567 89.9437 312.303 88.6443 316.401C87.3448 320.498 86.8936 324.956 87.3629 328.368C87.8321 331.797 89.2037 334.144 90.8822 336.508C92.5606 338.873 94.5458 341.237 96.8379 343.06C99.1299 344.901 101.747 346.201 104.959 347.158C108.19 348.114 112.052 348.746 115.734 348.836C119.433 348.927 122.971 348.493 125.895 347.464C128.8 346.454 131.11 344.829 132.897 342.79C134.702 340.732 136.001 338.241 136.886 335.353C137.752 332.483 138.185 329.18 138.871 327.194C139.557 325.209 140.477 324.523 142.318 323.783C144.141 323.043 146.866 322.231 149.826 322.014C152.767 321.797 155.944 322.158 159.012 322.357C162.08 322.538 165.058 322.538 167.675 322.231C170.274 321.924 172.512 321.292 174.334 320.57C176.157 319.848 177.565 319.018 178.269 318.603C178.973 318.187 178.973 318.187 178.973 318.187" stroke="black" stroke-width="1.6933" stroke-linecap="round" stroke-linejoin="round"/>
</g>
</g>
</svg>
