<svg width="309" height="394" viewBox="0 0 309 394" fill="none" xmlns="http://www.w3.org/2000/svg">
<g id="bear 4" clip-path="url(#clip0_18_42)">
<rect width="309" height="394" fill="white"/>
<g id="bearBddy4 1">
<g id="armRBear4">
<path id="Vector" fill-rule="evenodd" clip-rule="evenodd" d="M193.246 280.878C197.715 281.465 200.852 281.909 204.655 282.131C208.458 282.353 212.927 282.353 217.507 282.242C222.086 282.131 226.792 281.909 231.261 281.243C235.73 280.561 239.976 279.451 243.225 277.992C246.458 276.533 248.708 274.757 250.482 272.505C252.273 270.269 253.62 267.589 254.175 264.798C254.745 261.991 254.507 259.089 253.509 256.06C252.495 253.047 250.72 249.907 247.915 247.449C245.126 244.99 241.323 243.198 237.52 242.057C233.733 240.899 229.93 240.407 226.016 239.852C222.102 239.281 218.077 238.663 214.052 238.362C210.011 238.044 205.986 238.044 201.407 238.044C196.827 238.044 191.677 238.044 186.084 238.425C180.49 238.79 174.437 239.535 168.732 241.327C163.028 243.119 157.672 245.958 154.439 249.05C151.206 252.143 150.097 255.505 150.208 258.756C150.319 261.991 151.65 265.131 154.122 267.811C156.578 270.491 160.159 272.743 164.184 274.503C168.209 276.264 172.694 277.564 177.828 278.579C182.978 279.578 188.778 280.292 193.246 280.878Z" fill="#9BE7FE" stroke="black" stroke-width="2.9633"/>
</g>
<g id="bodyBear4">
<g id="_2379169958528">
<path id="Vector_2" fill-rule="evenodd" clip-rule="evenodd" d="M165.61 341.664C167.956 342.997 170.539 343.9 173.613 344.344C176.703 344.789 180.284 344.789 183.406 344.011C186.543 343.234 189.221 341.664 191.456 340.094C193.69 338.524 195.48 336.954 197.049 334.687C198.602 332.419 199.949 329.422 200.393 325.393C200.836 321.365 200.393 316.307 200.171 312.865C199.949 309.44 199.949 307.648 200.171 304.73C200.409 301.828 200.852 297.8 201.185 293.993C201.518 290.187 201.74 286.603 201.851 283.146C201.962 279.673 201.962 276.311 201.962 273.076C201.962 269.825 201.962 266.701 201.771 262.831C201.565 258.962 201.169 254.347 200.266 247.528C199.379 240.693 197.984 231.653 192.818 226.008C187.652 220.378 178.715 218.126 168.653 217.016C158.591 215.89 147.403 215.89 137.452 216.001C127.5 216.112 118.785 216.35 113.191 219.141C107.598 221.932 105.142 227.308 102.796 233.683C100.451 240.058 98.2168 247.449 96.9808 253.824C95.7606 260.199 95.5229 265.575 95.3011 271.062C95.0793 276.533 94.8574 282.131 94.8099 286.223C94.7465 290.298 94.8574 292.883 95.5229 296.911C96.2043 300.94 97.4245 306.411 100.499 309.82C103.573 313.246 108.501 314.578 113.302 315.26C118.12 315.926 122.81 315.926 127.611 315.704C132.429 315.482 137.341 315.038 141.144 315.038C144.963 315.038 147.657 315.482 149.02 316.925C150.382 318.384 150.398 320.842 150.953 323.316C151.507 325.774 152.585 328.232 154.027 330.468C155.453 332.704 157.244 334.718 159.193 336.621C161.142 338.524 163.265 340.316 165.61 341.664Z" fill="#9BE7FE" stroke="black" stroke-width="2.9633"/>
<path id="Vector_3" fill-rule="evenodd" clip-rule="evenodd" d="M137.515 218.744C141.715 216.207 146.516 214.51 152.331 214.51C158.147 214.51 164.961 216.207 170.047 219.855C175.134 223.502 178.493 229.1 180.506 234.349C182.518 239.614 183.184 244.546 183.406 248.685C183.628 252.825 183.406 256.171 183.184 259.311C182.962 262.435 182.74 265.353 182.186 268.477C181.615 271.617 180.728 274.979 179.492 277.992C178.272 281.021 176.703 283.701 174.801 286.048C172.9 288.395 170.665 290.409 168.209 292.201C165.737 293.993 163.059 295.563 160.207 296.436C157.355 297.308 154.344 297.482 151.888 297.482C149.432 297.482 147.53 297.308 145.565 296.991C143.6 296.674 141.588 296.23 139.797 295.563C138.022 294.897 136.454 293.993 134.774 292.756C133.094 291.535 131.304 289.965 129.735 288.173C128.182 286.381 126.835 284.367 125.71 282.353C124.601 280.339 123.697 278.325 123.032 276.089C122.366 273.853 121.923 271.395 121.685 268.937C121.463 266.463 121.463 264.005 121.463 261.547C121.463 259.089 121.463 256.631 121.685 253.491C121.923 250.351 122.366 246.56 123.143 242.183C123.935 237.822 125.044 232.906 127.39 228.767C129.735 224.628 133.316 221.266 137.515 218.744Z" fill="white"/>
</g>
</g>
<g id="legLBear4">
<g id="_2379169954016">
<path id="Vector_4" fill-rule="evenodd" clip-rule="evenodd" d="M96.648 295.008C95.0792 296.23 93.5105 297.355 91.8466 298.688C90.1669 300.036 88.3763 301.606 86.5699 303.762C84.7792 305.935 82.9728 308.694 81.8794 311.374C80.8019 314.055 80.4215 316.671 80.5483 319.431C80.6592 322.19 81.2772 325.108 82.4182 327.709C83.5591 330.325 85.2229 332.641 87.3463 334.544C89.4697 336.447 92.0526 337.938 95.2535 338.683C98.4386 339.428 102.242 339.428 105.712 338.968C109.166 338.524 112.304 337.636 114.76 336.288C117.216 334.94 119.007 333.164 120.576 331.15C122.144 329.136 123.476 326.884 124.157 325.774C124.822 324.648 124.822 324.648 127.168 323.205C129.513 321.746 134.219 318.828 136.564 317.385C138.91 315.926 138.91 315.926 141.588 315.926C144.282 315.926 149.638 315.926 152.331 315.926C155.009 315.926 155.009 315.926 155.12 315.371C155.231 314.8 155.453 313.69 152.997 312.786C150.541 311.898 145.391 311.232 141.144 310.772C136.897 310.328 133.538 310.106 130.305 308.996C127.057 307.87 123.935 305.856 121.13 303.62C118.341 301.384 115.885 298.925 113.762 297.022C111.623 295.119 109.848 293.771 107.835 292.883C105.823 291.979 103.573 291.535 101.687 291.979C99.7855 292.423 98.2168 293.771 96.648 295.008Z" fill="#9BE7FE" stroke="#9BE7FE" stroke-width="0.0762"/>
<path id="Vector_5" d="M96.648 295.119C95.0792 296.23 93.5105 297.356 91.8466 298.688C90.1669 300.036 88.3763 301.606 86.5699 303.762C84.7792 305.935 82.9728 308.694 81.8794 311.374C80.8019 314.055 80.4215 316.671 80.5483 319.431C80.6592 322.19 81.2772 325.108 82.4182 327.709C83.5591 330.326 85.2229 332.641 87.3463 334.544C89.4697 336.447 92.0526 337.938 95.2535 338.683C98.4386 339.428 102.242 339.428 105.712 338.968C109.166 338.524 112.304 337.636 114.76 336.288C117.216 334.94 119.007 333.164 120.576 331.15C122.144 329.136 123.476 326.884 124.157 325.774C124.822 324.648 124.822 324.648 127.168 323.205C129.513 321.746 134.219 318.828 136.564 317.385C138.91 315.926 138.91 315.926 141.588 315.926C144.282 315.926 149.638 315.926 155.009 315.926" stroke="black" stroke-width="2.9633" stroke-linecap="round" stroke-linejoin="round"/>
</g>
</g>
<g id="heardBear4">
<g id="earRBear4">
<g id="_2379169958592">
<path id="Vector_6" fill-rule="evenodd" clip-rule="evenodd" d="M251.275 182.523C245.903 183.221 241.339 183.126 236.554 182.206C231.752 181.287 226.713 179.542 222.102 176.878C217.491 174.198 213.307 170.614 210.091 166.76C206.874 162.906 204.64 158.767 203.007 154.533C201.375 150.299 200.345 145.985 200.171 141.481C199.981 136.978 200.63 132.283 201.835 127.605C203.055 122.911 204.83 118.217 207.016 114.173C209.203 110.129 211.818 106.735 215.019 103.405C218.236 100.059 222.054 96.792 226.254 94.3656C230.437 91.9393 235.017 90.3534 240.182 89.6398C245.348 88.9261 251.132 89.1006 256.155 89.9728C261.194 90.8291 265.473 92.3991 269.118 94.5083C272.746 96.6175 275.725 99.2818 278.467 102.374C281.224 105.451 283.744 108.94 285.883 113.491C288.022 118.042 289.797 123.641 290.732 128.699C291.651 133.758 291.746 138.262 290.89 144.114C290.034 149.966 288.228 157.166 284.425 163.176C280.622 169.186 274.822 174.023 268.832 177.179C262.827 180.335 256.662 181.826 251.275 182.523Z" fill="#9BE7FE" stroke="black" stroke-width="2.9633"/>
<path id="Vector_7" d="M241.91 161.4C253.873 161.4 263.571 151.694 263.571 139.721C263.571 127.748 253.873 118.042 241.91 118.042C229.946 118.042 220.248 127.748 220.248 139.721C220.248 151.694 229.946 161.4 241.91 161.4Z" fill="#EAF4FD"/>
</g>
</g>
<g id="earLBear4">
<g id="_2379169955968">
<path id="Vector_8" fill-rule="evenodd" clip-rule="evenodd" d="M75.1131 160.575C69.9789 160.813 66.0966 160.432 61.422 159.608C56.7632 158.767 51.328 157.467 46.4949 154.866C41.6619 152.265 37.4468 148.348 34.5311 144.574C31.6154 140.815 30.0149 137.216 28.5412 133.378C27.0834 129.54 25.7523 125.464 25.1819 121.008C24.6114 116.552 24.8015 111.731 25.6572 107.132C26.5129 102.533 28.0183 98.1717 30.1575 94.1912C32.2809 90.2107 35.0382 86.6108 38.3975 83.2487C41.7569 79.8867 45.7343 76.7467 49.9019 74.4789C54.0694 72.1953 58.4271 70.7839 62.8799 69.88C67.3326 68.976 71.8646 68.5954 76.5551 69.1663C81.2455 69.7372 86.0786 71.2597 90.0085 73.0041C93.9383 74.7644 96.9649 76.7467 99.9757 79.5537C102.986 82.3448 105.966 85.9447 108.406 90.4961C110.846 95.0475 112.732 100.535 113.873 105.752C115.014 110.97 115.378 115.902 114.776 122.197C114.158 128.493 112.542 136.185 108.754 142.481C104.967 148.776 99.0091 153.708 92.8291 156.595C86.6491 159.497 80.2472 160.337 75.1131 160.575Z" fill="#9BE7FE" stroke="black" stroke-width="2.9633"/>
<path id="Vector_9" d="M74.6694 141.91C86.6328 141.91 96.3311 132.204 96.3311 120.231C96.3311 108.258 86.6328 98.5523 74.6694 98.5523C62.706 98.5523 53.0077 108.258 53.0077 120.231C53.0077 132.204 62.706 141.91 74.6694 141.91Z" fill="#EAF4FD"/>
</g>
</g>
<g id="faceBear4">
<path id="Vector_10" fill-rule="evenodd" clip-rule="evenodd" d="M72.5935 224.073C69.4877 220.885 66.6988 217.476 64.2268 213.035C61.7548 208.579 59.6155 203.076 58.3954 198.398C57.1752 193.72 56.8583 189.866 56.89 186.028C56.9375 182.19 57.302 178.369 58.0309 173.833C58.7598 169.297 59.8374 164.048 61.422 158.926C62.9908 153.788 65.0666 148.792 67.2375 144.415C69.4243 140.054 71.7378 136.327 74.3841 132.632C77.0463 128.937 80.0571 125.258 83.3689 121.896C86.6808 118.534 90.2937 115.489 94.0809 112.888C97.8523 110.288 101.814 108.131 106.393 106.149C110.973 104.182 116.186 102.358 121.384 101.026C126.566 99.6941 131.747 98.8377 137.214 98.4254C142.681 98.0131 148.465 98.0607 153.916 98.3778C159.367 98.695 164.485 99.2659 169.873 100.265C175.245 101.264 180.886 102.691 185.656 104.246C190.426 105.8 194.324 107.465 197.921 109.162C201.518 110.859 204.814 112.571 207.745 114.506C210.677 116.441 213.276 118.582 216.318 121.452C219.376 124.307 222.894 127.891 226 131.697C229.106 135.519 231.784 139.578 233.923 143.448C236.062 147.302 237.663 150.981 239.105 155.088C240.563 159.18 241.878 163.715 242.829 168.013C243.764 172.311 244.334 176.354 244.651 180.367C244.984 184.379 245.079 188.344 244.841 192.673C244.603 197.018 244.049 201.744 243.035 206.28C242.021 210.815 240.563 215.145 238.645 219.046C236.712 222.931 234.319 226.357 231.784 229.433C229.249 232.526 226.571 235.237 223.798 237.6C221.024 239.963 218.156 241.961 214.258 244.039C210.36 246.116 205.416 248.257 200.773 249.748C196.114 251.223 191.741 252.032 187.351 252.682C182.962 253.316 178.541 253.792 173.866 254.03C169.192 254.268 164.264 254.268 159.399 254.077C154.534 253.887 149.733 253.506 144.9 253.015C140.051 252.507 135.17 251.889 131.193 251.223C127.231 250.557 124.173 249.843 120.417 249.05C116.662 248.257 112.193 247.401 108.295 246.402C104.397 245.403 101.053 244.261 98.1375 242.992C95.2218 241.724 92.734 240.344 90.1986 238.695C87.6632 237.045 85.0803 235.142 82.0854 232.7C79.0904 230.258 75.6835 227.276 72.5935 224.073Z" fill="#9BE7FE" stroke="black" stroke-width="2.9633"/>
<g id="noseBear4">
<path id="Vector_11" fill-rule="evenodd" clip-rule="evenodd" d="M151.396 167.648C162.204 167.648 171.109 180.319 170.951 196.178C170.808 212.036 162.204 215.763 151.396 215.763C140.589 215.763 132.128 210.022 131.826 196.178C131.525 182.333 140.589 167.648 151.396 167.648Z" fill="#6F5EEA" stroke="black" stroke-width="2.9633"/>
</g>
<g id="eyeLBear4">
<path id="Vector_12" d="M120.37 189.327L101.085 191.008" stroke="black" stroke-width="3.3866" stroke-linecap="round" stroke-linejoin="round"/>
</g>
<g id="eyeRBear4">
<path id="Vector_13" d="M201.169 194.576L182.027 191.721" stroke="black" stroke-width="3.3866" stroke-linecap="round" stroke-linejoin="round"/>
</g>
<g id="mouthBear4">
<path id="Vector_14" d="M137.563 223.946C146.294 229.988 154.344 230.67 162.394 225.294" stroke="black" stroke-width="3.3866" stroke-linecap="round" stroke-linejoin="round"/>
</g>
</g>
</g>
<g id="armLBear4">
<g id="_2379169956160">
<path id="Vector_15" fill-rule="evenodd" clip-rule="evenodd" d="M112.637 257.424C112.209 258.534 111.337 260.754 109.578 262.673C107.82 264.592 105.173 266.225 103.192 267.446C101.228 268.683 99.944 269.492 97.7414 269.968C95.5546 270.443 92.4329 270.586 89.4697 269.73C86.5065 268.858 83.7176 267.002 81.6576 265.178C79.6134 263.355 78.314 261.594 77.2682 259.216C76.2065 256.837 75.43 253.855 75.0497 251.033C74.6694 248.21 74.717 245.546 75.1131 242.057C75.5093 238.552 76.254 234.222 77.4266 229.972C78.5834 225.738 80.168 221.583 81.5308 218.633C82.8936 215.668 84.0345 213.892 85.318 212.338C86.6016 210.799 88.0277 209.467 89.6123 208.341C91.1969 207.231 92.94 206.311 94.9525 205.709C96.9649 205.106 99.2468 204.805 101.402 204.821C103.557 204.821 105.585 205.154 107.423 205.725C109.262 206.296 110.925 207.104 112.193 208.119C113.461 209.118 114.348 210.308 115.204 211.687C116.075 213.051 116.899 214.621 117.422 216.366C117.929 218.11 118.12 220.045 118.215 222.249C118.326 224.454 118.357 226.928 118.246 229.671C118.135 232.399 117.914 235.412 117.597 238.187C117.28 240.962 116.884 243.5 116.392 245.847C115.901 248.21 115.315 250.382 114.744 252.095C114.174 253.808 113.619 255.061 113.35 255.695C113.065 256.313 113.065 256.313 113.065 256.313C113.065 256.313 113.065 256.313 112.637 257.424Z" fill="#9AE9FA"/>
<path id="Vector_16" d="M105.585 265.971C104.555 266.606 103.541 267.224 102.384 267.954C101.228 268.683 99.944 269.492 97.7414 269.968C95.5546 270.443 92.4329 270.586 89.4697 269.73C86.5065 268.858 83.7176 267.002 81.6576 265.178C79.6134 263.355 78.314 261.594 77.2682 259.216C76.2065 256.837 75.43 253.855 75.0497 251.033C74.6694 248.21 74.717 245.546 75.1131 242.057C75.5093 238.552 76.254 234.222 77.4266 229.972C78.5834 225.738 80.168 221.583 81.5308 218.633C82.8936 215.668 84.0345 213.892 85.318 212.338C86.6016 210.799 88.0277 209.467 89.6123 208.341C91.1969 207.231 92.94 206.311 94.9525 205.709C96.9649 205.106 99.2468 204.805 101.402 204.821C103.557 204.821 105.585 205.154 107.423 205.725C109.262 206.296 110.925 207.104 112.193 208.119C113.461 209.118 114.348 210.308 115.204 211.687C116.075 213.051 116.899 214.621 117.422 216.366C117.929 218.11 118.12 220.045 118.215 222.249C118.326 224.454 118.357 226.928 118.246 229.671C118.135 232.399 117.914 235.412 117.597 238.187C117.28 240.962 116.884 243.5 116.392 245.847C115.901 248.21 115.315 250.382 114.76 252.048C114.206 253.729 113.683 254.918 113.397 255.552C113.128 256.187 113.096 256.25 113.065 256.313" stroke="black" stroke-width="2.9633" stroke-linecap="round" stroke-linejoin="bevel"/>
</g>
</g>
</g>
</g>
<defs>
<clipPath id="clip0_18_42">
<rect width="309" height="394" fill="white"/>
</clipPath>
</defs>
</svg>
