<?xml version="1.0" encoding="UTF-8"?>
<!DOCTYPE svg PUBLIC "-//W3C//DTD SVG 1.1//EN" "http://www.w3.org/Graphics/SVG/1.1/DTD/svg11.dtd">
<!-- Creator: CorelDRAW X8 -->
<svg xmlns="http://www.w3.org/2000/svg" xml:space="preserve" width="210mm" height="205.994mm" version="1.1" style="shape-rendering:geometricPrecision; text-rendering:geometricPrecision; image-rendering:optimizeQuality; fill-rule:evenodd; clip-rule:evenodd"
viewBox="0 0 21000 20599"
 xmlns:xlink="http://www.w3.org/1999/xlink">
 <defs>
  <style type="text/css">
   <![CDATA[
    .fil1 {fill:none}
    .fil3 {fill:#090505}
    .fil5 {fill:#0B0504}
    .fil6 {fill:#D25952}
    .fil2 {fill:#E8B7CC}
    .fil4 {fill:#F7F8DA}
    .fil0 {fill:#FF75AF}
   ]]>
  </style>
 </defs>
 <g id="Capa_x0020_1">
  <metadata id="CorelCorpID_0Corel-Layer"/>
  <rect class="fil0" width="21000" height="20599" rx="1060" ry="1060"/>
  <g id="_1843280567536">
   <path class="fil1" d="M5088 15924c64,55 316,337 316,393 157,83 231,197 365,307 867,711 2160,1223 3257,1365 1525,199 2644,265 4158,-140 118,-32 434,-131 535,-132"/>
   <g>
    <path class="fil2" d="M12087 13650c-500,1454 493,-1435 0,0zm-3037 -10756c-2332,339 -2333,4177 -1667,5845 186,466 294,482 -157,718 -977,511 -1817,1412 -2197,2528 -487,1435 -340,2652 437,3714 624,851 1757,1423 2986,1733 1470,370 2795,353 4259,95 3005,-530 4091,-3026 3058,-5644 -88,-222 -289,-588 -405,-759 -78,-114 -166,-240 -256,-342 -222,-254 -1188,188 -2216,-747 -706,-642 -895,-1761 -679,-2715 37,-165 55,-337 117,-479 77,-174 267,-219 370,-79 195,267 -894,2502 1084,3328 619,258 1422,246 1933,-113 460,-322 612,-1103 495,-1811 -390,-2345 -3702,-3066 -4815,-961 -121,228 -205,1278 -267,1503 -40,149 -208,259 -352,135 -153,-131 28,-816 59,-1024 177,-1177 392,-3101 -227,-4162 -297,-509 -817,-870 -1560,-763z"/>
    <path class="fil3" d="M9050 2894c743,-107 1263,254 1560,763 619,1061 404,2985 227,4162 -31,208 -212,893 -59,1024 144,124 312,14 352,-135 62,-225 146,-1275 267,-1503 1113,-2105 4425,-1384 4815,961 117,708 -35,1489 -495,1811 -511,359 -1314,371 -1933,113 -1978,-826 -889,-3061 -1084,-3328 -103,-140 -293,-95 -370,79 -62,142 -80,314 -117,478 -216,955 -27,2074 679,2716 1028,935 1994,493 2216,747 90,102 178,228 256,342 116,171 317,537 405,759 1033,2618 -53,5114 -3058,5644 -1464,258 -2789,275 -4259,-95 -1229,-310 -2362,-882 -2986,-1733 -777,-1062 -924,-2279 -437,-3714 380,-1116 1220,-2017 2197,-2528 451,-236 343,-252 157,-718 -666,-1668 -665,-5506 1667,-5845zm-2040 6189c-415,277 -568,299 -1037,727 -1362,1242 -2114,3461 -1336,5296 50,119 168,321 194,434 326,579 780,1024 1315,1363 819,522 1830,975 3117,1117 1025,113 1731,202 2896,43 1224,-168 2016,-553 2019,-553 1337,-525 2387,-1949 2387,-3702 -2,-653 -106,-1328 -309,-1848 -104,-266 -199,-488 -333,-735 -59,-110 -131,-225 -201,-334 -72,-111 -186,-188 -200,-327 374,-215 526,-206 834,-670 204,-306 318,-763 321,-1220 17,-2649 -3001,-3944 -4788,-2648 -133,96 -319,307 -440,353l1 -887c0,-3563 -2837,-3514 -3889,-2284 -860,1005 -1089,2490 -975,3855 31,372 95,706 164,1046 48,233 269,828 260,974z"/>
    <path class="fil4" d="M8036 6878c1,448 178,1928 391,2282 226,-40 486,-108 728,-132 277,-28 557,-22 835,-51 214,-852 335,-2801 47,-3707 -271,-854 -1030,-798 -1462,-325l-162 256c-300,529 -378,1017 -377,1677z"/>
   </g>
   <path class="fil3" d="M8811 13430c129,567 1000,399 895,-178 -107,-586 -1032,-423 -895,178z"/>
   <path class="fil3" d="M12223 12029c-267,-104 -937,292 -937,292 -83,89 -64,225 16,284 142,106 485,-102 613,-162 187,-88 444,-113 308,-414z"/>
   <path class="fil3" d="M12087 13650c199,-579 -683,-827 -857,-291 -187,579 665,850 857,291z"/>
   <path class="fil3" d="M9883 12615c47,-191 -217,-431 -407,-644l-751 -888c-61,-75 -158,-251 -282,-219 -16,4 -476,359 -485,594l1403 945c182,119 312,280 522,212z"/>
   <path class="fil5" d="M9681 15439c530,-20 505,-165 636,-166 129,-2 138,180 657,209 22,395 -114,884 -658,872 -523,-12 -658,-404 -635,-915zm1770 -607c-377,-74 -276,382 -675,248 -116,-39 -203,-154 -220,-297 -32,-251 28,-208 169,-317 593,-457 -258,-874 -815,-506 -42,302 88,442 260,564 21,609 -407,546 -541,445 -97,-73 -108,-254 -262,-270 -142,-15 -237,108 -199,263 44,176 140,79 131,387 -5,176 -11,322 19,493 55,315 183,524 348,664 534,451 1644,303 1698,-966 12,-280 -30,-194 109,-387 103,-144 79,-187 -22,-321z"/>
   <path class="fil6" d="M9681 15439c-23,511 112,903 635,915 544,12 680,-477 658,-872 -519,-29 -528,-211 -657,-209 -131,1 -106,146 -636,166z"/>
  </g>
 </g>
</svg>
