<?xml version="1.0" encoding="UTF-8"?>
<!DOCTYPE svg PUBLIC "-//W3C//DTD SVG 1.1//EN" "http://www.w3.org/Graphics/SVG/1.1/DTD/svg11.dtd">
<!-- Creator: CorelDRAW X8 -->
<svg xmlns="http://www.w3.org/2000/svg" xml:space="preserve" width="210mm" height="209.973mm" version="1.1" style="shape-rendering:geometricPrecision; text-rendering:geometricPrecision; image-rendering:optimizeQuality; fill-rule:evenodd; clip-rule:evenodd"
viewBox="0 0 21000 20997"
 xmlns:xlink="http://www.w3.org/1999/xlink">
 <defs>
  <style type="text/css">
   <![CDATA[
    .str0 {stroke:black;stroke-width:20}
    .str1 {stroke:#FED5DB;stroke-width:7.62}
    .fil12 {fill:none}
    .fil2 {fill:black}
    .fil7 {fill:#020201}
    .fil1 {fill:#040002}
    .fil14 {fill:#090505}
    .fil16 {fill:#0B0504}
    .fil17 {fill:#D25952}
    .fil13 {fill:#E8B7CC}
    .fil4 {fill:#F38574}
    .fil3 {fill:#F48574}
    .fil11 {fill:#F58574}
    .fil15 {fill:#F7F8DA}
    .fil10 {fill:#FCD5DC}
    .fil8 {fill:#FEDA01}
    .fil5 {fill:#FEDC00}
    .fil9 {fill:#FEFEFE}
    .fil6 {fill:white}
    .fil0 {fill:url(#id0)}
   ]]>
  </style>
  <linearGradient id="id0" gradientUnits="userSpaceOnUse" x1="3371.04" y1="18206.6" x2="17629" y2="2790.69">
   <stop offset="0" style="stop-opacity:1; stop-color:#FEDC00"/>
   <stop offset="1" style="stop-opacity:1; stop-color:#F7787F"/>
  </linearGradient>
 </defs>
 <g id="Capa_x0020_1">
  <metadata id="CorelCorpID_0Corel-Layer"/>
  <rect class="fil0" width="21000" height="20997" rx="1318" ry="1318"/>
  <g id="_2316944970224">
   <path class="fil1" d="M17670 10675c14,223 17,490 56,707 39,216 113,382 265,513 151,132 380,230 635,251 256,21 537,-34 749,-138 211,-103 352,-254 490,-462 138,-208 274,-473 371,-723 97,-250 154,-486 186,-731 33,-245 40,-499 39,-775 -1,-275 -11,-572 -43,-826 -33,-254 -89,-466 -154,-690 -65,-224 -138,-459 -215,-730 -77,-272 -158,-579 -251,-841 -94,-262 -200,-479 -346,-679 -146,-200 -332,-384 -467,-499 -135,-116 -220,-163 -296,-159 -75,4 -143,60 -180,257 -37,197 -45,535 -30,910 15,376 52,787 37,1161 -15,373 -82,709 -204,1031 -122,322 -299,631 -425,936 -126,305 -202,605 -228,845 -26,240 -2,419 11,642z"/>
   <path class="fil2 str0" d="M10906 3936c-141,23 -268,43 -401,71 -132,27 -271,63 -422,92 -152,29 -317,52 -456,60 -138,7 -250,-1 -424,-25 -174,-24 -410,-63 -661,-137 -251,-73 -517,-181 -774,-348 -257,-166 -506,-391 -679,-599 -172,-209 -269,-402 -322,-614 -53,-213 -62,-444 -26,-656 36,-213 117,-407 201,-560 84,-153 172,-266 309,-372 136,-106 320,-205 507,-268 187,-62 376,-87 525,-87 149,0 259,27 373,85 114,58 233,148 337,259 103,111 192,243 299,382 108,139 234,285 362,399 127,114 255,197 389,282 135,85 276,172 433,245 158,74 332,135 492,175 160,40 307,58 434,63 127,4 234,-5 355,-27 120,-22 253,-56 395,-85 141,-28 289,-51 436,-80 147,-28 292,-62 444,-57 153,5 313,48 368,234 54,186 3,514 -238,760 -242,247 -673,411 -1006,520 -333,108 -567,160 -761,200 -194,39 -349,65 -489,88z"/>
   <g>
    <path class="fil1 str0" d="M11827 11585c20,-62 43,-159 72,-249 30,-89 66,-171 110,-262 44,-92 96,-192 163,-257 67,-65 150,-94 223,-74 72,20 134,89 142,158 9,70 -37,140 -82,214 -46,75 -92,154 -130,227 -39,74 -70,142 -95,212 -19,50 -34,100 -51,147 143,115 211,308 158,495 -71,250 -331,395 -581,324 -250,-71 -395,-331 -324,-581 53,-185 210,-313 389,-338 2,-5 4,-10 6,-16z"/>
    <path class="fil3" d="M11874 11758c32,-76 62,-172 93,-266 32,-94 64,-185 106,-299 42,-114 93,-251 157,-300 64,-50 142,-11 150,41 8,53 -52,119 -110,208 -58,88 -113,199 -153,303 -40,104 -65,202 -87,294 -5,21 -10,42 -14,63 125,62 193,207 153,347 -44,157 -208,248 -365,204 -158,-45 -249,-209 -204,-366 35,-125 146,-209 268,-215 2,-5 4,-9 6,-14z"/>
   </g>
   <g>
    <path class="fil1 str0" d="M12717 12095c22,-67 46,-172 78,-268 32,-97 71,-185 118,-283 48,-99 104,-207 176,-277 73,-70 162,-101 240,-80 78,22 145,96 154,171 9,75 -40,150 -89,230 -49,81 -99,166 -140,245 -41,80 -75,153 -102,228 -20,54 -37,109 -55,159 154,124 228,332 170,533 -76,270 -357,426 -626,350 -269,-77 -426,-357 -349,-627 57,-200 226,-337 419,-364 2,-5 4,-11 6,-17z"/>
    <path class="fil4" d="M12768 12282c35,-82 67,-186 101,-287 33,-101 69,-199 114,-322 45,-123 99,-271 169,-324 69,-54 152,-12 162,44 9,57 -57,129 -119,224 -63,96 -122,215 -165,327 -43,112 -70,217 -93,316 -6,24 -11,46 -16,69 135,66 208,222 166,373 -49,170 -225,268 -395,220 -169,-48 -268,-225 -219,-394 38,-135 157,-225 289,-232 2,-5 4,-9 6,-14z"/>
   </g>
   <g>
    <path class="fil1" d="M10615 4591c42,-47 83,-149 149,-297 67,-147 158,-341 306,-576 147,-234 351,-511 573,-756 221,-245 460,-458 679,-615 220,-157 420,-258 639,-340 220,-82 460,-145 678,-188 218,-44 416,-68 643,-78 227,-11 484,-8 735,22 250,30 494,87 707,149 213,61 394,127 604,225 210,97 448,225 703,375 255,150 527,322 760,483 232,162 425,314 604,473 179,158 344,324 471,508 126,183 213,385 296,624 83,240 161,516 208,801 47,285 62,578 70,839 8,262 7,492 -5,676 -13,185 -38,323 -71,521 -33,198 -75,455 -136,677 -61,223 -141,411 -235,593 -95,181 -205,356 -297,501 -92,145 -165,260 -224,333 -58,73 -100,104 -126,183 -26,79 -35,205 -48,339 -13,135 -30,278 -54,404 -24,127 -55,237 -109,365 -55,129 -133,277 -226,403 -92,127 -199,232 -316,330 -117,97 -244,187 -381,260 -138,72 -286,127 -444,167 -159,40 -327,65 -495,87 -168,23 -335,43 -503,54 -169,10 -337,11 -525,-4 -187,-14 -394,-44 -614,-82 -221,-39 -455,-86 -677,-149 -222,-63 -431,-142 -627,-221 -195,-80 -377,-161 -587,-256 -209,-94 -446,-203 -717,-358 -272,-156 -578,-360 -826,-543 -248,-183 -438,-346 -594,-505 -156,-160 -278,-316 -394,-478 -115,-163 -224,-332 -350,-530 -127,-198 -272,-426 -387,-613 -114,-186 -199,-331 -273,-481 -74,-149 -139,-304 -177,-467 -38,-163 -49,-336 -59,-492 -10,-155 -19,-294 -18,-425 1,-132 13,-257 38,-410 25,-153 64,-333 129,-496 64,-162 153,-306 272,-448 120,-141 270,-279 408,-369 139,-90 266,-131 380,-154 114,-24 214,-29 286,-27 72,2 115,12 157,-34z"/>
    <path class="fil5" d="M10696 4826c41,-44 80,-142 151,-314 71,-171 173,-415 322,-670 149,-255 346,-521 560,-756 214,-236 445,-441 657,-592 212,-150 405,-247 617,-326 212,-78 444,-138 655,-180 212,-41 402,-64 622,-74 220,-10 468,-7 711,22 242,29 479,85 684,144 206,60 382,124 585,218 203,94 434,217 681,362 247,145 510,311 735,467 225,156 412,302 585,455 174,153 334,313 456,490 122,177 207,371 287,602 81,230 157,497 202,771 46,274 62,556 70,808 7,252 7,473 -4,651 -12,177 -36,310 -68,501 -32,190 -72,437 -131,652 -58,214 -135,395 -227,570 -91,174 -197,342 -286,482 -88,139 -159,249 -216,320 -56,70 -97,100 -122,176 -25,76 -34,197 -46,326 -12,130 -28,268 -51,389 -23,122 -53,228 -106,352 -52,124 -127,266 -217,387 -89,122 -193,223 -305,317 -113,94 -236,180 -369,250 -133,69 -276,122 -429,160 -153,38 -316,62 -479,83 -162,22 -324,41 -486,51 -163,10 -326,10 -508,-4 -181,-14 -380,-43 -594,-80 -213,-37 -440,-83 -655,-144 -215,-61 -417,-137 -606,-214 -190,-77 -366,-155 -568,-247 -203,-91 -432,-196 -695,-346 -263,-151 -559,-347 -800,-524 -240,-176 -424,-333 -575,-487 -151,-154 -269,-304 -381,-461 -112,-156 -217,-319 -340,-510 -123,-191 -264,-411 -375,-591 -111,-179 -192,-319 -265,-463 -72,-144 -135,-293 -172,-450 -37,-158 -48,-324 -58,-474 -9,-150 -18,-283 -17,-409 1,-127 12,-248 36,-395 24,-147 62,-320 124,-477 62,-156 148,-295 256,-402 109,-106 239,-181 366,-238 127,-58 251,-97 361,-120 110,-22 207,-27 276,-25 70,2 111,12 152,-33z"/>
   </g>
   <g>
    <path class="fil1" d="M12517 9762c-161,-102 -345,-239 -503,-398 -159,-159 -292,-341 -431,-528 -139,-188 -284,-381 -389,-602 -105,-222 -170,-471 -202,-726 -33,-254 -32,-514 -10,-744 21,-230 63,-429 139,-670 76,-241 185,-525 319,-757 134,-232 293,-413 500,-587 208,-174 465,-342 701,-454 236,-112 452,-169 679,-207 228,-39 467,-59 695,-58 229,1 446,23 673,73 227,49 463,126 708,223 245,96 499,213 759,383 261,169 529,393 752,635 223,243 401,505 543,759 142,254 248,500 317,760 70,260 104,535 105,806 1,270 -31,536 -98,787 -66,251 -167,488 -277,687 -111,200 -230,362 -387,531 -158,169 -353,345 -543,482 -190,138 -374,238 -569,322 -194,85 -399,155 -601,173 -202,19 -402,-13 -624,-64 -221,-50 -465,-119 -684,-187 -219,-67 -415,-132 -600,-200 -185,-67 -360,-136 -517,-204 -156,-68 -294,-134 -455,-235z"/>
    <path class="fil6" d="M12630 9600c-153,-95 -326,-224 -476,-374 -151,-149 -277,-320 -409,-496 -131,-175 -268,-357 -368,-565 -100,-207 -162,-441 -193,-680 -31,-239 -31,-482 -11,-697 19,-216 59,-402 130,-628 71,-226 174,-491 300,-708 126,-217 275,-386 471,-549 195,-163 438,-320 660,-424 223,-105 427,-157 641,-193 215,-36 441,-54 657,-53 216,2 421,23 635,70 215,47 438,120 669,211 232,91 472,201 719,360 247,160 500,370 711,598 211,228 381,473 515,712 135,238 235,469 301,713 67,244 99,502 101,755 1,254 -28,503 -90,738 -62,235 -157,457 -261,643 -104,187 -216,339 -364,497 -148,158 -333,322 -512,450 -179,129 -353,222 -536,301 -183,79 -377,144 -568,161 -191,17 -380,-14 -589,-62 -210,-48 -439,-113 -647,-177 -207,-63 -392,-125 -567,-188 -175,-64 -340,-129 -488,-193 -148,-64 -279,-126 -431,-222z"/>
   </g>
   <g>
    <path class="fil7" d="M11416 8223c187,15 173,8 355,78 1203,464 440,2669 -356,3207 -72,49 -119,91 -178,138 -131,102 -481,231 -651,253 -449,56 -875,-104 -1053,-550 -213,-533 -100,-1069 64,-1606 32,-101 118,-289 169,-389 337,-654 683,-799 1328,-1098 0,0 322,-33 322,-33zm-1051 759c151,147 30,229 603,774 267,254 603,443 1001,572 -33,126 -255,502 -349,610 -163,189 -152,184 -328,350l-377 260c-364,217 -989,114 -1165,-307 -189,-450 -174,-466 -81,-1004 74,-423 244,-675 481,-996 71,-96 150,-175 215,-259zm198 -172c88,-135 432,-281 584,-302 245,-36 535,11 754,167 212,150 277,336 275,601 -1,179 -36,653 -122,815 -21,-4 -214,-74 -258,-90 -102,-38 -180,-74 -264,-124 -367,-213 -694,-470 -878,-851 -41,-85 -68,-122 -91,-216z"/>
    <path class="fil8" d="M10365 8982c-65,84 -144,163 -215,259 -237,321 -407,573 -481,996 -93,538 -108,554 81,1004 176,421 801,524 1165,307l377 -260c176,-166 165,-161 328,-350 94,-108 316,-484 349,-610 -398,-129 -734,-318 -1001,-572 -573,-545 -452,-627 -603,-774z"/>
    <path class="fil9" d="M10563 8810c23,94 50,131 91,216 184,381 511,638 878,851 84,50 162,86 264,124 44,16 237,86 258,90 86,-162 121,-636 122,-815 2,-265 -63,-451 -275,-601 -219,-156 -509,-203 -754,-167 -152,21 -496,167 -584,302z"/>
   </g>
   <g>
    <path class="fil7" d="M14016 9506c-181,-47 -167,-49 -361,-42 -1289,48 -1285,2380 -707,3149 52,69 83,125 124,188 90,139 379,375 532,450 407,200 862,187 1175,-177 375,-434 442,-978 462,-1539 4,-106 -17,-312 -33,-423 -106,-728 -385,-978 -899,-1470 0,0 -293,-136 -293,-136zm747 1059c-190,90 -103,207 -823,537 -334,153 -714,221 -1132,214 -10,130 78,558 131,690 93,232 85,224 197,438l272 369c273,324 898,429 1202,88 324,-364 316,-383 403,-923 68,-423 -12,-717 -131,-1098 -36,-114 -85,-214 -119,-315zm-131 -227c-40,-156 -318,-405 -454,-475 -221,-114 -510,-163 -768,-88 -249,73 -371,228 -455,479 -58,170 -178,630 -150,810 21,4 226,0 273,-1 109,-2 194,-11 290,-30 417,-83 810,-220 1108,-520 66,-67 103,-93 156,-175z"/>
    <path class="fil8" d="M14763 10565c34,101 83,201 119,315 119,381 199,675 131,1098 -87,540 -79,559 -403,923 -304,341 -929,236 -1202,-88l-272 -369c-112,-214 -104,-206 -197,-438 -53,-132 -141,-560 -131,-690 418,7 798,-61 1132,-214 720,-330 633,-447 823,-537z"/>
    <path class="fil9" d="M14632 10338c-53,82 -90,108 -156,175 -298,300 -691,437 -1108,520 -96,19 -181,28 -290,30 -47,1 -252,5 -273,1 -28,-180 92,-640 150,-810 84,-251 206,-406 455,-479 258,-75 547,-26 768,88 136,70 414,319 454,475z"/>
   </g>
   <path class="fil7" d="M14248 7152c-690,-31 -577,633 105,695 588,54 534,-402 258,-570 -85,-52 -264,-121 -363,-125z"/>
   <path class="fil7" d="M13891 6071c-468,-4 -554,715 6,752 449,29 519,-747 -6,-752z"/>
   <path class="fil10 str1" d="M16034 7906c-276,-26 -402,122 -218,333 151,172 649,445 822,226 176,-223 -236,-525 -604,-559z"/>
   <path class="fil10 str1" d="M12440 6217c-104,1 -186,38 -210,155 -56,272 486,502 716,511 92,3 178,-52 203,-167 22,-100 -56,-183 -120,-241 -125,-112 -391,-259 -589,-258z"/>
   <path class="fil7" d="M15292 7191c-13,116 147,505 198,580 35,51 104,180 183,110 8,-7 17,-15 25,-27 48,-69 18,-141 -10,-220 -40,-112 -73,-159 -115,-257 136,-8 401,12 489,-37 80,-45 56,-81 42,-142 -143,-65 -707,-54 -812,-7z"/>
   <g>
    <path class="fil7" d="M14854 8458c-123,266 -238,483 -543,442 -345,-47 -274,-506 -284,-603 3,-2 8,-5 10,-6 2,-2 8,-5 10,-7l374 86c-47,104 -174,258 -130,378 139,31 235,-199 278,-334l285 44zm-961 -279c-37,109 -90,152 -102,309 -49,696 766,1020 1190,258 256,-461 23,-213 330,-370 42,-22 136,-83 82,-157 -62,-87 -314,15 -409,27 -309,38 -673,-86 -965,-208 -139,-58 -286,-127 -419,-196 -76,-40 -341,-239 -408,-152 -134,173 560,414 701,489z"/>
    <path class="fil11" d="M14569 8414c-43,135 -139,365 -278,334 -44,-120 83,-274 130,-378l-374 -86c-2,2 -8,5 -10,7 -2,1 -7,4 -10,6 10,97 -61,556 284,603 305,41 420,-176 543,-442l-285 -44z"/>
   </g>
  </g>
  <g id="_2316944965296">
   <path class="fil12" d="M3480 20143c69,17 362,132 383,174 148,3 247,60 387,91 913,203 2068,97 2939,-209 1209,-426 2067,-798 3041,-1669 76,-68 275,-261 349,-300"/>
   <g>
    <path class="fil13" d="M7834 15817c175,1271 -173,-1253 0,0zm-6308 -6863c-1609,1129 -165,3987 958,4978 314,277 401,248 154,593 -535,748 -822,1735 -684,2708 177,1252 745,2103 1723,2601 784,399 1843,398 2875,166 1232,-278 2213,-789 3205,-1532 2037,-1525 1906,-3792 152,-5352 -148,-132 -436,-329 -587,-412 -100,-56 -213,-116 -319,-159 -260,-105 -813,587 -1930,278 -767,-212 -1329,-974 -1527,-1765 -35,-137 -86,-272 -93,-401 -9,-159 116,-263 245,-197 246,125 277,2198 2059,2068 559,-40 1152,-351 1397,-811 221,-413 41,-1051 -313,-1534 -1173,-1599 -3909,-889 -3946,1096 -4,215 328,1029 367,1220 26,126 -57,270 -211,233 -163,-40 -286,-618 -341,-785 -312,-943 -876,-2456 -1736,-3013 -412,-267 -936,-340 -1448,20z"/>
    <path class="fil14" d="M1526 8954c512,-360 1036,-287 1448,-20 860,557 1424,2070 1736,3013 55,167 178,745 341,785 154,37 237,-107 211,-233 -39,-191 -371,-1005 -367,-1220 37,-1985 2773,-2695 3946,-1096 354,483 534,1121 313,1534 -245,460 -838,771 -1397,811 -1782,130 -1813,-1943 -2059,-2068 -129,-66 -254,38 -245,197 7,129 58,264 93,401 198,791 760,1553 1527,1765 1117,309 1670,-383 1930,-278 106,43 219,103 319,159 151,83 439,280 587,412 1754,1560 1885,3827 -152,5352 -992,743 -1973,1254 -3205,1532 -1032,232 -2091,233 -2875,-166 -978,-498 -1546,-1349 -1723,-2601 -138,-973 149,-1960 684,-2708 247,-345 160,-316 -154,-593 -1123,-991 -2567,-3849 -958,-4978zm810 5374c-204,362 -310,436 -498,932 -546,1437 -271,3371 998,4444 83,70 246,176 308,250 461,308 966,469 1492,520 806,80 1729,37 2740,-342 806,-302 1364,-501 2172,-1058 848,-585 1292,-1170 1295,-1170 797,-894 1043,-2350 383,-3654 -246,-486 -578,-949 -925,-1260 -177,-159 -331,-288 -524,-422 -86,-59 -183,-118 -276,-172 -95,-56 -209,-70 -272,-169 198,-300 314,-351 369,-812 37,-305 -50,-688 -220,-1029 -984,-1979 -3717,-1806 -4560,-170 -63,122 -122,349 -195,429l-333 -660c-1341,-2652 -3434,-1549 -3754,-238 -262,1072 126,2264 725,3237 163,266 336,490 516,717 123,155 511,515 559,627z"/>
    <path class="fil15" d="M2270 12301c169,333 858,1368 1150,1551 154,-115 321,-263 492,-372 196,-125 406,-226 603,-352 -162,-715 -805,-2211 -1360,-2777 -523,-534 -1067,-206 -1211,308l-25 251c-23,507 102,900 351,1391z"/>
   </g>
   <path class="fil14" d="M5312 16886c310,374 895,-79 600,-470 -300,-396 -927,74 -600,470z"/>
   <path class="fil14" d="M7325 14559c-238,24 -588,570 -588,570 -27,97 38,192 119,206 146,25 323,-258 396,-352 106,-135 288,-251 73,-424z"/>
   <path class="fil14" d="M7834 15817c-70,-506 -820,-358 -747,106 78,501 814,383 747,-106z"/>
   <path class="fil14" d="M5804 15876c-37,-160 -324,-239 -545,-326l-893 -379c-74,-32 -212,-127 -293,-57 -10,9 -219,447 -137,625l1399 175c181,21 338,91 469,-38z"/>
   <path class="fil16" d="M6717 18054c386,-214 313,-313 410,-363 95,-49 171,82 568,-92 165,286 247,701 -162,897 -394,188 -641,-53 -816,-442zm1088 -1118c-308,87 -61,388 -409,439 -101,15 -209,-39 -276,-138 -117,-175 -57,-166 7,-300 270,-563 -520,-553 -797,-70 83,240 232,296 406,322 244,445 -98,559 -235,535 -100,-18 -177,-148 -297,-103 -112,43 -136,170 -49,271 99,115 134,6 243,239 63,132 113,244 200,359 159,214 333,322 509,364 566,135 1337,-394 900,-1358 -96,-213 -95,-133 -64,-329 22,-146 -12,-169 -138,-231z"/>
   <path class="fil17" d="M6717 18054c175,389 422,630 816,442 409,-196 327,-611 162,-897 -397,174 -473,43 -568,92 -97,50 -24,149 -410,363z"/>
  </g>
 </g>
</svg>
