<svg width="26" height="16" viewBox="0 0 26 16" fill="none" xmlns="http://www.w3.org/2000/svg">
<path d="M3.0446 2.20086C3.0343 2.51137 3.06544 3.09088 3.13794 3.93978H7.56274L8.10608 3.48954C8.39599 3.22038 8.55632 3.02892 8.58746 2.91506C8.62882 2.72871 8.61333 2.57341 8.54083 2.44925C8.45803 2.32509 8.31303 2.21642 8.10608 2.12341C7.64027 1.90591 6.94163 1.80235 6.01017 1.81289C5.19241 1.82319 4.35404 1.91621 3.49484 2.09235C3.33954 2.13379 3.18952 2.16988 3.0446 2.20102V2.20086ZM9.62775 7.30872C9.55525 7.24676 9.40498 7.18983 9.1775 7.1381C8.69085 7.04476 7.56274 7.1381 5.79275 7.41755L4.6905 7.58842L4.00744 7.71257C3.73828 7.76423 3.54163 7.79537 3.41747 7.80567H3.38633C3.42777 8.37488 3.46386 8.89762 3.495 9.37373H7.32999C7.7542 9.08398 8.17865 8.76819 8.60303 8.4267C9.1205 8.00225 9.44139 7.68144 9.56555 7.46394C9.60699 7.40198 9.62775 7.35032 9.62775 7.30872V7.30872ZM4.7527 5.80278C5.78772 5.16108 6.51742 4.69 6.94163 4.39002L7.48521 4.00174H3.13794C3.14824 4.15704 3.15854 4.29676 3.16899 4.42116L3.30872 6.62566H3.33962C3.35016 6.62566 3.35519 6.62063 3.35519 6.61017L4.45768 5.95816C4.55078 5.89596 4.61801 5.85452 4.65937 5.834C4.66967 5.834 4.6802 5.82873 4.69042 5.81843C4.71102 5.80813 4.73186 5.80286 4.75262 5.80286L4.7527 5.80278ZM1.10407 6.68777V6.62558H2.3771L2.23737 4.48304C2.22707 4.35888 2.21653 4.19832 2.20631 4.00166H1.11964V3.9397H2.19074C2.13909 3.28745 2.11322 2.81142 2.11322 2.51137C2.04072 2.54243 1.98379 2.57333 1.94243 2.60447C1.83879 2.67697 1.72238 2.70028 1.59303 2.67441C1.46376 2.64854 1.36276 2.58387 1.2905 2.48023C1.218 2.37667 1.19469 2.26026 1.22056 2.13083C1.24643 2.00164 1.3111 1.90056 1.41466 1.8283C1.58026 1.71445 1.82857 1.60051 2.15992 1.48665C2.17022 1.43499 2.17526 1.38309 2.17526 1.33135C2.18571 1.31083 2.19074 1.28999 2.19074 1.26915H1.0885V1.2072H2.20631C2.30995 0.9897 2.47547 0.896682 2.70326 0.927741C2.87916 0.95888 2.99829 1.05198 3.06025 1.2072H3.19997L3.3088 1.19163C4.21966 0.99497 5.11999 0.891412 6.01025 0.881112C6.98307 0.870812 7.76474 0.9794 8.35447 1.2072H11.1181V1.26915H8.4942C8.87729 1.44521 9.15674 1.67804 9.3328 1.96803C9.53976 2.30944 9.59142 2.69773 9.4881 3.13248C9.4362 3.37057 9.26533 3.63949 8.97558 3.93978H11.1493V4.00174H8.91362L8.74275 4.17261C8.42194 4.46252 7.99749 4.78844 7.46972 5.1507C7.00391 5.48205 6.2794 5.94794 5.29604 6.54821L5.63746 6.50158C7.52138 6.20152 8.76335 6.11354 9.3637 6.23769C9.75701 6.31019 10.0573 6.43962 10.2643 6.62574H11.1493V6.68793H10.3265C10.3781 6.74989 10.4247 6.81736 10.4662 6.88962C10.6318 7.20013 10.6006 7.54682 10.3729 7.92991C10.1867 8.2508 9.79334 8.65441 9.19307 9.14106L8.91362 9.37389H11.1803V9.43609H8.82028C7.44361 10.5022 5.96354 11.3353 4.37991 11.9356H11.2423V12.122H3.86763L3.65014 12.1995C3.49484 12.2411 3.35511 12.2151 3.23095 12.122H1.08842V11.9356H3.09123C3.08093 11.9253 3.07063 11.9097 3.06009 11.8892C3.02903 11.7648 3.04204 11.6459 3.09897 11.532C3.1559 11.4181 3.24652 11.3406 3.37068 11.2992C4.72651 10.8645 6.0152 10.2433 7.23657 9.43609H3.51041L3.63457 10.8022C3.64511 10.9264 3.6087 11.0402 3.5259 11.1439C3.4431 11.2473 3.33954 11.3042 3.21538 11.3147C3.09123 11.325 2.97737 11.2886 2.87397 11.2059C2.77033 11.1231 2.7134 11.0198 2.7031 10.8956C2.66175 10.44 2.62031 9.95364 2.57895 9.43609H1.13505V9.37389H2.56338C2.50118 8.64939 2.43922 7.75409 2.37702 6.68801H1.10399L1.10407 6.68777ZM15.8226 9.45142L12.0342 9.43593C12.0342 9.50843 12.0395 9.58069 12.0497 9.65319C12.1636 10.6365 12.4328 11.2834 12.857 11.594C13.2609 11.894 13.7939 11.7388 14.4562 11.1282C14.8393 10.7763 15.1393 10.4555 15.3568 10.1657C15.5018 9.95851 15.6571 9.72049 15.8226 9.4515V9.45142ZM16.661 9.8084C16.454 10.1501 16.2574 10.4451 16.071 10.6934C15.8227 11.035 15.4913 11.3973 15.0774 11.7801L14.8755 11.9509L16.7853 11.9664C16.7647 11.3559 16.7231 10.6365 16.6611 9.80832L16.661 9.8084ZM16.5679 8.30254C16.516 7.64008 16.4799 7.11223 16.459 6.71891L12.3759 6.70334C12.0756 7.54171 11.9617 8.43173 12.0342 9.37365L15.869 9.38914L16.4435 8.42662C16.4745 8.37472 16.516 8.33328 16.5679 8.30246V8.30254ZM16.366 4.76249C16.3557 4.50388 16.3504 4.25524 16.3504 4.01723H15.5895C15.7448 4.11057 15.9001 4.23472 16.0554 4.39002C16.159 4.49334 16.2623 4.61782 16.366 4.76257V4.76249ZM11.0562 6.68777V6.62558H11.4443C11.4651 6.54278 11.4909 6.46533 11.522 6.39283C11.936 5.21281 12.5726 4.41581 13.4315 4.00166H11.0717V3.9397H13.5712C14.2649 3.64995 14.8963 3.65498 15.4655 3.95527H16.3505C16.3402 2.99275 16.366 2.09722 16.4282 1.26915H11.0407V1.2072H16.4282C16.4488 0.927741 16.4746 0.658587 16.5058 0.399972C16.5266 0.275574 16.5833 0.174731 16.6765 0.0972028C16.7696 0.0194347 16.8782 -0.0116247 17.0026 0.00386506C17.1268 0.0193548 17.2276 0.0738084 17.3052 0.166907C17.3829 0.260244 17.4165 0.368833 17.4062 0.49299C17.3752 0.731005 17.3493 0.969101 17.3285 1.20712H18.0426V1.26907H17.3285C17.2665 2.09714 17.2406 2.99267 17.2509 3.95519H18.0271V4.01715H17.2509C17.2612 4.77271 17.2973 5.65771 17.3595 6.67213H18.0426V6.73408H17.3595C17.3804 7.07574 17.414 7.56215 17.4604 8.19356C17.507 8.82496 17.5353 9.22857 17.5459 9.40471H18.027V9.46667H17.5459C17.6078 10.4397 17.6546 11.2731 17.6856 11.9663H18.0582V12.1528H17.6856C17.6753 12.2666 17.6287 12.365 17.5459 12.4477C17.4631 12.5305 17.3647 12.5719 17.2509 12.5719C17.1267 12.5719 17.0207 12.5305 16.9326 12.4477C16.8445 12.3649 16.7954 12.2666 16.7851 12.1528L14.6426 12.1372C13.7732 12.7583 12.9968 12.8203 12.3137 12.3236C12.2412 12.2614 12.1687 12.1941 12.0964 12.1216H11.0406V11.9353H11.9256C11.522 11.4178 11.2684 10.688 11.1647 9.74636C11.1441 9.64273 11.1336 9.53917 11.1336 9.43585H11.0872V9.37365H11.1181C11.0664 8.44219 11.17 7.54674 11.4286 6.68777H11.0561H11.0562ZM16.3193 6.47028C16.2468 6.34612 16.1512 6.17023 16.032 5.94243C15.9132 5.71471 15.807 5.53355 15.7137 5.39909C15.6206 5.26439 15.5173 5.13521 15.4033 5.01081C14.9995 4.6072 14.5028 4.52967 13.9127 4.77806C13.2503 5.05752 12.743 5.67863 12.3913 6.64115L16.4589 6.65672V6.61009C16.3969 6.56865 16.3502 6.52226 16.3192 6.47036L16.3193 6.47028ZM22.1416 9.45142H19.7507L19.8282 9.7153C19.9834 10.2639 20.1646 10.6726 20.3718 10.9418C20.5269 11.1487 20.6719 11.2576 20.8063 11.2679C20.9307 11.2884 21.0807 11.2109 21.2566 11.035C21.4947 10.797 21.7277 10.4139 21.9553 9.88617C22.0175 9.75147 22.0797 9.60648 22.1416 9.45142H22.1416ZM23.1041 9.46675L22.7937 10.2587C22.5143 10.8798 22.214 11.3507 21.8932 11.6715C21.7793 11.7853 21.6654 11.8784 21.5515 11.9509H22.7471C22.8507 11.4956 22.9437 10.9937 23.0265 10.4451C23.0782 10.1242 23.1248 9.7981 23.1663 9.46675H23.1041V9.46675ZM22.9799 6.65672L23.0733 6.08224C23.1664 5.54393 23.2389 4.99029 23.2905 4.42108C23.3114 4.27608 23.3269 4.14163 23.3371 4.01723L18.9432 4.00166C19.1399 5.74058 19.2382 6.62055 19.2382 6.64115L22.9799 6.65672V6.65672ZM22.9643 6.71891L19.2538 6.70334L19.3471 7.35535C19.4815 8.22477 19.611 8.90281 19.7352 9.38922H22.1728C22.5039 8.55086 22.768 7.6606 22.9644 6.71891H22.9643ZM23.1974 9.20286L23.1352 9.40479H23.1818L23.1974 9.20286ZM17.8565 1.26915V1.2072H24.8586V1.26915H17.8565V1.26915ZM17.8721 6.68777V6.62558H18.3379L18.1671 5.16611C18.0946 4.5347 18.0479 4.14666 18.0273 4.00166H17.8876V3.9397H18.0273L17.9962 3.73777C17.9859 3.62392 18.0195 3.51804 18.0971 3.41968C18.1748 3.32139 18.2731 3.26438 18.392 3.24881C18.5111 3.23332 18.6198 3.26438 18.7181 3.34191C18.8164 3.41968 18.8759 3.52052 18.8967 3.64468L18.9277 3.9397L23.337 3.95527V3.90856L23.3526 3.76883V3.73777V3.70687V3.69131C23.3629 3.67047 23.3681 3.65498 23.3681 3.64468C23.3784 3.61362 23.3887 3.58775 23.399 3.56715C23.4199 3.52555 23.4405 3.48938 23.4612 3.45832C23.5543 3.355 23.6682 3.3031 23.8029 3.3031C23.8857 3.3031 23.9606 3.32394 24.028 3.3653C24.0952 3.40674 24.1393 3.4481 24.1599 3.48954L24.2066 3.55174L24.2376 3.64484C24.2479 3.66544 24.2532 3.68628 24.2532 3.70703V3.78456C24.2635 3.826 24.2685 3.88285 24.2685 3.95543H24.843V4.01739H24.2685C24.2685 4.17269 24.2738 4.37988 24.2841 4.6385V6.67237H24.8585V6.73432H24.2841C24.2841 7.43823 24.2169 8.32849 24.0824 9.40487H24.843V9.46683H24.0824C24.0305 9.84984 23.9736 10.2226 23.9116 10.5849C23.8391 11.0816 23.7563 11.5421 23.6632 11.9666H24.8741V12.153H23.6166C23.3889 13.1777 23.1302 13.9177 22.8402 14.3731C22.5713 14.7975 22.1674 15.1856 21.6294 15.5375C20.9254 15.993 20.3149 16.1119 19.7971 15.8948C19.6626 15.8326 19.5385 15.7187 19.4245 15.5531C19.3935 15.522 19.3702 15.4936 19.3548 15.4678C19.3393 15.4419 19.3263 15.4236 19.316 15.4134C19.3057 15.4031 19.2951 15.3875 19.2848 15.3668C19.202 15.2737 19.1659 15.1651 19.1762 15.0409C19.1865 14.9167 19.2382 14.8131 19.3314 14.7304C19.4245 14.6476 19.5331 14.6112 19.6573 14.6217C19.7817 14.632 19.8851 14.6837 19.9679 14.777C19.9783 14.7873 20.0404 14.8753 20.1542 15.0409L20.1853 15.0718C20.4025 15.1548 20.7183 15.0565 21.1322 14.777C21.5567 14.5079 21.8673 14.2179 22.0639 13.9075C22.2915 13.5451 22.5037 12.9553 22.7004 12.1375H21.1323C20.9979 12.179 20.8581 12.1892 20.7131 12.1686C20.6406 12.1581 20.5734 12.1478 20.5115 12.1375L17.8564 12.122V11.9356L20.1231 11.9512C19.9473 11.827 19.7867 11.6667 19.642 11.47C19.3728 11.1076 19.145 10.6056 18.9586 9.96394C18.907 9.79834 18.8604 9.62229 18.8189 9.43617H17.9031V9.37397H18.8034C18.6792 8.8565 18.5604 8.22509 18.4464 7.47975C18.4153 7.23135 18.3792 6.96747 18.3378 6.68801H17.872L17.8721 6.68777Z" fill="white"/>
</svg>
